SplineFontDB: 3.0
FontName: BethEllen2Regular
FullName: Beth Ellen 2
FamilyName: Beth Ellen 2
Weight: Book
Copyright: Copyright (c) 2018, Rob Jelinski Studios,llc.   with Reserved Font Name
Version: 1.006;Fontself Maker 2.1.2
ItalicAngle: 0
UnderlinePosition: -150
UnderlineWidth: 50
Ascent: 800
Descent: 200
InvalidEm: 0
sfntRevision: 0x00010000
LayerCount: 2
Layer: 0 1 "Back" 1
Layer: 1 1 "Fore" 0
XUID: [1021 238 798099342 13694192]
StyleMap: 0x0040
FSType: 0
OS2Version: 4
OS2_WeightWidthSlopeOnly: 0
OS2_UseTypoMetrics: 0
CreationTime: 1555518701
ModificationTime: 1557435979
PfmFamily: 81
TTFWeight: 400
TTFWidth: 5
LineGap: 0
VLineGap: 0
Panose: 0 0 0 0 0 0 0 0 0 0
OS2TypoAscent: 1625
OS2TypoAOffset: 0
OS2TypoDescent: -595
OS2TypoDOffset: 0
OS2TypoLinegap: 0
OS2WinAscent: 1612
OS2WinAOffset: 0
OS2WinDescent: 470
OS2WinDOffset: 0
HheadAscent: 1625
HheadAOffset: 0
HheadDescent: -595
HheadDOffset: 0
OS2SubXSize: 650
OS2SubYSize: 699
OS2SubXOff: 0
OS2SubYOff: 140
OS2SupXSize: 650
OS2SupYSize: 699
OS2SupXOff: 0
OS2SupYOff: 479
OS2StrikeYSize: 49
OS2StrikeYPos: 258
OS2CapHeight: 1124
OS2XHeight: 604
OS2Vendor: 'XXXX'
OS2CodePages: 00000001.00000000
OS2UnicodeRanges: 80000027.1000000b.00000000.00000000
Lookup: 1 0 0 "'aalt' Access All Alternates lookup 0" { "'aalt' Access All Alternates lookup 0 subtable"  } ['aalt' ('DFLT' <'dflt' > ) ]
Lookup: 3 0 0 "'aalt' Access All Alternates lookup 1" { "'aalt' Access All Alternates lookup 1 subtable"  } ['aalt' ('DFLT' <'dflt' > ) ]
Lookup: 4 0 1 "'liga' Standard Ligatures lookup 2" { "'liga' Standard Ligatures lookup 2 subtable"  } ['liga' ('DFLT' <'dflt' > ) ]
DEI: 91125
ShortTable: maxp 16
  1
  0
  249
  2828
  78
  0
  0
  2
  0
  1
  1
  0
  64
  0
  0
  0
EndShort

StartChar: exclam
Encoding: 33 33 6
Width: 656
GlyphClass: 2
Flags: W
LayerCount: 2
Fore
SplineSet
125.5 -56 m 128,-1,1
 105 -14 105 -14 131 33 c 0,2,3
 142 56 142 56 163 50 c 0,4,5
 168 50 168 50 189 45 c 0,6,7
 210 39 210 39 222 38 c 0,8,9
 252 31 252 31 274.5 4 c 128,-1,10
 297 -23 297 -23 289 -45 c 0,11,12
 280 -65 280 -65 250 -81.5 c 128,-1,13
 220 -98 220 -98 195 -98 c 0,14,0
 146 -98 146 -98 125.5 -56 c 128,-1,1
410 905 m 0,15,16
 417 944 417 944 437 947 c 1,17,18
 461 956 461 956 467.5 955 c 128,-1,19
 474 954 474 954 479 944 c 0,20,21
 486 932 486 932 515 932 c 0,22,23
 538 932 538 932 552.5 928 c 128,-1,24
 567 924 567 924 578.5 913 c 128,-1,25
 590 902 590 902 599 883 c 0,26,27
 612 860 612 860 612 850 c 128,-1,28
 612 840 612 840 599 819 c 0,29,30
 580 788 580 788 562 712 c 0,31,32
 543 634 543 634 521 589 c 0,33,34
 501 550 501 550 491 508 c 0,35,36
 472 415 472 415 402 319 c 0,37,38
 363 270 363 270 358 213 c 0,39,40
 353 161 353 161 340.5 143.5 c 128,-1,41
 328 126 328 126 297 126 c 0,42,43
 254 126 254 126 227.5 162 c 128,-1,44
 201 198 201 198 230 220 c 0,45,46
 249 237 249 237 254 272 c 0,47,48
 260 299 260 299 286 382 c 0,49,50
 303 436 303 436 353 644 c 0,51,52
 403 853 403 853 410 905 c 0,15,16
EndSplineSet
EndChar

StartChar: quotedbl
Encoding: 34 34 7
Width: 556
GlyphClass: 2
Flags: W
LayerCount: 2
Fore
SplineSet
195 745 m 128,-1,1
 196 732 196 732 211 715 c 0,2,3
 236 685 236 685 231 665 c 128,-1,4
 226 645 226 645 188 615 c 2,5,-1
 141 580 l 1,6,7
 125 580 125 580 95 599 c 128,-1,8
 65 618 65 618 60 629 c 0,9,10
 12 761 12 761 99 882 c 0,11,12
 122 914 122 914 140 920 c 128,-1,13
 158 926 158 926 186 910 c 0,14,15
 207 897 207 897 212.5 864.5 c 128,-1,16
 218 832 218 832 204 789 c 0,17,0
 194 758 194 758 195 745 c 128,-1,1
492 715 m 0,18,19
 517 685 517 685 512 665 c 128,-1,20
 507 645 507 645 468 615 c 2,21,-1
 421 580 l 1,22,23
 406 580 406 580 375.5 599 c 128,-1,24
 345 618 345 618 341 629 c 0,25,26
 293 761 293 761 380 882 c 0,27,28
 403 914 403 914 421 920 c 128,-1,29
 439 926 439 926 467 910 c 0,30,31
 488 897 488 897 493.5 864.5 c 128,-1,32
 499 832 499 832 485 789 c 0,33,34
 475 758 475 758 476 745 c 128,-1,35
 477 732 477 732 492 715 c 0,18,19
EndSplineSet
EndChar

StartChar: numbersign
Encoding: 35 35 8
Width: 941
GlyphClass: 2
Flags: W
LayerCount: 2
Fore
SplineSet
653 659 m 0,0,1
 672 703 672 703 672 721 c 0,2,3
 672 746 672 746 707 785 c 0,4,5
 748 831 748 831 763 790 c 0,6,7
 770 770 770 770 716 623 c 0,8,9
 662 479 662 479 657 448 c 0,10,11
 655 430 655 430 679 426 c 0,12,13
 702 423 702 423 830 430 c 0,14,15
 871 431 871 431 887.5 418.5 c 128,-1,16
 904 406 904 406 891 384 c 0,17,18
 882 371 882 371 857 366.5 c 128,-1,19
 832 362 832 362 756 362 c 0,20,21
 638 362 638 362 626.5 350.5 c 128,-1,22
 615 339 615 339 611 310 c 0,23,24
 608 288 608 288 617 284 c 128,-1,25
 626 280 626 280 673 277 c 0,26,27
 741 273 741 273 761 251 c 0,28,29
 808 199 808 199 709 199 c 2,30,-1
 675 199 l 1,31,32
 594 204 594 204 575.5 189 c 128,-1,33
 557 174 557 174 519 59 c 0,34,35
 498 -3 498 -3 479.5 -46 c 128,-1,36
 461 -89 461 -89 447 -108.5 c 128,-1,37
 433 -128 433 -128 423 -122 c 0,38,39
 392 -104 392 -104 436 4 c 0,40,41
 492 147 492 147 495 177 c 0,42,43
 495 179 495 179 487 179 c 2,44,-1
 469 179 l 1,45,-1
 443 179 l 2,46,47
 428 179 428 179 412 177 c 0,48,49
 395 176 395 176 381 175 c 128,-1,50
 367 174 367 174 354 172 c 0,51,52
 342 171 342 171 335 169 c 0,53,54
 313 164 313 164 298.5 148.5 c 128,-1,55
 284 133 284 133 263 91 c 0,56,57
 231 24 231 24 214 16 c 0,58,59
 194 11 194 11 190 37 c 0,60,61
 189 63 189 63 202 103 c 0,62,63
 214 140 214 140 213 150 c 128,-1,64
 212 160 212 160 199 164 c 0,65,66
 156 177 156 177 141 187 c 128,-1,67
 126 197 126 197 130 213 c 0,68,69
 133 233 133 233 187 236 c 0,70,71
 239 241 239 241 253 251 c 0,72,73
 264 262 264 262 271 292 c 128,-1,74
 278 322 278 322 271 327 c 0,75,76
 263 332 263 332 187 320 c 0,77,78
 109 310 109 310 96 324 c 0,79,80
 40 369 40 369 163 391 c 0,81,82
 190 396 190 396 226 400 c 2,83,-1
 306 408 l 1,84,-1
 330 464 l 2,85,86
 355 518 355 518 357 556 c 0,87,88
 362 602 362 602 395 632 c 128,-1,89
 428 662 428 662 453 642 c 0,90,91
 463 634 463 634 460.5 618.5 c 128,-1,92
 458 603 458 603 441 560 c 0,93,94
 414 494 414 494 406 452 c 2,95,-1
 397 416 l 1,96,97
 520 421 520 421 583 423 c 1,98,-1
 608 517 l 2,99,100
 633 610 633 610 653 659 c 0,0,1
536.5 299.5 m 128,-1,102
 556 334 556 334 547 346 c 0,103,104
 542 354 542 354 464.5 355.5 c 128,-1,105
 387 357 387 357 367 349 c 0,106,107
 352 346 352 346 352 324 c 0,108,109
 352 303 352 303 338 290 c 0,110,111
 327 277 327 277 333 263 c 0,112,113
 340 253 340 253 407.5 251.5 c 128,-1,114
 475 250 475 250 500 258 c 0,115,101
 517 265 517 265 536.5 299.5 c 128,-1,102
EndSplineSet
EndChar

StartChar: dollar
Encoding: 36 36 9
Width: 939
GlyphClass: 2
Flags: W
LayerCount: 2
Fore
SplineSet
590 851 m 0,0,1
 565 832 565 832 565 798 c 0,2,3
 565 777 565 777 540 724 c 128,-1,4
 515 671 515 671 515 654 c 0,5,6
 515 626 515 626 499 620 c 0,7,8
 487 614 487 614 485 606.5 c 128,-1,9
 483 599 483 599 490 589.5 c 128,-1,10
 497 580 497 580 514 566.5 c 128,-1,11
 531 553 531 553 561 533 c 0,12,13
 675 455 675 455 733.5 354.5 c 128,-1,14
 792 254 792 254 757 195 c 0,15,16
 737 159 737 159 659 132.5 c 128,-1,17
 581 106 581 106 483 102 c 0,18,19
 382 97 382 97 362.5 77 c 128,-1,20
 343 57 343 57 341 -46 c 0,21,22
 339 -108 339 -108 325 -120.5 c 128,-1,23
 311 -133 311 -133 265 -118 c 2,24,-1
 222 -104 l 1,25,26
 245 145 245 145 245 146 c 2,27,-1
 195 182 l 2,28,29
 151 210 151 210 146.5 243.5 c 128,-1,30
 142 277 142 277 179 307 c 0,31,32
 201 326 201 326 209 326 c 128,-1,33
 217 326 217 326 240 307 c 0,34,35
 268 284 268 284 277 298 c 0,36,37
 288 313 288 313 316 421 c 2,38,-1
 346 538 l 1,39,-1
 309 571 l 1,40,41
 268 614 268 614 248.5 701.5 c 128,-1,42
 229 789 229 789 252 842 c 0,43,44
 261 863 261 863 348 923.5 c 128,-1,45
 435 984 435 984 455 984 c 0,46,47
 487 984 487 984 512.5 1022 c 128,-1,48
 538 1060 538 1060 542 1113 c 0,49,50
 551 1179 551 1179 582 1218 c 128,-1,51
 613 1257 613 1257 664 1219 c 0,52,53
 682 1208 682 1208 683 1188 c 0,54,55
 684 1169 684 1169 675 1113 c 0,56,57
 663 1043 663 1043 657 1016 c 0,58,59
 652 1005 652 1005 714 957 c 0,60,61
 769 910 769 910 801 855 c 0,62,63
 817 821 817 821 817 808.5 c 128,-1,64
 817 796 817 796 801 781 c 0,65,66
 794 775 794 775 773 767 c 0,67,68
 753 760 753 760 729 754.5 c 128,-1,69
 705 749 705 749 682 747 c 256,70,71
 659 745 659 745 644 746 c 256,72,73
 629 747 629 747 629 752.5 c 128,-1,74
 629 758 629 758 648 791 c 0,75,76
 661 808 661 808 660 819 c 128,-1,77
 659 830 659 830 641 844 c 0,78,79
 625 859 625 859 614.5 861 c 128,-1,80
 604 863 604 863 590 851 c 0,0,1
604 353 m 0,81,82
 579 381 579 381 540 406 c 0,83,84
 478 444 478 444 465 449 c 1,85,86
 444 449 444 449 423.5 418 c 128,-1,87
 403 387 403 387 403 360 c 0,88,89
 403 320 403 320 380 265 c 0,90,91
 357 216 357 216 366 203 c 1,92,93
 394 180 394 180 494.5 202 c 128,-1,94
 595 224 595 224 629 262 c 0,95,96
 641 279 641 279 635 302.5 c 128,-1,97
 629 326 629 326 604 353 c 0,81,82
401 715 m 0,98,99
 414 715 414 715 423 745 c 0,100,101
 428 764 428 764 424.5 771.5 c 128,-1,102
 421 779 421 779 412 773.5 c 128,-1,103
 403 768 403 768 396 751 c 0,104,105
 387 728 387 728 388 721.5 c 128,-1,106
 389 715 389 715 401 715 c 0,98,99
EndSplineSet
EndChar

StartChar: percent
Encoding: 37 37 10
Width: 815
GlyphClass: 2
Flags: W
LayerCount: 2
Fore
SplineSet
677 742 m 0,0,1
 680 741 680 741 684 739.5 c 128,-1,2
 688 738 688 738 691.5 734.5 c 128,-1,3
 695 731 695 731 698.5 727.5 c 128,-1,4
 702 724 702 724 707.5 719 c 128,-1,5
 713 714 713 714 718 710 c 1,6,7
 690 684 690 684 663 656 c 128,-1,8
 636 628 636 628 609.5 597 c 128,-1,9
 583 566 583 566 561.5 540.5 c 128,-1,10
 540 515 540 515 513 479.5 c 128,-1,11
 486 444 486 444 469 421.5 c 128,-1,12
 452 399 452 399 424 359 c 128,-1,13
 396 319 396 319 382.5 299.5 c 128,-1,14
 369 280 369 280 339 236 c 128,-1,15
 309 192 309 192 297 176 c 0,16,17
 247 103 247 103 174 31 c 0,18,19
 148 7 148 7 134 2.5 c 128,-1,20
 120 -2 120 -2 105 8.5 c 128,-1,21
 90 19 90 19 61 54 c 1,22,23
 72 67 72 67 96 92.5 c 128,-1,24
 120 118 120 118 138.5 139 c 128,-1,25
 157 160 157 160 172 180 c 0,26,27
 339 392 339 392 572 692 c 0,28,29
 615 747 615 747 677 742 c 0,0,1
698 385 m 1,30,31
 764 368 764 368 771 342.5 c 128,-1,32
 778 317 778 317 731 253 c 0,33,34
 713 229 713 229 715 222 c 0,35,36
 719 206 719 206 719 190.5 c 128,-1,37
 719 175 719 175 717 162.5 c 128,-1,38
 715 150 715 150 709.5 136 c 128,-1,39
 704 122 704 122 698.5 111.5 c 128,-1,40
 693 101 693 101 683.5 87.5 c 128,-1,41
 674 74 674 74 667 65 c 128,-1,42
 660 56 660 56 649 43 c 0,43,44
 644 37 644 37 640 29 c 128,-1,45
 636 21 636 21 633.5 12 c 128,-1,46
 631 3 631 3 630 1 c 0,47,48
 623 3 623 3 610 7.5 c 128,-1,49
 597 12 597 12 587 14.5 c 128,-1,50
 577 17 577 17 568 17 c 0,51,52
 534 19 534 19 513 37.5 c 128,-1,53
 492 56 492 56 488 86 c 0,54,55
 475 189 475 189 488 255 c 0,56,57
 490 264 490 264 497 273.5 c 128,-1,58
 504 283 504 283 516.5 292 c 128,-1,59
 529 301 529 301 537.5 307 c 128,-1,60
 546 313 546 313 561 321 c 0,61,62
 578 332 578 332 598.5 341.5 c 128,-1,63
 619 351 619 351 650 364 c 128,-1,64
 681 377 681 377 698 385 c 1,30,31
569 114 m 1,65,66
 593 123 593 123 606.5 142.5 c 128,-1,67
 620 162 620 162 623.5 181 c 128,-1,68
 627 200 627 200 633.5 224 c 128,-1,69
 640 248 640 248 650 262 c 1,70,71
 617 251 617 251 598.5 242.5 c 128,-1,72
 580 234 580 234 567 223.5 c 128,-1,73
 554 213 554 213 553 197.5 c 128,-1,74
 552 182 552 182 555.5 163.5 c 128,-1,75
 559 145 559 145 569 114 c 1,65,66
289 476 m 0,76,77
 267 433 267 433 226 417.5 c 128,-1,78
 185 402 185 402 126 401 c 0,79,80
 78 399 78 399 55.5 428.5 c 128,-1,81
 33 458 33 458 51 500 c 0,82,83
 82 571 82 571 163 673 c 0,84,85
 204 724 204 724 298 702 c 1,86,87
 316 685 316 685 327.5 668 c 128,-1,88
 339 651 339 651 341.5 633.5 c 128,-1,89
 344 616 344 616 343.5 602 c 128,-1,90
 343 588 343 588 335.5 569 c 128,-1,91
 328 550 328 550 322.5 538.5 c 128,-1,92
 317 527 317 527 305.5 506.5 c 128,-1,93
 294 486 294 486 289 476 c 0,76,77
236 575 m 1,94,95
 220 576 220 576 212 576.5 c 128,-1,96
 204 577 204 577 193.5 575.5 c 128,-1,97
 183 574 183 574 178.5 572.5 c 128,-1,98
 174 571 174 571 167 565 c 128,-1,99
 160 559 160 559 157 554.5 c 128,-1,100
 154 550 154 550 148 537.5 c 128,-1,101
 142 525 142 525 138.5 514.5 c 128,-1,102
 135 504 135 504 127 484 c 1,103,104
 159 483 159 483 180.5 491 c 128,-1,105
 202 499 202 499 216.5 519.5 c 128,-1,106
 231 540 231 540 236 575 c 1,94,95
EndSplineSet
EndChar

StartChar: ampersand
Encoding: 38 38 11
Width: 822
GlyphClass: 2
Flags: W
LayerCount: 2
Fore
SplineSet
380 240 m 0,0,1
 391 225 391 225 404.5 209.5 c 128,-1,2
 418 194 418 194 439.5 170 c 128,-1,3
 461 146 461 146 476 129 c 1,4,5
 482 146 482 146 489.5 166 c 128,-1,6
 497 186 497 186 503 201 c 128,-1,7
 509 216 509 216 514.5 231.5 c 128,-1,8
 520 247 520 247 524.5 261.5 c 128,-1,9
 529 276 529 276 531 290 c 0,10,11
 540 353 540 353 517.5 372 c 128,-1,12
 495 391 495 391 424 384 c 1,13,14
 413 442 413 442 466 454 c 0,15,16
 467 455 467 455 475 455 c 0,17,18
 492 456 492 456 507.5 455.5 c 128,-1,19
 523 455 523 455 540.5 454.5 c 128,-1,20
 558 454 558 454 573 454.5 c 128,-1,21
 588 455 588 455 604.5 457 c 128,-1,22
 621 459 621 459 635 463 c 0,23,24
 649 468 649 468 663 474.5 c 128,-1,25
 677 481 677 481 691 490.5 c 128,-1,26
 705 500 705 500 718 509 c 128,-1,27
 731 518 731 518 748 530 c 128,-1,28
 765 542 765 542 779 551 c 1,29,30
 777 520 777 520 766.5 496.5 c 128,-1,31
 756 473 756 473 738.5 458.5 c 128,-1,32
 721 444 721 444 704.5 435 c 128,-1,33
 688 426 688 426 665 415.5 c 128,-1,34
 642 405 642 405 631 398 c 1,35,36
 568 161 568 161 544 68 c 1,37,38
 555 59 555 59 580.5 41 c 128,-1,39
 606 23 606 23 621 10.5 c 128,-1,40
 636 -2 636 -2 650.5 -28 c 128,-1,41
 665 -54 665 -54 667 -86 c 1,42,43
 655 -83 655 -83 635 -79 c 128,-1,44
 615 -75 615 -75 601.5 -71 c 128,-1,45
 588 -67 588 -67 577 -61 c 0,46,47
 574 -59 574 -59 568 -56 c 0,48,49
 540 -41 540 -41 525.5 -34.5 c 128,-1,50
 511 -28 511 -28 487 -21.5 c 128,-1,51
 463 -15 463 -15 439.5 -19 c 128,-1,52
 416 -23 416 -23 387 -36 c 0,53,54
 324 -61 324 -61 255.5 -52.5 c 128,-1,55
 187 -44 187 -44 119 -9 c 0,56,57
 74 14 74 14 54.5 58.5 c 128,-1,58
 35 103 35 103 49 153 c 0,59,60
 76 256 76 256 122 340 c 0,61,62
 160 408 160 408 129 475 c 0,63,64
 95 546 95 546 85 600 c 0,65,66
 68 687 68 687 113.5 767 c 128,-1,67
 159 847 159 847 242 876 c 0,68,69
 265 884 265 884 292.5 876 c 128,-1,70
 320 868 320 868 343 846.5 c 128,-1,71
 366 825 366 825 377 796 c 0,72,73
 432 654 432 654 350 531 c 0,74,75
 346 525 346 525 338 514 c 0,76,77
 318 484 318 484 309.5 471 c 128,-1,78
 301 458 301 458 290 438.5 c 128,-1,79
 279 419 279 419 276 413 c 128,-1,80
 273 407 273 407 271.5 393 c 128,-1,81
 270 379 270 379 272 375 c 128,-1,82
 274 371 274 371 280.5 358.5 c 128,-1,83
 287 346 287 346 293.5 339.5 c 128,-1,84
 300 333 300 333 314 317 c 0,85,86
 354 274 354 274 380 240 c 0,0,1
429 53 m 1,87,88
 386 101 386 101 306 188 c 128,-1,89
 226 275 226 275 205 297 c 1,90,91
 197 278 197 278 183 249.5 c 128,-1,92
 169 221 169 221 161.5 202.5 c 128,-1,93
 154 184 154 184 150 167 c 0,94,95
 138 115 138 115 161.5 79 c 128,-1,96
 185 43 185 43 239 24 c 0,97,98
 258 18 258 18 276 16.5 c 128,-1,99
 294 15 294 15 313.5 19 c 128,-1,100
 333 23 333 23 348 27 c 128,-1,101
 363 31 363 31 388 39.5 c 128,-1,102
 413 48 413 48 429 53 c 1,87,88
216 502 m 1,103,104
 274 587 274 587 282.5 651.5 c 128,-1,105
 291 716 291 716 253 779 c 1,106,107
 169 735 169 735 159.5 661 c 128,-1,108
 150 587 150 587 216 502 c 1,103,104
EndSplineSet
EndChar

StartChar: parenleft
Encoding: 40 40 12
Width: 446
GlyphClass: 2
Flags: W
LayerCount: 2
Fore
SplineSet
189 703 m 256,0,1
 204 732 204 732 224 755.5 c 128,-1,2
 244 779 244 779 271 796.5 c 128,-1,3
 298 814 298 814 323 826.5 c 128,-1,4
 348 839 348 839 383 852 c 1,5,6
 426 800 426 800 374 764 c 0,7,8
 351 748 351 748 330 728 c 128,-1,9
 309 708 309 708 293.5 691 c 128,-1,10
 278 674 278 674 260 647 c 128,-1,11
 242 620 242 620 232 604.5 c 128,-1,12
 222 589 222 589 206 556 c 128,-1,13
 190 523 190 523 183.5 509.5 c 128,-1,14
 177 496 177 496 160.5 459 c 128,-1,15
 144 422 144 422 139 411 c 0,16,17
 99 321 99 321 134.5 247.5 c 128,-1,18
 170 174 170 174 278 119 c 0,19,20
 281 117 281 117 294.5 110.5 c 128,-1,21
 308 104 308 104 312.5 101.5 c 128,-1,22
 317 99 317 99 327.5 92 c 128,-1,23
 338 85 338 85 342 80 c 128,-1,24
 346 75 346 75 352.5 67 c 128,-1,25
 359 59 359 59 361.5 49.5 c 128,-1,26
 364 40 364 40 365 29 c 1,27,28
 281 -28 281 -28 202 28 c 0,29,30
 96 103 96 103 58.5 235.5 c 128,-1,31
 21 368 21 368 73 484 c 0,32,33
 92 526 92 526 133 600 c 128,-1,34
 174 674 174 674 189 703 c 256,0,1
EndSplineSet
EndChar

StartChar: parenright
Encoding: 41 41 13
Width: 456
GlyphClass: 2
Flags: W
LayerCount: 2
Fore
SplineSet
207 767 m 0,0,1
 196 783 196 783 178 797.5 c 128,-1,2
 160 812 160 812 132 829.5 c 128,-1,3
 104 847 104 847 90 858 c 1,4,5
 122 913 122 913 142 919 c 128,-1,6
 162 925 162 925 204 895 c 0,7,8
 264 851 264 851 299.5 799 c 128,-1,9
 335 747 335 747 344 677 c 0,10,11
 348 643 348 643 371.5 581.5 c 128,-1,12
 395 520 395 520 399 506 c 0,13,14
 417 444 417 444 412 413 c 0,15,16
 383 232 383 232 268 130 c 0,17,18
 251 114 251 114 209 78.5 c 128,-1,19
 167 43 167 43 145 23 c 0,20,21
 119 -2 119 -2 94 0.5 c 128,-1,22
 69 3 69 3 43 36 c 1,23,24
 59 56 59 56 90 97 c 128,-1,25
 121 138 121 138 146.5 169.5 c 128,-1,26
 172 201 172 201 196 228 c 0,27,28
 266 305 266 305 287.5 401.5 c 128,-1,29
 309 498 309 498 287 590 c 128,-1,30
 265 682 265 682 207 767 c 0,0,1
EndSplineSet
EndChar

StartChar: asterisk
Encoding: 42 42 14
Width: 635
GlyphClass: 2
Flags: W
LayerCount: 2
Fore
SplineSet
133 631 m 1,0,1
 125 639 125 639 106 643 c 128,-1,2
 87 647 87 647 72 650.5 c 128,-1,3
 57 654 57 654 48 670.5 c 128,-1,4
 39 687 39 687 46 717 c 1,5,6
 68 719 68 719 105.5 721.5 c 128,-1,7
 143 724 143 724 161 725 c 1,8,9
 156 747 156 747 156.5 763 c 128,-1,10
 157 779 157 779 163.5 795 c 128,-1,11
 170 811 170 811 178 822.5 c 128,-1,12
 186 834 186 834 197.5 847.5 c 128,-1,13
 209 861 209 861 219.5 872 c 128,-1,14
 230 883 230 883 241.5 897.5 c 128,-1,15
 253 912 253 912 260 926 c 1,16,17
 272 919 272 919 300.5 903 c 128,-1,18
 329 887 329 887 345 877 c 1,19,20
 315 803 315 803 301 769 c 1,21,22
 328 783 328 783 355.5 786.5 c 128,-1,23
 383 790 383 790 406 786.5 c 128,-1,24
 429 783 429 783 453.5 776 c 128,-1,25
 478 769 478 769 499 761.5 c 128,-1,26
 520 754 520 754 545 748.5 c 128,-1,27
 570 743 570 743 592 744 c 1,28,29
 592 727 592 727 591 719 c 1,30,31
 565 714 565 714 489 699 c 128,-1,32
 413 684 413 684 362 674 c 1,33,34
 427 613 427 613 432 609 c 0,35,36
 434 607 434 607 451.5 594.5 c 128,-1,37
 469 582 469 582 474 573 c 0,38,39
 480 564 480 564 480.5 550.5 c 128,-1,40
 481 537 481 537 477 529 c 0,41,42
 472 521 472 521 459 516 c 128,-1,43
 446 511 446 511 437 513 c 0,44,45
 425 515 425 515 411 519.5 c 128,-1,46
 397 524 397 524 386.5 527.5 c 128,-1,47
 376 531 376 531 359.5 536.5 c 128,-1,48
 343 542 343 542 333 546 c 1,49,50
 320 475 320 475 314 446 c 1,51,52
 298 445 298 445 286.5 444.5 c 128,-1,53
 275 444 275 444 265.5 449.5 c 128,-1,54
 256 455 256 455 250.5 460 c 128,-1,55
 245 465 245 465 240 474.5 c 128,-1,56
 235 484 235 484 232 491 c 128,-1,57
 229 498 229 498 225 508 c 128,-1,58
 221 518 221 518 218 524 c 1,59,60
 200 517 200 517 165 503 c 128,-1,61
 130 489 130 489 115 483 c 1,62,63
 124 557 124 557 133 631 c 1,0,1
EndSplineSet
AlternateSubs2: "'aalt' Access All Alternates lookup 1 subtable" asterisk.alt1 asterisk.alt2 asterisk.alt3 asterisk.alt4 asterisk.alt5 asterisk.alt6 asterisk.alt7 asterisk.alt8 asterisk.alt9 asterisk.alt10 asterisk.alt11 asterisk.alt12 asterisk.alt13 asterisk.alt14 asterisk.alt15 asterisk.alt16
EndChar

StartChar: plus
Encoding: 43 43 15
Width: 621
GlyphClass: 2
Flags: W
LayerCount: 2
Fore
SplineSet
432 474 m 0,0,1
 426 452 426 452 375 295 c 1,2,3
 478 307 478 307 486 307 c 0,4,5
 528 310 528 310 550 303 c 0,6,7
 559 301 559 301 568.5 290.5 c 128,-1,8
 578 280 578 280 578 272 c 0,9,10
 577 264 577 264 567 254 c 128,-1,11
 557 244 557 244 548 242 c 0,12,13
 528 238 528 238 504 235 c 128,-1,14
 480 232 480 232 451 228.5 c 128,-1,15
 422 225 422 225 406 223 c 0,16,17
 402 222 402 222 344 212 c 1,18,19
 341 197 341 197 332.5 166 c 128,-1,20
 324 135 324 135 317.5 111 c 128,-1,21
 311 87 311 87 306 65 c 0,22,23
 303 47 303 47 300.5 39 c 128,-1,24
 298 31 298 31 292 19 c 128,-1,25
 286 7 286 7 276 3 c 128,-1,26
 266 -1 266 -1 251 0 c 0,27,28
 199 7 199 7 206 82 c 0,29,30
 207 92 207 92 224 202 c 1,31,-1
 43 202 l 1,32,33
 50 210 50 210 59.5 222.5 c 128,-1,34
 69 235 69 235 74 241 c 128,-1,35
 79 247 79 247 85 248 c 0,36,37
 150 269 150 269 187 268 c 0,38,39
 219 268 219 268 236.5 282 c 128,-1,40
 254 296 254 296 265 325 c 0,41,42
 268 334 268 334 274 351.5 c 128,-1,43
 280 369 280 369 284 380 c 128,-1,44
 288 391 288 391 294 405.5 c 128,-1,45
 300 420 300 420 307 432 c 0,46,47
 329 468 329 468 379 518 c 0,48,49
 386 524 386 524 402 526 c 128,-1,50
 418 528 418 528 421 523 c 0,51,52
 439 498 439 498 432 474 c 0,0,1
EndSplineSet
EndChar

StartChar: comma
Encoding: 44 44 16
Width: 368
GlyphClass: 2
Flags: W
LayerCount: 2
Fore
SplineSet
133.5 105 m 128,-1,1
 138 125 138 125 175 157 c 2,2,-1
 220 194 l 1,3,4
 236 194 236 194 267 176.5 c 128,-1,5
 298 159 298 159 303 149 c 0,6,7
 357 19 357 19 276 -105 c 0,8,9
 254 -139 254 -139 236.5 -145.5 c 128,-1,10
 219 -152 219 -152 190 -137 c 0,11,12
 168 -125 168 -125 161.5 -93.5 c 128,-1,13
 155 -62 155 -62 166 -18 c 0,14,15
 175 14 175 14 173 27 c 128,-1,16
 171 40 171 40 156 56 c 0,17,0
 129 85 129 85 133.5 105 c 128,-1,1
EndSplineSet
EndChar

StartChar: hyphen
Encoding: 45 45 17
Width: 575
GlyphClass: 2
Flags: W
LayerCount: 2
Fore
SplineSet
123 272 m 0,0,1
 91 274 91 274 71 288.5 c 128,-1,2
 51 303 51 303 43 342 c 1,3,4
 247 331 247 331 262 330 c 0,5,6
 287 329 287 329 319 328.5 c 128,-1,7
 351 328 351 328 383.5 327.5 c 128,-1,8
 416 327 416 327 441 326 c 0,9,10
 444 325 444 325 455 325 c 128,-1,11
 466 325 466 325 470.5 324.5 c 128,-1,12
 475 324 475 324 484.5 322.5 c 128,-1,13
 494 321 494 321 499 318 c 128,-1,14
 504 315 504 315 511 310 c 128,-1,15
 518 305 518 305 523 297 c 128,-1,16
 528 289 528 289 533 278 c 1,17,18
 526 276 526 276 513.5 270 c 128,-1,19
 501 264 501 264 491.5 261 c 128,-1,20
 482 258 482 258 474 258 c 0,21,22
 345 261 345 261 123 272 c 0,0,1
EndSplineSet
EndChar

StartChar: period
Encoding: 46 46 18
Width: 371
GlyphClass: 2
Flags: W
LayerCount: 2
Fore
SplineSet
115 96 m 128,-1,1
 123 135 123 135 142 148 c 0,2,3
 160 164 160 164 195.5 162 c 128,-1,4
 231 160 231 160 261 145 c 0,5,6
 292 128 292 128 295 117 c 128,-1,7
 298 106 298 106 282 66 c 0,8,9
 263 24 263 24 243.5 11 c 128,-1,10
 224 -2 224 -2 181 0 c 0,11,12
 132 2 132 2 132 23 c 128,-1,13
 132 44 132 44 118 51 c 0,14,0
 107 57 107 57 115 96 c 128,-1,1
EndSplineSet
EndChar

StartChar: slash
Encoding: 47 47 19
Width: 849
GlyphClass: 2
Flags: W
LayerCount: 2
Fore
SplineSet
771 990.5 m 128,-1,1
 806 972 806 972 806 957 c 0,2,3
 806 947 806 947 771 896.5 c 128,-1,4
 736 846 736 846 736 837 c 0,5,6
 736 822 736 822 712 800 c 0,7,8
 690 781 690 781 672 748 c 0,9,10
 642 689 642 689 589 595 c 0,11,12
 522 470 522 470 522 462 c 0,13,14
 522 450 522 450 448.5 324.5 c 128,-1,15
 375 199 375 199 323 121 c 0,16,17
 257 24 257 24 206.5 -80.5 c 128,-1,18
 156 -185 156 -185 146 -242 c 0,19,20
 138 -296 138 -296 115 -306 c 128,-1,21
 92 -316 92 -316 62 -278 c 0,22,23
 45 -256 45 -256 43.5 -242.5 c 128,-1,24
 42 -229 42 -229 55 -187 c 0,25,26
 94 -49 94 -49 239 172 c 0,27,28
 333 315 333 315 353 356 c 0,29,30
 422 485 422 485 454 546.5 c 128,-1,31
 486 608 486 608 498 639 c 128,-1,32
 510 670 510 670 510 687 c 0,33,34
 510 724 510 724 540 766 c 0,35,36
 565 803 565 803 567.5 821 c 128,-1,37
 570 839 570 839 557 874 c 0,38,39
 549 899 549 899 550.5 899 c 128,-1,40
 552 899 552 899 559 893 c 0,41,42
 584 869 584 869 604 881 c 128,-1,43
 624 893 624 893 646 943 c 0,44,45
 665 984 665 984 676 996.5 c 128,-1,46
 687 1009 687 1009 707 1009 c 0,47,0
 736 1009 736 1009 771 990.5 c 128,-1,1
EndSplineSet
EndChar

StartChar: zero
Encoding: 48 48 20
Width: 559
GlyphClass: 2
Flags: W
LayerCount: 2
Fore
SplineSet
268 751 m 0,0,1
 275 767 275 767 335 797 c 0,2,3
 425 838 425 838 483 816 c 0,4,5
 510 806 510 806 514.5 786.5 c 128,-1,6
 519 767 519 767 508 725 c 0,7,8
 496 675 496 675 493 626 c 0,9,10
 492 598 492 598 486 557 c 0,11,12
 481 518 481 518 474 483 c 0,13,14
 467 450 467 450 461 438 c 0,15,16
 454 426 454 426 430 364 c 128,-1,17
 406 302 406 302 398 277 c 0,18,19
 391 256 391 256 402 240 c 128,-1,20
 413 224 413 224 431 228 c 0,21,22
 443 232 443 232 446.5 229.5 c 128,-1,23
 450 227 450 227 447 216 c 0,24,25
 445 198 445 198 424 199 c 0,26,27
 403 202 403 202 392 170 c 0,28,29
 363 95 363 95 325.5 36.5 c 128,-1,30
 288 -22 288 -22 269 -22 c 0,31,32
 257 -22 257 -22 247 -36 c 0,33,34
 233 -50 233 -50 180 -57 c 0,35,36
 71 -71 71 -71 49 10 c 0,37,38
 38 55 38 55 47.5 158 c 128,-1,39
 57 261 57 261 80 314 c 0,40,41
 89 335 89 335 92 358 c 0,42,43
 100 395 100 395 116 448 c 0,44,45
 132 502 132 502 138 509 c 0,46,47
 147 523 147 523 151 549 c 0,48,49
 158 579 158 579 187 617 c 0,50,51
 216 657 216 657 216 664 c 0,52,53
 216 673 216 673 239 702 c 0,54,55
 259 730 259 730 268 751 c 0,0,1
375 653 m 0,56,57
 370 665 370 665 369 672 c 0,58,59
 363 689 363 689 352 689 c 128,-1,60
 341 689 341 689 335 672 c 0,61,62
 329 653 329 653 273 582 c 0,63,64
 216 507 216 507 216 499 c 0,65,66
 216 488 216 488 196 422 c 0,67,68
 132 205 132 205 127 100 c 2,69,-1
 124 41 l 1,70,-1
 157 39 l 2,71,72
 189 35 189 35 212 57 c 0,73,74
 244 87 244 87 270.5 135.5 c 128,-1,75
 297 184 297 184 309 236 c 0,76,77
 326 303 326 303 349 389 c 0,78,79
 371 473 371 473 371 510 c 0,80,81
 371 545 371 545 381 582 c 0,82,83
 386 598 386 598 386 611 c 256,84,85
 386 624 386 624 384 632 c 0,86,87
 381 641 381 641 375 653 c 0,56,57
EndSplineSet
EndChar

StartChar: one
Encoding: 49 49 21
Width: 461
GlyphClass: 2
Flags: W
LayerCount: 2
Fore
SplineSet
176 784 m 1,0,-1
 223 799 l 2,1,2
 342 834 342 834 404 860 c 1,3,4
 405 839 405 839 408 822 c 128,-1,5
 411 805 411 805 414 787.5 c 128,-1,6
 417 770 417 770 418 749 c 0,7,8
 418 718 418 718 409 671 c 128,-1,9
 400 624 400 624 390.5 593 c 128,-1,10
 381 562 381 562 362.5 505 c 128,-1,11
 344 448 344 448 341 438 c 0,12,13
 337 426 337 426 310.5 356 c 128,-1,14
 284 286 284 286 278 248 c 0,15,16
 278 246 278 246 277.5 241.5 c 128,-1,17
 277 237 277 237 276.5 234 c 128,-1,18
 276 231 276 231 275 226 c 128,-1,19
 274 221 274 221 273 217.5 c 128,-1,20
 272 214 272 214 270.5 210.5 c 128,-1,21
 269 207 269 207 267 204.5 c 128,-1,22
 265 202 265 202 262.5 200.5 c 128,-1,23
 260 199 260 199 256.5 199 c 128,-1,24
 253 199 253 199 249 201 c 1,25,26
 231 157 231 157 229 150 c 0,27,28
 209 93 209 93 178 -1 c 0,29,30
 176 -8 176 -8 172 -21 c 128,-1,31
 168 -34 168 -34 164.5 -45 c 128,-1,32
 161 -56 161 -56 157 -65 c 0,33,34
 152 -80 152 -80 137 -84 c 128,-1,35
 122 -88 122 -88 108.5 -85.5 c 128,-1,36
 95 -83 95 -83 72.5 -76.5 c 128,-1,37
 50 -70 50 -70 43 -68 c 1,38,39
 51 -40 51 -40 66.5 11 c 128,-1,40
 82 62 82 62 89 84 c 0,41,42
 117 179 117 179 195.5 393 c 128,-1,43
 274 607 274 607 301 699 c 1,44,45
 209 660 209 660 191 659 c 0,46,47
 184 659 184 659 163 645.5 c 128,-1,48
 142 632 142 632 132 637 c 1,49,50
 131 642 131 642 129 654.5 c 128,-1,51
 127 667 127 667 126.5 673 c 128,-1,52
 126 679 126 679 127 688 c 128,-1,53
 128 697 128 697 132 704 c 0,54,55
 138 715 138 715 152 726.5 c 128,-1,56
 166 738 166 738 173 750.5 c 128,-1,57
 180 763 180 763 176 784 c 1,0,-1
EndSplineSet
EndChar

StartChar: two
Encoding: 50 50 22
Width: 792
GlyphClass: 2
Flags: W
LayerCount: 2
Fore
SplineSet
546 810 m 0,0,1
 588 829 588 829 600 833 c 0,2,3
 662 855 662 855 703.5 804 c 128,-1,4
 745 753 745 753 739 660 c 0,5,6
 737 613 737 613 746 579 c 0,7,8
 750 559 750 559 747.5 550 c 128,-1,9
 745 541 745 541 730 532 c 0,10,11
 705 515 705 515 680 471 c 0,12,13
 608 345 608 345 542 269 c 0,14,15
 434 149 434 149 434 134 c 0,16,17
 434 127 434 127 413 103 c 0,18,19
 373 62 373 62 453 53 c 0,20,21
 482 51 482 51 532 52 c 0,22,23
 601 55 601 55 620 55 c 0,24,25
 647 55 647 55 672 38.5 c 128,-1,26
 697 22 697 22 697 4 c 0,27,28
 697 -17 697 -17 676 -32.5 c 128,-1,29
 655 -48 655 -48 627.5 -45 c 128,-1,30
 600 -42 600 -42 547 -50 c 0,31,32
 500 -59 500 -59 471 -41 c 0,33,34
 462 -35 462 -35 450 -31 c 128,-1,35
 438 -27 438 -27 424 -24 c 0,36,37
 411 -21 411 -21 401 -20 c 0,38,39
 396 -19 396 -19 373 -16 c 0,40,41
 356 -13 356 -13 345 -12 c 0,42,43
 311 -5 311 -5 262 -27 c 0,44,45
 157 -73 157 -73 85 -37 c 0,46,47
 13 1 13 1 64 52 c 0,48,49
 76 63 76 63 91.5 66.5 c 128,-1,50
 107 70 107 70 143 69 c 0,51,52
 206 67 206 67 239 85 c 0,53,54
 268 100 268 100 308.5 141 c 128,-1,55
 349 182 349 182 381 228 c 0,56,57
 406 263 406 263 464 338 c 0,58,59
 637 562 637 562 615 651 c 0,60,61
 609 672 609 672 585.5 674 c 128,-1,62
 562 676 562 676 503 660 c 0,63,64
 468 651 468 651 449.5 638.5 c 128,-1,65
 431 626 431 626 401 591 c 0,66,67
 360 547 360 547 338.5 541.5 c 128,-1,68
 317 536 317 536 293 562 c 2,69,-1
 272 584 l 1,70,-1
 341 658 l 2,71,72
 402 720 402 720 441 749 c 0,73,74
 481 778 481 778 546 810 c 0,0,1
EndSplineSet
EndChar

StartChar: three
Encoding: 51 51 23
Width: 684
GlyphClass: 2
Flags: W
LayerCount: 2
Fore
SplineSet
591 346 m 128,-1,1
 633 305 633 305 633 291 c 0,2,3
 633 283 633 283 598.5 189.5 c 128,-1,4
 564 96 564 96 564 89 c 0,5,6
 564 84 564 84 558 80.5 c 128,-1,7
 552 77 552 77 542 77 c 0,8,9
 521 77 521 77 500 56 c 0,10,11
 485 38 485 38 395 -23 c 0,12,13
 340 -59 340 -59 318 -68 c 0,14,15
 297 -78 297 -78 280 -75 c 0,16,17
 253 -67 253 -67 220 -79 c 0,18,19
 199 -86 199 -86 183 -84.5 c 128,-1,20
 167 -83 167 -83 135 -72 c 0,21,22
 101 -61 101 -61 91 -52 c 128,-1,23
 81 -43 81 -43 76 -21 c 0,24,25
 69 13 69 13 83 27 c 0,26,27
 91 35 91 35 99.5 33 c 128,-1,28
 108 31 108 31 130 14.5 c 128,-1,29
 152 -2 152 -2 165.5 -6 c 128,-1,30
 179 -10 179 -10 202 -6 c 0,31,32
 316 13 316 13 416 117 c 0,33,34
 488 193 488 193 502 241.5 c 128,-1,35
 516 290 516 290 475 325 c 0,36,37
 455 342 455 342 441.5 345.5 c 128,-1,38
 428 349 428 349 399 345 c 0,39,40
 358 340 358 340 334 325 c 0,41,42
 289 295 289 295 258 330 c 0,43,44
 235 355 235 355 251 380.5 c 128,-1,45
 267 406 267 406 326 438 c 0,46,47
 419 488 419 488 477.5 573.5 c 128,-1,48
 536 659 536 659 516 714 c 0,49,50
 510 730 510 730 501.5 732 c 128,-1,51
 493 734 493 734 462 728 c 0,52,53
 421 720 421 720 364 683.5 c 128,-1,54
 307 647 307 647 294 619 c 0,55,56
 286 601 286 601 275.5 597 c 128,-1,57
 265 593 265 593 235 593 c 0,58,59
 208 593 208 593 193 597.5 c 128,-1,60
 178 602 178 602 172 612.5 c 128,-1,61
 166 623 166 623 166 641 c 0,62,63
 166 665 166 665 188 690.5 c 128,-1,64
 210 716 210 716 243 731 c 0,65,66
 410 809 410 809 437 817 c 0,67,68
 468 825 468 825 527 817.5 c 128,-1,69
 586 810 586 810 611 795 c 128,-1,70
 636 780 636 780 639.5 771 c 128,-1,71
 643 762 643 762 637 720 c 0,72,73
 630 665 630 665 622 650 c 0,74,75
 614 633 614 633 614 607 c 0,76,77
 614 579 614 579 596 550.5 c 128,-1,78
 578 522 578 522 536 481 c 0,79,80
 486 432 486 432 486 426 c 0,81,82
 486 417 486 417 518 402 c 0,83,0
 549 387 549 387 591 346 c 128,-1,1
EndSplineSet
EndChar

StartChar: four
Encoding: 52 52 24
Width: 664
GlyphClass: 2
Flags: W
LayerCount: 2
Fore
SplineSet
479 826 m 0,0,1
 479 839 479 839 514 863 c 0,2,3
 536 880 536 880 549 883 c 0,4,5
 561 886 561 886 579 880 c 0,6,7
 611 872 611 872 618.5 861.5 c 128,-1,8
 626 851 626 851 615 833 c 0,9,10
 605 812 605 812 598 771 c 0,11,12
 593 745 593 745 586.5 736.5 c 128,-1,13
 580 728 580 728 561.5 725 c 128,-1,14
 543 722 543 722 533.5 708.5 c 128,-1,15
 524 695 524 695 501 642 c 0,16,17
 468 567 468 567 457 527 c 0,18,19
 448 490 448 490 431 479 c 0,20,21
 417 469 417 469 404 441 c 128,-1,22
 391 413 391 413 396 404 c 0,23,24
 399 396 399 396 483 396 c 0,25,26
 582 395 582 395 582 381 c 0,27,28
 582 377 582 377 575 368 c 0,29,30
 565 355 565 355 506 355 c 0,31,32
 453 355 453 355 418.5 341.5 c 128,-1,33
 384 328 384 328 377 305 c 0,34,35
 373 291 373 291 363 263 c 0,36,37
 358 250 358 250 338 171 c 0,38,39
 323 106 323 106 313.5 84.5 c 128,-1,40
 304 63 304 63 289.5 63 c 128,-1,41
 275 63 275 63 261 29 c 128,-1,42
 247 -5 247 -5 232 1 c 0,43,44
 212 7 212 7 213 29.5 c 128,-1,45
 214 52 214 52 236 110 c 0,46,47
 252 152 252 152 266 194.5 c 128,-1,48
 280 237 280 237 285.5 264.5 c 128,-1,49
 291 292 291 292 288 299 c 0,50,51
 283 306 283 306 266 298 c 0,52,53
 234 280 234 280 191 271 c 0,54,55
 147 262 147 262 129 269 c 0,56,57
 113 276 113 276 99 285.5 c 128,-1,58
 85 295 85 295 77.5 306 c 128,-1,59
 70 317 70 317 70 327 c 0,60,61
 70 345 70 345 141 421 c 0,62,63
 276 569 276 569 363 672.5 c 128,-1,64
 450 776 450 776 445 782 c 0,65,66
 441 786 441 786 460 800 c 0,67,68
 479 815 479 815 479 826 c 0,0,1
324 393 m 0,69,70
 330 405 330 405 341 438 c 0,71,72
 367 521 367 521 356 525 c 0,73,74
 348 527 348 527 305 476 c 0,75,76
 262 428 262 428 243 402 c 0,77,78
 236 386 236 386 251 375 c 128,-1,79
 266 364 266 364 291 367 c 0,80,81
 304 368 304 368 311 373.5 c 128,-1,82
 318 379 318 379 324 393 c 0,69,70
342 248 m 0,83,84
 352 263 352 263 352 270 c 128,-1,85
 352 277 352 277 342.5 277 c 128,-1,86
 333 277 333 277 333 256 c 0,87,88
 333 240 333 240 336 240 c 0,89,90
 337 240 337 240 342 248 c 0,83,84
EndSplineSet
EndChar

StartChar: five
Encoding: 53 53 25
Width: 743
GlyphClass: 2
Flags: W
LayerCount: 2
Fore
SplineSet
590.5 776.5 m 128,-1,1
 630 805 630 805 650 814 c 0,2,3
 676 828 676 828 715.5 835 c 128,-1,4
 755 842 755 842 784 838 c 0,5,6
 798 836 798 836 804.5 832 c 128,-1,7
 811 828 811 828 810 821 c 256,8,9
 809 814 809 814 795 802.5 c 128,-1,10
 781 791 781 791 764 783 c 0,11,12
 714 756 714 756 663 715 c 0,13,14
 607 668 607 668 589.5 666.5 c 128,-1,15
 572 665 572 665 535 648 c 1,16,17
 496 635 496 635 473 633 c 0,18,19
 449 633 449 633 402 618 c 0,20,21
 373 608 373 608 360.5 598.5 c 128,-1,22
 348 589 348 589 340 571 c 0,23,24
 328 543 328 543 301 500 c 0,25,26
 278 463 278 463 288 452 c 128,-1,27
 298 441 298 441 363 435 c 0,28,29
 403 433 403 433 428 428 c 256,30,31
 453 423 453 423 474.5 415 c 128,-1,32
 496 407 496 407 513 395 c 0,33,34
 529 383 529 383 547 364 c 0,35,36
 576 333 576 333 581.5 320.5 c 128,-1,37
 587 308 587 308 585 279 c 0,38,39
 574 199 574 199 561 173 c 0,40,41
 549 146 549 146 488 81 c 0,42,43
 369 -48 369 -48 338 -49 c 0,44,45
 327 -49 327 -49 301 -69 c 0,46,47
 285 -83 285 -83 260 -85 c 0,48,49
 234 -87 234 -87 139 -86 c 0,50,51
 89 -85 89 -85 58.5 -83.5 c 128,-1,52
 28 -82 28 -82 18 -80 c 0,53,54
 -3 -76 -3 -76 -22 -57 c 0,55,56
 -78 3 -78 3 -2 28 c 0,57,58
 37 40 37 40 49 28 c 0,59,60
 63 18 63 18 139 12 c 0,61,62
 171 8 171 8 194.5 11 c 128,-1,63
 218 14 218 14 232 19.5 c 128,-1,64
 246 25 246 25 279 46 c 0,65,66
 384 108 384 108 441 207 c 0,67,68
 493 299 493 299 450 333 c 0,69,70
 445 339 445 339 437 342 c 0,71,72
 413 351 413 351 367.5 346 c 128,-1,73
 322 341 322 341 301 328 c 0,74,75
 278 312 278 312 264 312 c 0,76,77
 251 312 251 312 218 278 c 0,78,79
 154 212 154 212 112 272 c 0,80,81
 94 297 94 297 92.5 313 c 128,-1,82
 91 329 91 329 105 357 c 0,83,84
 139 425 139 425 171 511 c 0,85,86
 203 596 203 596 199 606 c 0,87,88
 189 617 189 617 199 635 c 0,89,90
 206 647 206 647 238 657 c 0,91,92
 271 668 271 668 366 689 c 0,93,94
 404 695 404 695 424 701.5 c 128,-1,95
 444 708 444 708 468 718 c 0,96,97
 492 729 492 729 515 737 c 0,98,0
 551 748 551 748 590.5 776.5 c 128,-1,1
EndSplineSet
EndChar

StartChar: six
Encoding: 54 54 26
Width: 661
GlyphClass: 2
Flags: W
LayerCount: 2
Fore
SplineSet
325 774 m 0,0,1
 357 782 357 782 368 790 c 0,2,3
 381 801 381 801 406.5 798.5 c 128,-1,4
 432 796 432 796 446 781 c 0,5,6
 457 768 457 768 457.5 760 c 128,-1,7
 458 752 458 752 447 731 c 0,8,9
 432 699 432 699 393 649 c 0,10,11
 364 615 364 615 336 563 c 0,12,13
 308 513 308 513 288 483 c 0,14,15
 256 438 256 438 256 425.5 c 128,-1,16
 256 413 256 413 242 400 c 0,17,18
 229 391 229 391 208 348 c 0,19,20
 187 301 187 301 164 227 c 128,-1,21
 141 153 141 153 146 146 c 0,22,23
 147 144 147 144 159 151 c 0,24,25
 171 159 171 159 191 173 c 0,26,27
 212 189 212 189 235 207 c 0,28,29
 317 275 317 275 368 299 c 0,30,31
 401 313 401 313 422 316 c 128,-1,32
 443 319 443 319 497 315 c 0,33,34
 573 308 573 308 595 290.5 c 128,-1,35
 617 273 617 273 617 220 c 2,36,-1
 617 171 l 1,37,-1
 522 82 l 2,38,39
 429 -6 429 -6 411 -9 c 0,40,41
 396 -9 396 -9 383 -23 c 0,42,43
 361 -49 361 -49 242 -63 c 0,44,45
 184 -70 184 -70 166 -78 c 0,46,47
 133 -96 133 -96 95 -72 c 128,-1,48
 57 -48 57 -48 64 -13 c 0,49,50
 68 12 68 12 56 63 c 0,51,52
 43 113 43 113 43 148.5 c 128,-1,53
 43 184 43 184 57 238 c 0,54,55
 71 290 71 290 84 321 c 0,56,57
 97 354 97 354 144 449 c 0,58,59
 204 570 204 570 247 638 c 0,60,61
 269 674 269 674 281 721 c 0,62,63
 289 749 289 749 296 758 c 128,-1,64
 303 767 303 767 325 774 c 0,0,1
388 92 m 0,65,66
 475 153 475 153 479 169 c 0,67,68
 480 179 480 179 474 182.5 c 128,-1,69
 468 186 468 186 444 184 c 0,70,71
 411 184 411 184 356.5 154 c 128,-1,72
 302 124 302 124 258 81 c 0,73,74
 199 24 199 24 234 23 c 0,75,76
 278 20 278 20 388 92 c 0,65,66
EndSplineSet
EndChar

StartChar: seven
Encoding: 55 55 27
Width: 904
GlyphClass: 2
Flags: W
LayerCount: 2
Fore
SplineSet
660 808 m 0,0,1
 707 817 707 817 734 833 c 0,2,3
 742 839 742 839 746 842 c 0,4,5
 754 847 754 847 757 849 c 256,6,7
 760 851 760 851 766 854.5 c 128,-1,8
 772 858 772 858 777 859 c 128,-1,9
 782 860 782 860 789 862 c 128,-1,10
 796 864 796 864 804 864 c 2,11,-1
 824 864 l 2,12,13
 850 865 850 865 855 860 c 128,-1,14
 860 855 860 855 860 831 c 0,15,16
 860 800 860 800 831 767 c 256,17,18
 802 734 802 734 699 640 c 0,19,20
 612 564 612 564 513 449 c 128,-1,21
 414 334 414 334 381 272 c 0,22,23
 266 60 266 60 266 34 c 0,24,25
 266 12 266 12 241 -24 c 0,26,27
 212 -67 212 -67 174 -69 c 128,-1,28
 136 -71 136 -71 132 -30 c 0,29,30
 128 -7 128 -7 167 71 c 0,31,32
 187 111 187 111 201 145.5 c 128,-1,33
 215 180 215 180 227 203 c 0,34,35
 240 228 240 228 268 272 c 0,36,37
 315 347 315 347 315 352 c 0,38,39
 315 359 315 359 392 465 c 0,40,41
 470 571 470 571 508 616 c 0,42,43
 558 673 558 673 558 683 c 0,44,45
 558 688 558 688 543.5 689.5 c 128,-1,46
 529 691 529 691 513.5 688 c 128,-1,47
 498 685 498 685 494 680 c 0,48,49
 489 670 489 670 464 670 c 0,50,51
 440 670 440 670 409 656 c 0,52,53
 377 641 377 641 320 627 c 0,54,55
 180 594 180 594 139 557 c 0,56,57
 124 544 124 544 119 544 c 128,-1,58
 114 544 114 544 104 557 c 0,59,60
 92 575 92 575 70 587 c 0,61,62
 48 597 48 597 43 619 c 0,63,64
 41 641 41 641 66 655.5 c 128,-1,65
 91 670 91 670 132 670 c 0,66,67
 222 670 222 670 301 705 c 0,68,69
 327 717 327 717 363 725 c 0,70,71
 396 730 396 730 407 738 c 0,72,73
 418 748 418 748 471 756 c 0,74,75
 499 761 499 761 533 772 c 0,76,77
 574 784 574 784 600 792 c 0,78,79
 634 803 634 803 660 808 c 0,0,1
EndSplineSet
EndChar

StartChar: eight
Encoding: 56 56 28
Width: 765
GlyphClass: 2
Flags: W
LayerCount: 2
Fore
SplineSet
809 835 m 0,0,1
 817 835 817 835 842 868 c 0,2,3
 861 893 861 893 873.5 897.5 c 128,-1,4
 886 902 886 902 932 902 c 0,5,6
 994 902 994 902 994 891 c 0,7,8
 994 883 994 883 958 851 c 128,-1,9
 922 819 922 819 869.5 779 c 128,-1,10
 817 739 817 739 770 707 c 0,11,12
 686 652 686 652 642 611 c 0,13,14
 598 571 598 571 546 505 c 0,15,16
 471 410 471 410 455 391 c 0,17,18
 429 358 429 358 429 349.5 c 128,-1,19
 429 341 429 341 459 284 c 0,20,21
 494 217 494 217 484 156 c 128,-1,22
 474 95 474 95 416 28 c 0,23,24
 348 -49 348 -49 304.5 -69 c 128,-1,25
 261 -89 261 -89 195 -74 c 0,26,27
 155 -64 155 -64 115 -57 c 0,28,29
 87 -52 87 -52 63 -27 c 128,-1,30
 39 -2 39 -2 44 15 c 0,31,32
 50 42 50 42 54 66 c 0,33,34
 57 88 57 88 81 116.5 c 128,-1,35
 105 145 105 145 181 216 c 0,36,37
 314 340 314 340 300 353 c 1,38,-1
 288 357 l 1,39,40
 253 357 253 357 202 464 c 0,41,42
 171 529 171 529 171 585 c 128,-1,43
 171 641 171 641 202 709 c 0,44,45
 224 753 224 753 237 767 c 128,-1,46
 250 781 250 781 290 799 c 0,47,48
 373 836 373 836 423.5 820 c 128,-1,49
 474 804 474 804 513 730 c 0,50,51
 523 711 523 711 508 683 c 0,52,53
 494 653 494 653 460 623 c 0,54,55
 416 582 416 582 409 587 c 0,56,57
 398 594 398 594 394.5 623.5 c 128,-1,58
 391 653 391 653 400 663 c 0,59,60
 415 681 415 681 399.5 694 c 128,-1,61
 384 707 384 707 357 702 c 0,62,63
 331 698 331 698 315 687 c 0,64,65
 310 682 310 682 303 664 c 128,-1,66
 296 646 296 646 289 625.5 c 128,-1,67
 282 605 282 605 278 583 c 128,-1,68
 274 561 274 561 274 548.5 c 128,-1,69
 274 536 274 536 291 508 c 128,-1,70
 308 480 308 480 329 458 c 128,-1,71
 350 436 350 436 361 436 c 0,72,73
 375 433 375 433 438 515 c 0,74,75
 485 573 485 573 528 618 c 0,76,77
 570 663 570 663 614 700 c 0,78,79
 658 738 658 738 711 774 c 0,80,81
 803 835 803 835 809 835 c 0,0,1
299 70 m 0,82,83
 380 140 380 140 380 214 c 0,84,85
 380 237 380 237 376 249 c 128,-1,86
 372 261 372 261 363 260 c 128,-1,87
 354 259 354 259 340 248 c 128,-1,88
 326 237 326 237 304 212 c 0,89,90
 260 161 260 161 227.5 107 c 128,-1,91
 195 53 195 53 199 39 c 0,92,93
 206 20 206 20 233.5 28.5 c 128,-1,94
 261 37 261 37 299 70 c 0,82,83
EndSplineSet
EndChar

StartChar: nine
Encoding: 57 57 29
Width: 584
GlyphClass: 2
Flags: W
LayerCount: 2
Fore
SplineSet
421 795.5 m 128,-1,1
 430 798 430 798 447 814 c 0,2,3
 472 839 472 839 497 833.5 c 128,-1,4
 522 828 522 828 533.5 810.5 c 128,-1,5
 545 793 545 793 540 771 c 0,6,7
 535 756 535 756 528 727 c 0,8,9
 522 699 522 699 515 675 c 0,10,11
 509 653 509 653 498 633 c 0,12,13
 477 590 477 590 477 566.5 c 128,-1,14
 477 543 477 543 468 526 c 0,15,16
 458 508 458 508 452 440 c 0,17,18
 450 396 450 396 442 361 c 0,19,20
 434 324 434 324 425 287 c 0,21,22
 415 248 415 248 410 205 c 0,23,24
 381 -4 381 -4 368 -31 c 0,25,26
 360 -49 360 -49 335.5 -47 c 128,-1,27
 311 -45 311 -45 298 -27 c 0,28,29
 285 -8 285 -8 283 47 c 128,-1,30
 281 102 281 102 292 114 c 0,31,32
 298 120 298 120 306 191 c 256,33,34
 314 262 314 262 317 324 c 0,35,36
 320 385 320 385 314 402 c 1,37,38
 306 410 306 410 245 391 c 0,39,40
 200 377 200 377 169 373 c 0,41,42
 137 370 137 370 113.5 378 c 128,-1,43
 90 386 90 386 75 405 c 128,-1,44
 60 424 60 424 50 456 c 0,45,46
 38 494 38 494 48 560 c 128,-1,47
 58 626 58 626 83 663 c 0,48,49
 108 703 108 703 145 738 c 0,50,51
 181 772 181 772 216 789 c 0,52,53
 252 805 252 805 306.5 808.5 c 128,-1,54
 361 812 361 812 396 800 c 0,55,0
 412 793 412 793 421 795.5 c 128,-1,1
356 666 m 0,56,57
 353 671 353 671 350 678 c 0,58,59
 342 703 342 703 314 702 c 0,60,61
 284 700 284 700 259.5 687.5 c 128,-1,62
 235 675 235 675 201 641 c 0,63,64
 158 598 158 598 151 557 c 256,65,66
 144 516 144 516 158 502.5 c 128,-1,67
 172 489 172 489 212 494 c 0,68,69
 255 501 255 501 280.5 518.5 c 128,-1,70
 306 536 306 536 327 573 c 0,71,72
 353 617 353 617 368 637 c 0,73,74
 383 653 383 653 371 653 c 0,75,76
 368 653 368 653 364 656.5 c 128,-1,77
 360 660 360 660 356 666 c 0,56,57
EndSplineSet
EndChar

StartChar: colon
Encoding: 58 58 30
Width: 308
GlyphClass: 2
Flags: W
LayerCount: 2
Fore
SplineSet
61 86 m 0,0,1
 61 120 61 120 83 131 c 0,2,3
 112 150 112 150 158 145 c 128,-1,4
 204 140 204 140 226 116 c 0,5,6
 245 96 245 96 246.5 86.5 c 128,-1,7
 248 77 248 77 233 51 c 0,8,9
 193 -32 193 -32 108 20 c 0,10,11
 90 32 90 32 80 41 c 256,12,13
 70 50 70 50 65.5 60.5 c 128,-1,14
 61 71 61 71 61 86 c 0,0,1
92.5 461.5 m 128,-1,16
 114 487 114 487 147 492 c 0,17,18
 154 494 154 494 167 495 c 0,19,20
 185 497 185 497 188 498 c 0,21,22
 197 499 197 499 199 499 c 0,23,24
 208 499 208 499 217 489.5 c 128,-1,25
 226 480 226 480 233 465 c 256,26,27
 240 450 240 450 240 436.5 c 128,-1,28
 240 423 240 423 224 401 c 128,-1,29
 208 379 208 379 187 362 c 128,-1,30
 166 345 166 345 152 345 c 0,31,32
 130 345 130 345 111 363.5 c 128,-1,33
 92 382 92 382 80 409 c 0,34,15
 71 436 71 436 92.5 461.5 c 128,-1,16
EndSplineSet
EndChar

StartChar: semicolon
Encoding: 59 59 31
Width: 395
GlyphClass: 2
Flags: W
LayerCount: 2
Fore
SplineSet
102 99 m 128,-1,1
 106 135 106 135 133 157 c 0,2,3
 163 181 163 181 188.5 181 c 128,-1,4
 214 181 214 181 251 157 c 0,5,6
 278 140 278 140 284.5 128.5 c 128,-1,7
 291 117 291 117 291 87 c 0,8,9
 291 43 291 43 266.5 -34.5 c 128,-1,10
 242 -112 242 -112 219 -142 c 0,11,12
 197 -173 197 -173 174 -173 c 128,-1,13
 151 -173 151 -173 121 -144 c 0,14,15
 87 -112 87 -112 96 -94 c 0,16,17
 124 -26 124 -26 129.5 -1 c 128,-1,18
 135 24 135 24 119 39 c 0,19,0
 98 63 98 63 102 99 c 128,-1,1
199 459 m 0,20,21
 119 540 119 540 215 568 c 0,22,23
 263 583 263 583 273 583 c 0,24,25
 284 585 284 585 311 559 c 128,-1,26
 338 533 338 533 338 519 c 0,27,28
 338 502 338 502 301 460 c 128,-1,29
 264 418 264 418 251 418 c 0,30,31
 236 418 236 418 199 459 c 0,20,21
EndSplineSet
EndChar

StartChar: less
Encoding: 60 60 32
Width: 528
GlyphClass: 2
Flags: W
LayerCount: 2
Fore
SplineSet
369 376 m 0,0,1
 351 356 351 356 330 336.5 c 128,-1,2
 309 317 309 317 272.5 284.5 c 128,-1,3
 236 252 236 252 219 236 c 1,4,5
 416 167 416 167 426 164 c 0,6,7
 444 157 444 157 461.5 126 c 128,-1,8
 479 95 479 95 483 64.5 c 128,-1,9
 487 34 487 34 475 16 c 0,10,11
 467 6 467 6 449 2 c 128,-1,12
 431 -2 431 -2 417 2 c 0,13,14
 411 4 411 4 404.5 6.5 c 128,-1,15
 398 9 398 9 390 15 c 128,-1,16
 382 21 382 21 379 23 c 128,-1,17
 376 25 376 25 365.5 34 c 128,-1,18
 355 43 355 43 354 43 c 0,19,20
 248 130 248 130 102 147 c 0,21,22
 91 148 91 148 78.5 153 c 128,-1,23
 66 158 66 158 56 165.5 c 128,-1,24
 46 173 46 173 44 180 c 0,25,26
 41 192 41 192 50 211.5 c 128,-1,27
 59 231 59 231 72 242 c 0,28,29
 134 296 134 296 314 442 c 0,30,31
 332 457 332 457 351 454.5 c 128,-1,32
 370 452 370 452 380 433 c 0,33,34
 385 422 385 422 381.5 403.5 c 128,-1,35
 378 385 378 385 369 376 c 0,0,1
EndSplineSet
EndChar

StartChar: equal
Encoding: 61 61 33
Width: 625
GlyphClass: 2
Flags: W
LayerCount: 2
Fore
SplineSet
540 186 m 0,0,1
 544 186 544 186 549.5 183.5 c 128,-1,2
 555 181 555 181 559 178 c 128,-1,3
 563 175 563 175 569.5 170.5 c 128,-1,4
 576 166 576 166 581 163 c 1,5,6
 552 103 552 103 485 113 c 0,7,8
 296 141 296 141 144 118 c 0,9,10
 109 112 109 112 92.5 127 c 128,-1,11
 76 142 76 142 73 187 c 1,12,13
 441 187 441 187 540 186 c 0,0,1
143 266 m 0,14,15
 107 263 107 263 91 282 c 128,-1,16
 75 301 75 301 78 346 c 1,17,18
 434 346 434 346 491 345 c 0,19,20
 543 345 543 345 564 289 c 1,21,22
 559 286 559 286 552 282 c 128,-1,23
 545 278 545 278 540 275 c 128,-1,24
 535 272 535 272 530 270.5 c 128,-1,25
 525 269 525 269 521 270 c 0,26,27
 494 275 494 275 467 278.5 c 128,-1,28
 440 282 440 282 411.5 282.5 c 128,-1,29
 383 283 383 283 359.5 283 c 128,-1,30
 336 283 336 283 303.5 280.5 c 128,-1,31
 271 278 271 278 251 276.5 c 128,-1,32
 231 275 231 275 195.5 271.5 c 128,-1,33
 160 268 160 268 143 266 c 0,14,15
EndSplineSet
EndChar

StartChar: greater
Encoding: 62 62 34
Width: 534
GlyphClass: 2
Flags: W
LayerCount: 2
Fore
SplineSet
43 75 m 1,0,1
 101 139 101 139 325 385 c 1,2,3
 306 390 306 390 276.5 396.5 c 128,-1,4
 247 403 247 403 229.5 407 c 128,-1,5
 212 411 212 411 188.5 419.5 c 128,-1,6
 165 428 165 428 150 438.5 c 128,-1,7
 135 449 135 449 119.5 467 c 128,-1,8
 104 485 104 485 94 510 c 1,9,10
 101 511 101 511 111.5 513 c 128,-1,11
 122 515 122 515 129 516.5 c 128,-1,12
 136 518 136 518 143.5 518 c 128,-1,13
 151 518 151 518 156 515 c 0,14,15
 189 498 189 498 242 483 c 128,-1,16
 295 468 295 468 335 458.5 c 128,-1,17
 375 449 375 449 419 423.5 c 128,-1,18
 463 398 463 398 491 359 c 1,19,20
 436 299 436 299 327 180.5 c 128,-1,21
 218 62 218 62 161 0 c 1,22,23
 151 7 151 7 110.5 32.5 c 128,-1,24
 70 58 70 58 43 75 c 1,0,1
EndSplineSet
EndChar

StartChar: question
Encoding: 63 63 35
Width: 824
GlyphClass: 2
Flags: W
LayerCount: 2
Fore
SplineSet
219.5 -62 m 128,-1,1
 222 -53 222 -53 240 -39 c 0,2,3
 265 -19 265 -19 283 -18.5 c 128,-1,4
 301 -18 301 -18 329 -36 c 0,5,6
 356 -53 356 -53 359.5 -82.5 c 128,-1,7
 363 -112 363 -112 341 -120.5 c 128,-1,8
 319 -129 319 -129 277 -115.5 c 128,-1,9
 235 -102 235 -102 225 -85 c 0,10,0
 217 -71 217 -71 219.5 -62 c 128,-1,1
493 880 m 0,11,12
 548 882 548 882 558 888 c 0,13,14
 567 895 567 895 575 894 c 0,15,16
 584 893 584 893 631 883 c 0,17,18
 671 875 671 875 718.5 840.5 c 128,-1,19
 766 806 766 806 777 777 c 0,20,21
 786 754 786 754 771.5 697.5 c 128,-1,22
 757 641 757 641 725 575.5 c 128,-1,23
 693 510 693 510 626.5 430 c 128,-1,24
 560 350 560 350 526 336 c 0,25,26
 414 291 414 291 386 262 c 128,-1,27
 358 233 358 233 395 196 c 0,28,29
 425 166 425 166 417 138 c 128,-1,30
 409 110 409 110 365 97 c 0,31,32
 341 90 341 90 302.5 124.5 c 128,-1,33
 264 159 264 159 245 203 c 0,34,35
 220 264 220 264 267 327 c 128,-1,36
 314 390 314 390 425 444 c 0,37,38
 454 459 454 459 489 491 c 256,39,40
 524 523 524 523 556 561 c 0,41,42
 587 599 587 599 602 629 c 0,43,44
 623 670 623 670 624 720 c 0,45,46
 626 754 626 754 621 763 c 128,-1,47
 616 772 616 772 594 781 c 0,48,49
 557 792 557 792 533 781 c 0,50,51
 506 765 506 765 469 760 c 0,52,53
 452 755 452 755 436 745 c 256,54,55
 420 735 420 735 402 714 c 0,56,57
 383 693 383 693 356 654 c 0,58,59
 335 624 335 624 294 624 c 0,60,61
 255 624 255 624 248.5 637.5 c 128,-1,62
 242 651 242 651 259 700 c 0,63,64
 314 866 314 866 493 880 c 0,11,12
EndSplineSet
Substitution2: "'aalt' Access All Alternates lookup 0 subtable" question.alt1
EndChar

StartChar: at
Encoding: 64 64 36
Width: 1069
GlyphClass: 2
Flags: W
LayerCount: 2
Fore
SplineSet
438 695 m 0,0,1
 494 723 494 723 568 745 c 0,2,3
 720 794 720 794 839 753 c 0,4,5
 891 735 891 735 940 679.5 c 128,-1,6
 989 624 989 624 996 575 c 0,7,8
 1004 529 1004 529 1016 511 c 0,9,10
 1026 489 1026 489 1026 460 c 0,11,12
 1026 433 1026 433 1013 380 c 0,13,14
 999 327 999 327 981 276 c 0,15,16
 962 224 962 224 949 204 c 0,17,18
 900 134 900 134 934 100 c 0,19,20
 942 90 942 90 938 79 c 128,-1,21
 934 68 934 68 923.5 59.5 c 128,-1,22
 913 51 913 51 905 51 c 0,23,24
 895 51 895 51 848 11 c 0,25,26
 796 -33 796 -33 694 -80 c 0,27,28
 654 -99 654 -99 591.5 -111.5 c 128,-1,29
 529 -124 529 -124 504 -121 c 0,30,31
 440 -107 440 -107 377.5 -65 c 128,-1,32
 315 -23 315 -23 315 8 c 0,33,34
 315 31 315 31 297 68 c 0,35,36
 272 115 272 115 282 167.5 c 128,-1,37
 292 220 292 220 346 327 c 0,38,39
 363 360 363 360 363 378 c 0,40,41
 363 393 363 393 422 456 c 2,42,-1
 482 516 l 1,43,-1
 590 508 l 2,44,45
 637 506 637 506 661.5 502 c 128,-1,46
 686 498 686 498 700 492 c 0,47,48
 715 486 715 486 726 476 c 0,49,50
 747 457 747 457 750 440.5 c 128,-1,51
 753 424 753 424 748 371 c 0,52,53
 740 257 740 257 698 178 c 0,54,55
 686 154 686 154 686 145.5 c 128,-1,56
 686 137 686 137 699 124 c 0,57,58
 726 93 726 93 716 78 c 0,59,60
 715 75 715 75 710 75 c 0,61,62
 703 75 703 75 681 93 c 0,63,64
 666 107 666 107 656 104.5 c 128,-1,65
 646 102 646 102 612 75 c 0,66,67
 577 46 577 46 534.5 34.5 c 128,-1,68
 492 23 492 23 475 36 c 0,69,70
 452 51 452 51 431 86.5 c 128,-1,71
 410 122 410 122 410 142 c 0,72,73
 410 173 410 173 459 252 c 0,74,75
 506 334 506 334 560 365 c 0,76,77
 582 378 582 378 596 392 c 0,78,79
 610 405 610 405 608 410 c 0,80,81
 605 422 605 422 560.5 420 c 128,-1,82
 516 418 516 418 491 405 c 0,83,84
 472 395 472 395 430 325 c 128,-1,85
 388 255 388 255 374 210 c 0,86,87
 359 162 359 162 347 147 c 0,88,89
 334 132 334 132 351 68 c 0,90,91
 359 26 359 26 370 11 c 128,-1,92
 381 -4 381 -4 411 -21 c 0,93,94
 447 -38 447 -38 509 -43 c 128,-1,95
 571 -48 571 -48 580 -33 c 0,96,97
 588 -23 588 -23 635 -16 c 0,98,99
 686 -11 686 -11 767 46 c 128,-1,100
 848 103 848 103 881 156 c 0,101,102
 917 210 917 210 942 268 c 128,-1,103
 967 326 967 326 964 339 c 0,104,105
 959 353 959 353 969 380 c 128,-1,106
 979 407 979 407 965 462 c 0,107,108
 960 491 960 491 944 567 c 0,109,110
 927 644 927 644 851 679.5 c 128,-1,111
 775 715 775 715 672 691 c 0,112,113
 624 681 624 681 585 666 c 128,-1,114
 546 651 546 651 437 600 c 0,115,116
 378 575 378 575 280 477 c 0,117,118
 184 381 184 381 184 371 c 128,-1,119
 184 361 184 361 145 292 c 0,120,121
 105 221 105 221 98 156 c 0,122,123
 93 112 93 112 98 87.5 c 128,-1,124
 103 63 103 63 130 7 c 0,125,126
 233 -205 233 -205 443 -201 c 0,127,128
 512 -203 512 -203 512 -213 c 0,129,130
 509 -230 509 -230 474 -232 c 0,131,132
 440 -235 440 -235 425 -247 c 0,133,134
 401 -267 401 -267 322 -230 c 128,-1,135
 243 -193 243 -193 187 -137 c 0,136,137
 137 -85 137 -85 90 7 c 0,138,139
 54 73 54 73 47.5 98.5 c 128,-1,140
 41 124 41 124 44 179 c 0,141,142
 46 202 46 202 51 227 c 256,143,144
 56 252 56 252 61 270.5 c 128,-1,145
 66 289 66 289 75 311 c 0,146,147
 85 334 85 334 91 348 c 0,148,149
 97 364 97 364 107 386 c 0,150,151
 119 410 119 410 123 422 c 0,152,153
 150 476 150 476 194 504 c 0,154,155
 243 536 243 536 283 587 c 0,156,157
 302 610 302 610 321.5 627 c 128,-1,158
 341 644 341 644 351 650 c 128,-1,159
 361 656 361 656 394 672 c 256,160,161
 427 688 427 688 438 695 c 0,0,1
570 191 m 0,162,163
 627 240 627 240 615 269 c 0,164,165
 610 289 610 289 593 289 c 0,166,167
 582 289 582 289 555 259.5 c 128,-1,168
 528 230 528 230 528 216 c 0,169,170
 528 210 528 210 521 188 c 0,171,172
 514 169 514 169 531 170.5 c 128,-1,173
 548 172 548 172 570 191 c 0,162,163
EndSplineSet
EndChar

StartChar: A
Encoding: 65 65 37
Width: 866
GlyphClass: 2
Flags: W
LayerCount: 2
Fore
SplineSet
881 132 m 0,0,1
 903 151 903 151 919.5 147.5 c 128,-1,2
 936 144 936 144 936 115 c 0,3,4
 936 107 936 107 932 98 c 128,-1,5
 928 89 928 89 923 82.5 c 128,-1,6
 918 76 918 76 908 67.5 c 128,-1,7
 898 59 898 59 892.5 55 c 128,-1,8
 887 51 887 51 875.5 43.5 c 128,-1,9
 864 36 864 36 862 34 c 0,10,11
 838 18 838 18 813 7 c 0,12,13
 809 6 809 6 796 -1.5 c 128,-1,14
 783 -9 783 -9 769.5 -16 c 128,-1,15
 756 -23 756 -23 738 -31.5 c 128,-1,16
 720 -40 720 -40 706 -44 c 128,-1,17
 692 -48 692 -48 677 -50 c 128,-1,18
 662 -52 662 -52 656 -46 c 1,19,20
 618 -44 618 -44 558 -9 c 0,21,22
 476 38 476 38 466 82 c 0,23,24
 457 112 457 112 446 112 c 0,25,26
 436 112 436 112 335 29 c 0,27,28
 250 -36 250 -36 211.5 -51.5 c 128,-1,29
 173 -67 173 -67 137 -46 c 0,30,31
 102 -29 102 -29 72.5 8.5 c 128,-1,32
 43 46 43 46 43 73 c 0,33,34
 43 105 43 105 61 170 c 128,-1,35
 79 235 79 235 89 245 c 0,36,37
 102 259 102 259 102 291 c 0,38,39
 102 309 102 309 119.5 341 c 128,-1,40
 137 373 137 373 137 392 c 0,41,42
 137 418 137 418 149 426 c 128,-1,43
 161 434 161 434 197 511 c 256,44,45
 233 588 233 588 247 639 c 0,46,47
 259 681 259 681 282.5 716.5 c 128,-1,48
 306 752 306 752 316 746 c 128,-1,49
 326 740 326 740 410 808 c 0,50,51
 476 863 476 863 519 887.5 c 128,-1,52
 562 912 562 912 631 934 c 0,53,54
 691 952 691 952 706 951 c 0,55,56
 720 949 720 949 759 917 c 0,57,58
 786 895 786 895 794.5 880 c 128,-1,59
 803 865 803 865 803 834 c 0,60,61
 803 786 803 786 756 674 c 0,62,63
 744 649 744 649 718 575 c 0,64,65
 695 501 695 501 671 462 c 0,66,67
 651 429 651 429 643 378 c 0,68,69
 636 333 636 333 624 307 c 0,70,71
 621 301 621 301 589 211 c 0,72,73
 570 161 570 161 569.5 144 c 128,-1,74
 569 127 569 127 582 102 c 0,75,76
 602 65 602 65 628 65 c 0,77,78
 658 61 658 61 686 36 c 0,79,80
 688 35 688 35 689 34.5 c 128,-1,81
 690 34 690 34 691 32.5 c 128,-1,82
 692 31 692 31 693 31 c 0,83,84
 703 36 703 36 726.5 44 c 128,-1,85
 750 52 750 52 759 57 c 0,86,87
 836 97 836 97 881 132 c 0,0,1
516 426 m 256,88,89
 550 479 550 479 567 530 c 0,90,91
 591 602 591 602 607 627 c 0,92,93
 624 651 624 651 624 678 c 0,94,95
 624 703 624 703 636 712 c 0,96,97
 644 717 644 717 671 765 c 128,-1,98
 698 813 698 813 686.5 823 c 128,-1,99
 675 833 675 833 630 822 c 128,-1,100
 585 811 585 811 552 791 c 0,101,102
 520 770 520 770 477 722 c 128,-1,103
 434 674 434 674 434 659 c 0,104,105
 434 648 434 648 381 585.5 c 128,-1,106
 328 523 328 523 328 508 c 128,-1,107
 328 493 328 493 287 435 c 0,108,109
 245 373 245 373 233 324 c 0,110,111
 217 267 217 267 208 252 c 0,112,113
 198 230 198 230 198 215 c 0,114,115
 198 198 198 198 178 161 c 0,116,117
 161 127 161 127 168 113.5 c 128,-1,118
 175 100 175 100 210 100 c 0,119,120
 232 100 232 100 276.5 129.5 c 128,-1,121
 321 159 321 159 341 189 c 0,122,123
 345 191 345 191 351 200 c 0,124,125
 359 211 359 211 368 223 c 0,126,127
 378 237 378 237 387 248 c 0,128,129
 482 373 482 373 516 426 c 256,88,89
EndSplineSet
EndChar

StartChar: B
Encoding: 66 66 38
Width: 907
GlyphClass: 2
Flags: W
LayerCount: 2
Fore
SplineSet
399 919 m 0,0,1
 432 943 432 943 477 972 c 0,2,3
 522 1003 522 1003 550 1003 c 128,-1,4
 578 1003 578 1003 593.5 982.5 c 128,-1,5
 609 962 609 962 600 936 c 0,6,7
 591 901 591 901 623 903 c 0,8,9
 643 904 643 904 680 923 c 0,10,11
 725 947 725 947 781 949 c 128,-1,12
 837 951 837 951 876 932 c 0,13,14
 913 912 913 912 943 865 c 0,15,16
 965 834 965 834 968 816 c 128,-1,17
 971 798 971 798 960 750 c 0,18,19
 932 612 932 612 785 480 c 1,20,-1
 710 416 l 1,21,-1
 738 368 l 2,22,23
 764 323 764 323 773 258 c 0,24,25
 779 232 779 232 776 211.5 c 128,-1,26
 773 191 773 191 766.5 176 c 128,-1,27
 760 161 760 161 742 133 c 0,28,29
 688 55 688 55 597 4 c 0,30,31
 507 -47 507 -47 421 -49 c 0,32,33
 380 -49 380 -49 354 -41 c 128,-1,34
 328 -33 328 -33 285 -1 c 2,35,-1
 213 50 l 1,36,-1
 174 12 l 2,37,38
 146 -16 146 -16 137.5 -17 c 128,-1,39
 129 -18 129 -18 108 1 c 0,40,41
 90 16 90 16 86 32 c 0,42,43
 82 47 82 47 88 87 c 0,44,45
 94 128 94 128 91 141 c 128,-1,46
 88 154 88 154 69 163 c 0,47,48
 43 178 43 178 43 191 c 0,49,50
 43 215 43 215 71 234.5 c 128,-1,51
 99 254 99 254 131 254 c 0,52,53
 145 254 145 254 155 256 c 0,54,55
 164 258 164 258 173.5 265.5 c 128,-1,56
 183 273 183 273 191 284 c 0,57,58
 202 299 202 299 215 316 c 0,59,60
 231 343 231 343 244.5 394 c 128,-1,61
 258 445 258 445 267 466 c 0,62,63
 273 478 273 478 281 491.5 c 128,-1,64
 289 505 289 505 297.5 519 c 128,-1,65
 306 533 306 533 311 544 c 0,66,67
 324 570 324 570 325 596 c 128,-1,68
 326 622 326 622 323 651 c 128,-1,69
 320 680 320 680 322 701 c 0,70,71
 323 706 323 706 329 724 c 128,-1,72
 335 742 335 742 342 762 c 128,-1,73
 349 782 349 782 356 798.5 c 128,-1,74
 363 815 363 815 366 815 c 1,75,76
 299 797 299 797 265 807 c 0,77,78
 232 816 232 816 222 835 c 128,-1,79
 212 854 212 854 224 872.5 c 128,-1,80
 236 891 236 891 262 901 c 0,81,82
 280 908 280 908 330 906 c 128,-1,83
 380 904 380 904 399 919 c 0,0,1
647 254 m 0,84,85
 647 319 647 319 621 341 c 0,86,87
 606 355 606 355 580.5 356 c 128,-1,88
 555 357 555 357 519.5 353 c 128,-1,89
 484 349 484 349 462 351 c 0,90,91
 401 357 401 357 381 347 c 0,92,93
 368 340 368 340 356.5 304 c 128,-1,94
 345 268 345 268 339 226.5 c 128,-1,95
 333 185 333 185 335 147 c 128,-1,96
 337 109 337 109 348 98 c 0,97,98
 368 78 368 78 397.5 74.5 c 128,-1,99
 427 71 427 71 458 80 c 128,-1,100
 489 89 489 89 515 102 c 128,-1,101
 541 115 541 115 561 130 c 0,102,103
 647 193 647 193 647 254 c 0,84,85
777 789 m 0,104,105
 751 820 751 820 714 826 c 0,106,107
 671 832 671 832 619 804 c 128,-1,108
 567 776 567 776 527 733 c 128,-1,109
 487 690 487 690 461 640 c 128,-1,110
 435 590 435 590 438 555 c 0,111,112
 445 480 445 480 533 488 c 0,113,114
 616 496 616 496 706 562 c 0,115,116
 795 628 795 628 802 688 c 0,117,118
 809 752 809 752 777 789 c 0,104,105
EndSplineSet
EndChar

StartChar: C
Encoding: 67 67 39
Width: 740
GlyphClass: 2
Flags: W
LayerCount: 2
Fore
SplineSet
499 891 m 0,0,1
 544 921 544 921 563 921 c 0,2,3
 573 921 573 921 599 933 c 128,-1,4
 625 945 625 945 650 953.5 c 128,-1,5
 675 962 675 962 689 958 c 0,6,7
 714 952 714 952 760 947 c 0,8,9
 827 936 827 936 848 874 c 128,-1,10
 869 812 869 812 830 734 c 0,11,12
 820 712 820 712 803 670 c 0,13,14
 790 637 790 637 738 602.5 c 128,-1,15
 686 568 686 568 655 573 c 0,16,17
 633 578 633 578 606 601.5 c 128,-1,18
 579 625 579 625 560 655 c 128,-1,19
 541 685 541 685 541 706 c 0,20,21
 541 741 541 741 531 748 c 0,22,23
 522 753 522 753 486 717 c 0,24,25
 450 682 450 682 408 631 c 256,26,27
 366 580 366 580 344 541 c 0,28,29
 133 170 133 170 216 101 c 0,30,31
 233 89 233 89 233 74 c 0,32,33
 233 57 233 57 261.5 33 c 128,-1,34
 290 9 290 9 318 3 c 0,35,36
 350 -5 350 -5 398 9 c 0,37,38
 423 15 423 15 460 38 c 128,-1,39
 497 61 497 61 524.5 85.5 c 128,-1,40
 552 110 552 110 552 120 c 0,41,42
 552 150 552 150 596 158.5 c 128,-1,43
 640 167 640 167 664 140 c 0,44,45
 694 106 694 106 651 49 c 128,-1,46
 608 -8 608 -8 517 -54 c 0,47,48
 476 -74 476 -74 447 -80.5 c 128,-1,49
 418 -87 418 -87 364 -87 c 0,50,51
 305 -87 305 -87 281 -82 c 0,52,53
 258 -76 258 -76 221 -52 c 0,54,55
 160 -12 160 -12 125 47 c 0,56,57
 96 91 96 91 90 115.5 c 128,-1,58
 84 140 84 140 83 216 c 0,59,60
 81 281 81 281 84.5 304.5 c 128,-1,61
 88 328 88 328 105.5 357 c 128,-1,62
 123 386 123 386 133 411 c 0,63,64
 155 464 155 464 185 512 c 0,65,66
 268 633 268 633 268 664 c 0,67,68
 268 677 268 677 359.5 768 c 128,-1,69
 451 859 451 859 499 891 c 0,0,1
723 776 m 0,70,71
 731 790 731 790 731 795 c 0,72,73
 731 817 731 817 701 793 c 0,74,75
 685 780 685 780 675 761 c 0,76,77
 640 707 640 707 672 707 c 0,78,79
 675 707 675 707 685.5 719 c 128,-1,80
 696 731 696 731 705 746 c 256,81,82
 714 761 714 761 723 776 c 0,70,71
EndSplineSet
EndChar

StartChar: D
Encoding: 68 68 40
Width: 974
GlyphClass: 2
Flags: W
LayerCount: 2
Fore
SplineSet
373.5 855.5 m 128,-1,1
 392 879 392 879 449 928 c 0,2,3
 457 934 457 934 479 954 c 128,-1,4
 501 974 501 974 517 986.5 c 128,-1,5
 533 999 533 999 549 1007 c 0,6,7
 596 1028 596 1028 666 1030.5 c 128,-1,8
 736 1033 736 1033 785 1022 c 0,9,10
 894 1002 894 1002 933 925 c 0,11,12
 959 872 959 872 998 824 c 0,13,14
 1040 773 1040 773 1051 721 c 128,-1,15
 1062 669 1062 669 1049 584 c 0,16,17
 1034 495 1034 495 1023.5 483.5 c 128,-1,18
 1013 472 1013 472 1013 441 c 0,19,20
 1013 416 1013 416 1001 392 c 0,21,22
 988 367 988 367 941 298 c 0,23,24
 867 190 867 190 798.5 139 c 128,-1,25
 730 88 730 88 618 54 c 0,26,27
 544 32 544 32 532 22 c 0,28,29
 515 12 515 12 458 30 c 0,30,31
 399 51 399 51 395 51 c 0,32,33
 389 51 389 51 347 10 c 0,34,35
 311 -22 311 -22 275 -34 c 0,36,37
 239 -47 239 -47 173 -49 c 0,38,39
 134 -50 134 -50 123 -42.5 c 128,-1,40
 112 -35 112 -35 87 13 c 0,41,42
 54 81 54 81 54 104 c 0,43,44
 54 135 54 135 82.5 183.5 c 128,-1,45
 111 232 111 232 134 241 c 0,46,47
 166 253 166 253 216 251 c 128,-1,48
 266 249 266 249 286 234 c 0,49,50
 333 199 333 199 345 237 c 0,51,52
 346 242 346 242 352 256 c 128,-1,53
 358 270 358 270 366.5 292.5 c 128,-1,54
 375 315 375 315 380 332 c 0,55,56
 417 423 417 423 418 452.5 c 128,-1,57
 419 482 419 482 387 522 c 0,58,59
 352 566 352 566 331 638 c 0,60,61
 320 687 320 687 320.5 708 c 128,-1,62
 321 729 321 729 340 783 c 0,63,0
 355 832 355 832 373.5 855.5 c 128,-1,1
272.5 107.5 m 128,-1,65
 271 116 271 116 249 138 c 0,66,67
 219 168 219 168 208 168 c 0,68,69
 195 168 195 168 178 135.5 c 128,-1,70
 161 103 161 103 166 86 c 0,71,72
 173 62 173 62 206 61.5 c 128,-1,73
 239 61 239 61 261 84 c 0,74,64
 274 99 274 99 272.5 107.5 c 128,-1,65
882 807 m 0,75,76
 838 869 838 869 830 898 c 0,77,78
 826 910 826 910 818 922 c 0,79,80
 810 935 810 935 798 942.5 c 128,-1,81
 786 950 786 950 774 950 c 0,82,83
 771 948 771 948 697 940 c 0,84,85
 650 935 650 935 626 924 c 256,86,87
 602 913 602 913 559 874 c 0,88,89
 498 822 498 822 473 788 c 128,-1,90
 448 754 448 754 439 714 c 0,91,92
 432 682 432 682 442.5 645 c 128,-1,93
 453 608 453 608 468 608 c 0,94,95
 478 608 478 608 489 626.5 c 128,-1,96
 500 645 500 645 509 674.5 c 128,-1,97
 518 704 518 704 520 734 c 0,98,99
 522 746 522 746 522.5 760.5 c 128,-1,100
 523 775 523 775 523 780 c 128,-1,101
 523 785 523 785 525 793 c 256,102,103
 527 801 527 801 528.5 804 c 128,-1,104
 530 807 530 807 536 812 c 128,-1,105
 542 817 542 817 547 820.5 c 128,-1,106
 552 824 552 824 564 832 c 0,107,108
 596 849 596 849 624.5 848 c 128,-1,109
 653 847 653 847 668 828.5 c 128,-1,110
 683 810 683 810 670 785 c 0,111,112
 653 751 653 751 641 696 c 0,113,114
 621 626 621 626 586 559 c 0,115,116
 559 505 559 505 556.5 492.5 c 128,-1,117
 554 480 554 480 571 468 c 0,118,119
 594 453 594 453 672 460 c 0,120,121
 732 466 732 466 766.5 456 c 128,-1,122
 801 446 801 446 801 423 c 0,123,124
 801 397 801 397 763.5 389 c 128,-1,125
 726 381 726 381 640 386 c 0,126,127
 612 387 612 387 598 388 c 256,128,129
 584 389 584 389 567 388 c 0,130,131
 549 387 549 387 544 387 c 0,132,133
 537 386 537 386 527 381 c 128,-1,134
 517 376 517 376 514.5 371.5 c 128,-1,135
 512 367 512 367 507 355 c 0,136,137
 502 344 502 344 499 334 c 0,138,139
 497 325 497 325 493 305 c 0,140,141
 478 244 478 244 454 205 c 0,142,143
 432 167 432 167 441 143 c 0,144,145
 444 128 444 128 453.5 124.5 c 128,-1,146
 463 121 463 121 491 126 c 0,147,148
 539 133 539 133 566 133 c 0,149,150
 599 133 599 133 633 167 c 0,151,152
 665 199 665 199 704 216 c 0,153,154
 741 232 741 232 741 240 c 128,-1,155
 741 248 741 248 803 318 c 0,156,157
 857 381 857 381 881.5 431.5 c 128,-1,158
 906 482 906 482 924 576 c 0,159,160
 943 662 943 662 935.5 705.5 c 128,-1,161
 928 749 928 749 882 807 c 0,75,76
EndSplineSet
EndChar

StartChar: E
Encoding: 69 69 41
Width: 628
GlyphClass: 2
Flags: W
LayerCount: 2
Fore
SplineSet
731 861.5 m 128,-1,1
 744 840 744 840 744.5 822 c 128,-1,2
 745 804 745 804 730.5 783.5 c 128,-1,3
 716 763 716 763 695.5 750 c 128,-1,4
 675 737 675 737 655 737 c 0,5,6
 599 737 599 737 489 815 c 0,7,8
 428 860 428 860 338 782 c 0,9,10
 297 750 297 750 286 750 c 0,11,12
 279 750 279 750 268 732 c 128,-1,13
 257 714 257 714 250 688 c 256,14,15
 243 662 243 662 239.5 636 c 128,-1,16
 236 610 236 610 237.5 591 c 128,-1,17
 239 572 239 572 248 570 c 0,18,19
 250 570 250 570 260 569 c 0,20,21
 269 568 269 568 289 567 c 0,22,23
 307 567 307 567 322 567 c 0,24,25
 351 565 351 565 367 562 c 128,-1,26
 383 559 383 559 394 551 c 128,-1,27
 405 543 405 543 417 527 c 0,28,29
 444 495 444 495 464 448 c 0,30,31
 471 430 471 430 470.5 415.5 c 128,-1,32
 470 401 470 401 466 392.5 c 128,-1,33
 462 384 462 384 449.5 375 c 128,-1,34
 437 366 437 366 428.5 362.5 c 128,-1,35
 420 359 420 359 402 352 c 128,-1,36
 384 345 384 345 377 342 c 0,37,38
 359 334 359 334 327.5 323 c 128,-1,39
 296 312 296 312 282 305.5 c 128,-1,40
 268 299 268 299 245.5 281 c 128,-1,41
 223 263 223 263 200 235 c 0,42,43
 166 192 166 192 170 165 c 0,44,45
 177 113 177 113 222 93 c 128,-1,46
 267 73 267 73 327.5 81.5 c 128,-1,47
 388 90 388 90 453.5 110.5 c 128,-1,48
 519 131 519 131 569 155.5 c 128,-1,49
 619 180 619 180 640 197 c 0,50,51
 663 216 663 216 680.5 212.5 c 128,-1,52
 698 209 698 209 699 179 c 0,53,54
 699 167 699 167 689 150.5 c 128,-1,55
 679 134 679 134 668.5 122.5 c 128,-1,56
 658 111 658 111 640.5 93 c 128,-1,57
 623 75 623 75 620 72 c 0,58,59
 581 29 581 29 513.5 4 c 128,-1,60
 446 -21 446 -21 369 -34 c 0,61,62
 203 -61 203 -61 103 9 c 0,63,64
 88 20 88 20 77 31 c 128,-1,65
 66 42 66 42 59.5 54.5 c 128,-1,66
 53 67 53 67 48.5 78.5 c 128,-1,67
 44 90 44 90 43.5 104.5 c 128,-1,68
 43 119 43 119 43.5 130.5 c 128,-1,69
 44 142 44 142 47.5 158.5 c 128,-1,70
 51 175 51 175 53.5 186 c 128,-1,71
 56 197 56 197 61 216 c 0,72,73
 69 244 69 244 119 334 c 0,74,75
 177 441 177 441 196 431 c 0,76,77
 198 430 198 430 199 429 c 1,78,79
 149 493 149 493 122 551 c 128,-1,80
 95 609 95 609 103 670 c 0,81,82
 110 730 110 730 138 778 c 128,-1,83
 166 826 166 826 218 869 c 0,84,85
 255 899 255 899 297.5 916 c 128,-1,86
 340 933 340 933 428 951 c 0,87,88
 455 957 455 957 462 963 c 128,-1,89
 469 969 469 969 468 989 c 0,90,91
 466 998 466 998 468.5 1007 c 128,-1,92
 471 1016 471 1016 476.5 1024 c 128,-1,93
 482 1032 482 1032 490 1040 c 128,-1,94
 498 1048 498 1048 507 1053.5 c 128,-1,95
 516 1059 516 1059 525 1062.5 c 128,-1,96
 534 1066 534 1066 543 1066 c 0,97,98
 561 1066 561 1066 608 1047.5 c 128,-1,99
 655 1029 655 1029 655 1020 c 0,100,101
 655 1012 655 1012 629 982 c 0,102,103
 608 953 608 953 612.5 941.5 c 128,-1,104
 617 930 617 930 655 921 c 0,105,106
 676 915 676 915 697 899 c 128,-1,0
 718 883 718 883 731 861.5 c 128,-1,1
EndSplineSet
EndChar

StartChar: F
Encoding: 70 70 42
Width: 1132
GlyphClass: 2
Flags: W
LayerCount: 2
Fore
SplineSet
1438 1058 m 0,0,1
 1450 1045 1450 1045 1433 1012 c 256,2,3
 1416 979 1416 979 1387 963 c 0,4,5
 1383 961 1383 961 1337 931 c 0,6,7
 1261 881 1261 881 1195.5 851.5 c 128,-1,8
 1130 822 1130 822 1063 822 c 0,9,10
 1037 820 1037 820 1025.5 820 c 128,-1,11
 1014 820 1014 820 999.5 812 c 128,-1,12
 985 804 985 804 979 796 c 0,13,14
 974 789 974 789 963.5 762.5 c 128,-1,15
 953 736 953 736 948 712 c 0,16,17
 946 701 946 701 941 681 c 1,18,-1
 988 689 l 2,19,20
 1014 690 1014 690 1031.5 686.5 c 128,-1,21
 1049 683 1049 683 1057.5 676.5 c 128,-1,22
 1066 670 1066 670 1069.5 662 c 128,-1,23
 1073 654 1073 654 1072 645.5 c 128,-1,24
 1071 637 1071 637 1069 630.5 c 128,-1,25
 1067 624 1067 624 1065 620 c 2,26,-1
 1062 615 l 2,27,28
 1050 597 1050 597 1032.5 593 c 128,-1,29
 1015 589 1015 589 1003 595 c 2,30,-1
 992 600 l 1,31,32
 953 603 953 603 918 588 c 1,33,34
 897 505 897 505 886 489 c 0,35,36
 869 458 869 458 888 457 c 0,37,38
 899 457 899 457 916 468 c 128,-1,39
 933 479 933 479 939 481 c 0,40,41
 962 488 962 488 997 482 c 0,42,43
 1055 472 1055 472 1089 428 c 0,44,45
 1096 418 1096 418 1096 411 c 0,46,47
 1096 399 1096 399 1075 387 c 0,48,49
 1045 371 1045 371 1028 368 c 0,50,51
 1012 366 1012 366 1002.5 371 c 128,-1,52
 993 376 993 376 990 383.5 c 128,-1,53
 987 391 987 391 981 399 c 128,-1,54
 975 407 975 407 966 409 c 0,55,56
 961 411 961 411 946 398 c 0,57,58
 930 384 930 384 877 362 c 0,59,60
 851 351 851 351 828.5 331 c 128,-1,61
 806 311 806 311 790.5 288 c 128,-1,62
 775 265 775 265 759.5 235 c 128,-1,63
 744 205 744 205 733.5 179.5 c 128,-1,64
 723 154 723 154 709 123.5 c 128,-1,65
 695 93 695 93 685 73 c 0,66,67
 675 55 675 55 662.5 41.5 c 128,-1,68
 650 28 650 28 634 20.5 c 128,-1,69
 618 13 618 13 604 8 c 128,-1,70
 590 3 590 3 568.5 1.5 c 128,-1,71
 547 0 547 0 533.5 0 c 128,-1,72
 520 0 520 0 495 0.5 c 128,-1,73
 470 1 470 1 458 1 c 0,74,75
 379 0 379 0 345 9 c 0,76,77
 323 14 323 14 298 28 c 256,78,79
 273 42 273 42 252 58 c 0,80,81
 230 75 230 75 211 96 c 0,82,83
 191 117 191 117 176.5 138 c 128,-1,84
 162 159 162 159 154 180 c 128,-1,85
 146 201 146 201 146 217 c 0,86,87
 146 239 146 239 135 255 c 0,88,89
 122 267 122 267 107 325 c 1,90,91
 87 385 87 385 65 413 c 0,92,93
 41 446 41 446 43 461.5 c 128,-1,94
 45 477 45 477 76 484 c 0,95,96
 124 497 124 497 171 438 c 0,97,98
 195 411 195 411 250 403.5 c 128,-1,99
 305 396 305 396 473 398 c 2,100,-1
 705 400 l 1,101,-1
 734 435 l 2,102,103
 763 466 763 466 763 486 c 0,104,105
 763 499 763 499 771 519 c 1,106,-1
 692 495 l 1,107,108
 702 517 702 517 695 523 c 128,-1,109
 688 529 688 529 675 526 c 2,110,-1
 661 522 l 1,111,-1
 623 503 l 2,112,113
 615 496 615 496 600.5 495 c 128,-1,114
 586 494 586 494 575 496 c 2,115,-1
 565 498 l 1,116,117
 539 517 539 517 529.5 538 c 128,-1,118
 520 559 520 559 525 575 c 128,-1,119
 530 591 530 591 538.5 604.5 c 128,-1,120
 547 618 547 618 556 625 c 2,121,-1
 565 633 l 1,122,-1
 701 641 l 1,123,-1
 810 659 l 1,124,125
 825 739 825 739 820 754 c 0,126,127
 811 776 811 776 833 815 c 0,128,129
 853 857 853 857 853 859 c 0,130,131
 853 862 853 862 802 897 c 0,132,133
 751 934 751 934 727 970 c 0,134,135
 705 1007 705 1007 694 1007 c 0,136,137
 681 1007 681 1007 615 948 c 0,138,139
 502 853 502 853 453 912 c 0,140,141
 434 934 434 934 391 956 c 0,142,143
 343 979 343 979 327 1012 c 0,144,145
 314 1034 314 1034 317.5 1048.5 c 128,-1,146
 321 1063 321 1063 350 1109 c 0,147,148
 383 1160 383 1160 431 1203 c 0,149,150
 478 1246 478 1246 511 1255 c 0,151,152
 575 1272 575 1272 648 1241 c 128,-1,153
 721 1210 721 1210 734 1160 c 0,154,155
 738 1138 738 1138 750 1115 c 0,156,157
 761 1091 761 1091 769 1069 c 0,158,159
 771 1054 771 1054 778 1043 c 128,-1,160
 785 1032 785 1032 791 1032 c 0,161,162
 807 1032 807 1032 862 974 c 0,163,164
 886 950 886 950 900 939 c 0,165,166
 915 928 915 928 935 920 c 256,167,168
 955 912 955 912 980 913 c 0,169,170
 1001 913 1001 913 1047 915 c 0,171,172
 1081 917 1081 917 1149 936.5 c 128,-1,173
 1217 956 1217 956 1233 968 c 0,174,175
 1248 979 1248 979 1334 1027 c 0,176,177
 1423 1073 1423 1073 1438 1058 c 0,0,1
626.5 1111.5 m 128,-1,179
 630 1118 630 1118 614 1136 c 0,180,181
 588 1166 588 1166 545 1156.5 c 128,-1,182
 502 1147 502 1147 474.5 1107 c 128,-1,183
 447 1067 447 1067 460 1050.5 c 128,-1,184
 473 1034 473 1034 517 1056 c 0,185,186
 541 1071 541 1071 586 1091 c 0,187,178
 623 1105 623 1105 626.5 1111.5 c 128,-1,179
641 252 m 0,188,189
 683 338 683 338 674 343 c 0,190,191
 667 347 667 347 630 329 c 0,192,193
 595 310 595 310 559 318 c 0,194,195
 535 323 535 323 452 326 c 0,196,197
 368 329 368 329 295 329 c 256,198,199
 222 329 222 329 222 323 c 0,200,201
 222 312 222 312 261.5 219 c 128,-1,202
 301 126 301 126 308 117 c 0,203,204
 326 98 326 98 430.5 110 c 128,-1,205
 535 122 535 122 568 148 c 0,206,207
 599 168 599 168 641 252 c 0,188,189
EndSplineSet
Substitution2: "'aalt' Access All Alternates lookup 0 subtable" F.alt1
EndChar

StartChar: G
Encoding: 71 71 43
Width: 1123
GlyphClass: 2
Flags: W
LayerCount: 2
Fore
SplineSet
1147 185 m 0,0,1
 1170 204 1170 204 1187 200.5 c 128,-1,2
 1204 197 1204 197 1205 167 c 0,3,4
 1205 159 1205 159 1202.5 151.5 c 128,-1,5
 1200 144 1200 144 1194 137 c 128,-1,6
 1188 130 1188 130 1182.5 124 c 128,-1,7
 1177 118 1177 118 1168.5 111.5 c 128,-1,8
 1160 105 1160 105 1154.5 101 c 128,-1,9
 1149 97 1149 97 1139.5 91 c 128,-1,10
 1130 85 1130 85 1127 82 c 0,11,12
 1029 15 1029 15 967 2 c 0,13,14
 936 -6 936 -6 860 2 c 128,-1,15
 784 10 784 10 752 6.5 c 128,-1,16
 720 3 720 3 706 -11 c 0,17,18
 681 -32 681 -32 647.5 -32 c 128,-1,19
 614 -32 614 -32 583 -52 c 0,20,21
 555 -73 555 -73 467 -80 c 0,22,23
 405 -83 405 -83 381.5 -77 c 128,-1,24
 358 -71 358 -71 295 -34 c 0,25,26
 276 -24 276 -24 243.5 -11.5 c 128,-1,27
 211 1 211 1 184 10.5 c 128,-1,28
 157 20 157 20 127.5 35.5 c 128,-1,29
 98 51 98 51 78.5 68.5 c 128,-1,30
 59 86 59 86 49.5 113.5 c 128,-1,31
 40 141 40 141 45 175 c 0,32,33
 53 216 53 216 84 263 c 0,34,35
 105 296 105 296 126.5 308 c 128,-1,36
 148 320 148 320 166.5 316 c 128,-1,37
 185 312 185 312 207 305.5 c 128,-1,38
 229 299 229 299 251.5 294.5 c 128,-1,39
 274 290 274 290 304 303 c 0,40,41
 334 315 334 315 363 362 c 128,-1,42
 392 409 392 409 401 447 c 0,43,44
 406 480 406 480 405 496 c 128,-1,45
 404 512 404 512 394 527 c 128,-1,46
 384 542 384 542 373.5 550.5 c 128,-1,47
 363 559 363 559 349.5 577.5 c 128,-1,48
 336 596 336 596 327 619 c 0,49,50
 321 635 321 635 323 666 c 0,51,52
 324 695 324 695 331 730.5 c 128,-1,53
 338 766 338 766 351.5 805 c 128,-1,54
 365 844 365 844 383 879.5 c 128,-1,55
 401 915 401 915 426 942 c 128,-1,56
 451 969 451 969 478.5 982 c 128,-1,57
 506 995 506 995 541.5 987.5 c 128,-1,58
 577 980 577 980 614 949 c 0,59,60
 646 923 646 923 651 888 c 128,-1,61
 656 853 656 853 639 767 c 0,62,63
 625 693 625 693 639 681.5 c 128,-1,64
 653 670 653 670 718 702 c 0,65,66
 786 733 786 733 797 733 c 0,67,68
 820 733 820 733 923 863 c 0,69,70
 980 932 980 932 1014 943.5 c 128,-1,71
 1048 955 1048 955 1081 918 c 0,72,73
 1111 886 1111 886 1107.5 813 c 128,-1,74
 1104 740 1104 740 1071 696 c 0,75,76
 1041 658 1041 658 1031 617 c 0,77,78
 1023 584 1023 584 997 528 c 256,79,80
 971 472 971 472 932 397 c 0,81,82
 893 321 893 321 883 301 c 0,83,84
 860 252 860 252 822 196 c 0,85,86
 764 112 764 112 811 96 c 0,87,88
 832 89 832 89 853 76 c 0,89,90
 881 62 881 62 928 69 c 0,91,92
 931 70 931 70 935 71 c 0,93,94
 950 79 950 79 980.5 90 c 128,-1,95
 1011 101 1011 101 1020 106 c 0,96,97
 1101 147 1101 147 1147 185 c 0,0,1
486 771 m 128,-1,99
 465 746 465 746 470 739 c 0,100,101
 479 730 479 730 503.5 746.5 c 128,-1,102
 528 763 528 763 528 777 c 0,103,104
 528 796 528 796 520 796 c 0,105,98
 507 796 507 796 486 771 c 128,-1,99
402 33 m 0,106,107
 421 36 421 36 402 47 c 0,108,109
 399 48 399 48 390 52 c 0,110,111
 360 64 360 64 349 76 c 1,112,113
 342 90 342 90 330.5 90 c 128,-1,114
 319 90 319 90 312 78 c 0,115,116
 309 71 309 71 325.5 59 c 128,-1,117
 342 47 342 47 366 38 c 128,-1,118
 390 29 390 29 402 33 c 0,106,107
723 249 m 0,119,120
 762 316 762 316 796 387 c 0,121,122
 830 459 830 459 846 505 c 128,-1,123
 862 551 862 551 895 601 c 0,124,125
 925 647 925 647 918 659 c 0,126,127
 899 693 899 693 851 642 c 0,128,129
 832 621 832 621 758 594 c 0,130,131
 685 568 685 568 678 565 c 0,132,133
 646 549 646 549 620 549 c 0,134,135
 600 549 600 549 552 498 c 128,-1,136
 504 447 504 447 504 424 c 0,137,138
 504 412 504 412 483 378 c 0,139,140
 381 226 381 226 381 217 c 0,141,142
 381 199 381 199 430 161.5 c 128,-1,143
 479 124 479 124 520 110 c 0,144,145
 576 90 576 90 601.5 98 c 128,-1,146
 627 106 627 106 660 148 c 0,147,148
 685 182 685 182 723 249 c 0,119,120
EndSplineSet
EndChar

StartChar: H
Encoding: 72 72 44
Width: 937
GlyphClass: 2
Flags: W
LayerCount: 2
Fore
SplineSet
489 867 m 0,0,1
 515 786 515 786 500 698 c 0,2,3
 492 651 492 651 473 604 c 0,4,5
 471 599 471 599 459 575.5 c 128,-1,6
 447 552 447 552 438.5 531.5 c 128,-1,7
 430 511 430 511 422.5 486.5 c 128,-1,8
 415 462 415 462 418 443.5 c 128,-1,9
 421 425 421 425 435 417 c 0,10,11
 443 414 443 414 456 414 c 0,12,13
 472 414 472 414 506.5 380 c 128,-1,14
 541 346 541 346 556 317 c 0,15,16
 570 290 570 290 585 292 c 128,-1,17
 600 294 600 294 608 324 c 0,18,19
 614 357 614 357 630 370 c 0,20,21
 644 381 644 381 652 417 c 0,22,23
 659 447 659 447 709 555 c 0,24,25
 758 658 758 658 758 670 c 0,26,27
 758 681 758 681 792 745 c 0,28,29
 823 799 823 799 826 822 c 0,30,31
 826 841 826 841 845 876 c 0,32,33
 876 925 876 925 944 898 c 0,34,35
 954 895 954 895 956.5 883 c 128,-1,36
 959 871 959 871 954.5 853.5 c 128,-1,37
 950 836 950 836 943 816 c 128,-1,38
 936 796 936 796 925.5 775 c 128,-1,39
 915 754 915 754 906.5 737.5 c 128,-1,40
 898 721 898 721 890 706.5 c 128,-1,41
 882 692 882 692 881 689 c 0,42,43
 866 659 866 659 861 642 c 0,44,45
 860 637 860 637 857 622.5 c 128,-1,46
 854 608 854 608 851 600 c 0,47,48
 848 591 848 591 842 580.5 c 128,-1,49
 836 570 836 570 828.5 559 c 128,-1,50
 821 548 821 548 817 540 c 0,51,52
 804 515 804 515 783.5 464 c 128,-1,53
 763 413 763 413 752 392 c 0,54,55
 749 386 749 386 741.5 372.5 c 128,-1,56
 734 359 734 359 729 348.5 c 128,-1,57
 724 338 724 338 718.5 325 c 128,-1,58
 713 312 713 312 710 300 c 128,-1,59
 707 288 707 288 708 278 c 0,60,61
 709 256 709 256 758 259 c 0,62,63
 768 259 768 259 780 260 c 0,64,65
 847 268 847 268 907 306 c 0,66,67
 969 346 969 346 974 357 c 0,68,69
 982 370 982 370 1020 370 c 0,70,71
 1051 370 1051 370 1068 350 c 128,-1,72
 1085 330 1085 330 1075 302 c 0,73,74
 1069 281 1069 281 1028.5 251.5 c 128,-1,75
 988 222 988 222 934 199 c 128,-1,76
 880 176 880 176 841 172 c 0,77,78
 787 165 787 165 773 154 c 0,79,80
 752 140 752 140 657 164 c 0,81,82
 641 169 641 169 623 134 c 128,-1,83
 605 99 605 99 597 53 c 0,84,85
 587 12 587 12 577.5 5.5 c 128,-1,86
 568 -1 568 -1 568 -31 c 0,87,88
 568 -48 568 -48 558 -69.5 c 128,-1,89
 548 -91 548 -91 533 -106 c 128,-1,90
 518 -121 518 -121 507 -121 c 0,91,92
 491 -121 491 -121 472 -94 c 0,93,94
 461 -75 461 -75 458 -52 c 0,95,96
 456 -29 456 -29 461 26 c 0,97,98
 467 120 467 120 456 135 c 0,99,100
 453 142 453 142 439.5 146.5 c 128,-1,101
 426 151 426 151 405 154 c 0,102,103
 384 156 384 156 370 157 c 0,104,105
 355 157 355 157 330 158 c 256,106,107
 305 159 305 159 302 159 c 0,108,109
 275 162 275 162 265 154 c 128,-1,110
 255 146 255 146 234 107 c 0,111,112
 204 51 204 51 190 1 c 0,113,114
 169 -66 169 -66 148 -93.5 c 128,-1,115
 127 -121 127 -121 95 -121 c 0,116,117
 60 -121 60 -121 49 -106.5 c 128,-1,118
 38 -92 38 -92 48 -59 c 0,119,120
 78 47 78 47 100 96 c 0,121,122
 105 106 105 106 132.5 153.5 c 128,-1,123
 160 201 160 201 167 230 c 0,124,125
 173 254 173 254 173 297 c 2,126,-1
 173 373 l 1,127,-1
 225 414 l 2,128,129
 275 450 275 450 307 514 c 0,130,131
 340 586 340 586 358 618 c 0,132,133
 375 656 375 656 384.5 733.5 c 128,-1,134
 394 811 394 811 382 819 c 0,135,136
 372 826 372 826 336 758 c 0,137,138
 331 747 331 747 325 735 c 0,139,140
 298 681 298 681 280 653 c 0,141,142
 263 624 263 624 247 607 c 128,-1,143
 231 590 231 590 209 575 c 0,144,145
 184 560 184 560 150 563.5 c 128,-1,146
 116 567 116 567 98 588 c 0,147,148
 82 607 82 607 86 675 c 128,-1,149
 90 743 90 743 109 773 c 0,150,151
 138 818 138 818 183 856.5 c 128,-1,152
 228 895 228 895 268 908 c 0,153,154
 315 924 315 924 373 924.5 c 128,-1,155
 431 925 431 925 456 913 c 0,156,157
 478 902 478 902 489 867 c 0,0,1
198 699 m 128,-1,159
 217 712 217 712 226 742 c 0,160,161
 244 786 244 786 222 784 c 0,162,163
 206 781 206 781 184 754 c 0,164,165
 152 713 152 713 165.5 699.5 c 128,-1,158
 179 686 179 686 198 699 c 128,-1,159
419 257 m 0,166,167
 432 262 432 262 432 271 c 0,168,169
 427 284 427 284 393 298.5 c 128,-1,170
 359 313 359 313 351 305 c 0,171,172
 345 297 345 297 364 278 c 0,173,174
 385 254 385 254 419 257 c 0,166,167
EndSplineSet
EndChar

StartChar: I
Encoding: 73 73 45
Width: 1087
GlyphClass: 2
Flags: W
LayerCount: 2
Fore
SplineSet
1117 345 m 0,0,1
 1176 288 1176 288 1051 272 c 0,2,3
 990 266 990 266 921 246 c 0,4,5
 853 226 853 226 815 225 c 2,6,-1
 813 225 l 2,7,8
 783 223 783 223 780.5 209.5 c 128,-1,9
 778 196 778 196 789 121 c 0,10,11
 789 114 789 114 791 108 c 0,12,13
 795 72 795 72 792 55 c 256,14,15
 789 38 789 38 776 23 c 0,16,17
 734 -20 734 -20 678 18 c 0,18,19
 647 38 647 38 655 61.5 c 128,-1,20
 663 85 663 85 651 92 c 0,21,22
 642 98 642 98 601 84 c 1,23,-1
 596 80 l 1,24,25
 590 70 590 70 560 54 c 0,26,27
 546 47 546 47 541 44 c 2,28,-1
 500 19 l 1,29,-1
 493 16 l 1,30,-1
 463 12 l 2,31,32
 441 12 441 12 435 9 c 0,33,34
 421 5 421 5 390 1 c 0,35,36
 382 0 382 0 375 1 c 0,37,38
 340 3 340 3 304.5 19 c 128,-1,39
 269 35 269 35 240 60 c 128,-1,40
 211 85 211 85 186.5 110.5 c 128,-1,41
 162 136 162 136 142 165.5 c 128,-1,42
 122 195 122 195 111.5 211 c 128,-1,43
 101 227 101 227 94 241 c 1,44,45
 75 252 75 252 67.5 269 c 128,-1,46
 60 286 60 286 56 309 c 128,-1,47
 52 332 52 332 45 345 c 0,48,49
 40 355 40 355 47 364 c 0,50,51
 54 374 54 374 65 372 c 2,52,-1
 123 366 l 1,53,54
 167 381 167 381 187 373 c 128,-1,55
 207 365 207 365 233 329 c 0,56,57
 247 309 247 309 265 298.5 c 128,-1,58
 283 288 283 288 312 279 c 2,59,-1
 317 278 l 2,60,61
 323 276 323 276 334 269 c 2,62,-1
 339 266 l 2,63,64
 346 266 346 266 381 262 c 0,65,66
 419 257 419 257 425 257 c 0,67,68
 433 257 433 257 462 257 c 0,69,70
 504 257 504 257 509 258 c 2,71,-1
 525 261 l 2,72,73
 557 266 557 266 572 269 c 1,74,-1
 569 271 l 1,75,76
 580 276 580 276 584 287 c 1,77,78
 568 329 568 329 554.5 374.5 c 128,-1,79
 541 420 541 420 527.5 485 c 128,-1,80
 514 550 514 550 515.5 612 c 128,-1,81
 517 674 517 674 537 719 c 1,82,-1
 539 763 l 2,83,84
 539 771 539 771 543 792 c 0,85,86
 546 808 546 808 546 811 c 0,87,88
 547 820 547 820 556 862 c 2,89,-1
 560 878 l 2,90,91
 563 892 563 892 564 920 c 0,92,93
 564 922 564 922 561 928 c 0,94,95
 552 946 552 946 555 964 c 0,96,97
 558 981 558 981 571 1002 c 0,98,99
 577 1012 577 1012 586 1028.5 c 128,-1,100
 595 1045 595 1045 600 1053 c 128,-1,101
 605 1061 605 1061 614 1072 c 128,-1,102
 623 1083 623 1083 634 1092 c 128,-1,103
 645 1101 645 1101 661 1110 c 0,104,105
 748 1160 748 1160 804 1160 c 0,106,107
 843 1160 843 1160 876 1133 c 1,108,109
 926 1121 926 1121 953 1081 c 0,110,111
 991 1024 991 1024 964 929 c 0,112,113
 918 751 918 751 902 721 c 0,114,115
 896 710 896 710 873 642 c 0,116,117
 855 590 855 590 848 575 c 1,118,-1
 849 574 l 1,119,-1
 847 572 l 2,120,121
 842 562 842 562 838 558 c 0,122,123
 831 551 831 551 806 518 c 1,124,125
 782 460 782 460 769 405 c 1,126,-1
 771 407 l 1,127,128
 764 343 764 343 809 333 c 1,129,-1
 812 335 l 1,130,131
 825 328 825 328 957 350 c 0,132,133
 1055 366 1055 366 1075.5 366 c 128,-1,134
 1096 366 1096 366 1117 345 c 0,0,1
436 105 m 1,135,-1
 529 147 l 1,136,-1
 485 154 l 1,137,-1
 397 174 l 2,138,139
 360 186 360 186 342 187 c 0,140,141
 333 187 333 187 320 192 c 128,-1,142
 307 197 307 197 289 199 c 0,143,144
 250 203 250 203 229 214 c 0,145,146
 224 217 224 217 215 219 c 128,-1,147
 206 221 206 221 200 222 c 2,148,-1
 193 222 l 1,149,150
 235 180 235 180 242 170 c 0,151,152
 244 168 244 168 246.5 165.5 c 128,-1,153
 249 163 249 163 251.5 161 c 128,-1,154
 254 159 254 159 258 156 c 128,-1,155
 262 153 262 153 265.5 151 c 128,-1,156
 269 149 269 149 275.5 145.5 c 128,-1,157
 282 142 282 142 287 139 c 0,158,159
 329 114 329 114 357 110 c 2,160,-1
 436 105 l 1,135,-1
728 707 m 1,161,-1
 773 821 l 1,162,163
 781 879 781 879 785 889 c 0,164,165
 785 892 785 892 787 911 c 0,166,167
 790 934 790 934 791 942 c 0,168,169
 795 954 795 954 793.5 986 c 128,-1,170
 792 1018 792 1018 785 1025 c 1,171,172
 785 1025 785 1025 783 1024 c 128,-1,173
 781 1023 781 1023 777 1020 c 128,-1,174
 773 1017 773 1017 769 1013 c 2,175,-1
 761 1006 l 1,176,-1
 753 1008 l 1,177,178
 726 991 726 991 708 885 c 1,179,180
 683 800 683 800 681 790 c 0,181,182
 681 784 681 784 674 769 c 0,183,184
 663 745 663 745 656 723 c 0,185,186
 645 685 645 685 639 545 c 1,187,-1
 642 485 l 1,188,-1
 651 447 l 1,189,190
 655 456 655 456 659 467 c 2,191,-1
 683 530 l 1,192,-1
 728 707 l 1,161,-1
EndSplineSet
EndChar

StartChar: J
Encoding: 74 74 46
Width: 856
GlyphClass: 2
Flags: W
LayerCount: 2
Fore
SplineSet
880 167 m 0,0,1
 902 185 902 185 918.5 182 c 128,-1,2
 935 179 935 179 935 150 c 0,3,4
 935 141 935 141 931 132 c 128,-1,5
 927 123 927 123 922 116.5 c 128,-1,6
 917 110 917 110 907.5 102 c 128,-1,7
 898 94 898 94 892 90 c 128,-1,8
 886 86 886 86 874.5 78.5 c 128,-1,9
 863 71 863 71 861 69 c 0,10,11
 837 53 837 53 812 42 c 0,12,13
 799 36 799 36 752.5 21 c 128,-1,14
 706 6 706 6 638.5 -11.5 c 128,-1,15
 571 -29 571 -29 513.5 -35.5 c 128,-1,16
 456 -42 456 -42 422 -29 c 0,17,18
 409 -23 409 -23 396.5 -22.5 c 128,-1,19
 384 -22 384 -22 374 -26.5 c 128,-1,20
 364 -31 364 -31 354.5 -39.5 c 128,-1,21
 345 -48 345 -48 337 -58 c 128,-1,22
 329 -68 329 -68 320.5 -82 c 128,-1,23
 312 -96 312 -96 305.5 -108 c 128,-1,24
 299 -120 299 -120 291 -134.5 c 128,-1,25
 283 -149 283 -149 277 -159 c 0,26,27
 217 -253 217 -253 193 -268 c 0,28,29
 160 -292 160 -292 121 -324 c 0,30,31
 91 -349 91 -349 68 -353 c 0,32,33
 45 -358 45 -358 -47 -359 c 2,34,-1
 -174 -361 l 1,35,-1
 -174 -277 l 2,36,37
 -174 -219 -174 -219 -168 -199 c 128,-1,38
 -162 -179 -162 -179 -132 -142 c 0,39,40
 -93 -93 -93 -93 7 -21 c 0,41,42
 101 47 101 47 109 65 c 0,43,44
 116 82 116 82 183 102 c 0,45,46
 261 128 261 128 274 144 c 0,47,48
 286 160 286 160 269.5 211 c 128,-1,49
 253 262 253 262 225.5 320 c 128,-1,50
 198 378 198 378 195 386 c 0,51,52
 138 575 138 575 173 750 c 0,53,54
 202 895 202 895 283 969 c 1,55,56
 283 969 283 969 284 970 c 0,57,58
 349 1028 349 1028 435.5 1028.5 c 128,-1,59
 522 1029 522 1029 582 964 c 0,60,61
 603 941 603 941 603 830 c 0,62,63
 603 754 603 754 593.5 691.5 c 128,-1,64
 584 629 584 629 556 505 c 0,65,66
 525 363 525 363 513 301 c 2,67,-1
 505 249 l 1,68,-1
 559 257 l 2,69,70
 592 262 592 262 608 258 c 0,71,72
 623 254 623 254 646 234 c 2,73,-1
 680 205 l 1,74,-1
 655 180 l 2,75,76
 630 153 630 153 572 143 c 0,77,78
 556 139 556 139 531.5 129 c 128,-1,79
 507 119 507 119 483 102.5 c 128,-1,80
 459 86 459 86 455 67 c 128,-1,81
 451 48 451 48 476 27 c 0,82,83
 489 17 489 17 506 14.5 c 128,-1,84
 523 12 523 12 546 16.5 c 128,-1,85
 569 21 569 21 586.5 26.5 c 128,-1,86
 604 32 604 32 632.5 42 c 128,-1,87
 661 52 661 52 674 56 c 0,88,89
 689 65 689 65 719.5 76 c 128,-1,90
 750 87 750 87 758 91 c 0,91,92
 836 131 836 131 880 167 c 0,0,1
161 -139 m 0,93,94
 247 -19 247 -19 247 1 c 0,95,96
 247 43 247 43 145 -46 c 2,97,-1
 136 -54 l 2,98,99
 79 -105 79 -105 64 -105 c 0,100,101
 40 -105 40 -105 -15.5 -165.5 c 128,-1,102
 -71 -226 -71 -226 -76 -253 c 0,103,104
 -78 -278 -78 -278 -73 -283 c 128,-1,105
 -68 -288 -68 -288 -44 -285 c 0,106,107
 -4 -282 -4 -282 59.5 -236.5 c 128,-1,108
 123 -191 123 -191 161 -139 c 0,93,94
426 380 m 0,109,110
 525 858 525 858 485 911 c 0,111,112
 470 926 470 926 433 926 c 0,113,114
 421 926 421 926 411.5 924 c 128,-1,115
 402 922 402 922 393 914.5 c 128,-1,116
 384 907 384 907 374 896 c 0,117,118
 363 885 363 885 348 867 c 0,119,120
 308 816 308 816 290.5 759 c 128,-1,121
 273 702 273 702 264 599 c 0,122,123
 259 535 259 535 261.5 513 c 128,-1,124
 264 491 264 491 281 469 c 0,125,126
 306 432 306 432 318 367 c 0,127,128
 332 299 332 299 343 293 c 0,129,130
 353 284 353 284 353 261 c 0,131,132
 353 217 353 217 377 250 c 0,133,134
 407 294 407 294 426 380 c 0,109,110
EndSplineSet
EndChar

StartChar: K
Encoding: 75 75 47
Width: 890
GlyphClass: 2
Flags: W
LayerCount: 2
Fore
SplineSet
882 122 m 0,0,1
 903 140 903 140 919 136.5 c 128,-1,2
 935 133 935 133 935 106 c 0,3,4
 935 98 935 98 932.5 91 c 128,-1,5
 930 84 930 84 925 77.5 c 128,-1,6
 920 71 920 71 915 65.5 c 128,-1,7
 910 60 910 60 901.5 54 c 128,-1,8
 893 48 893 48 888 44 c 128,-1,9
 883 40 883 40 874.5 34.5 c 128,-1,10
 866 29 866 29 863 27 c 0,11,12
 830 4 830 4 792 -11 c 1,13,14
 771 -25 771 -25 728 -27 c 0,15,16
 714 -28 714 -28 702 -27 c 0,17,18
 694 -27 694 -27 692 -27 c 0,19,20
 623 -25 623 -25 588 -5.5 c 128,-1,21
 553 14 553 14 466 97 c 0,22,23
 354 207 354 207 339 200 c 0,24,25
 326 195 326 195 295.5 149.5 c 128,-1,26
 265 104 265 104 265 88 c 0,27,28
 265 73 265 73 239 30 c 0,29,30
 212 -10 212 -10 203 -40 c 0,31,32
 195 -73 195 -73 171.5 -84 c 128,-1,33
 148 -95 148 -95 126.5 -75.5 c 128,-1,34
 105 -56 105 -56 106.5 -40 c 128,-1,35
 108 -24 108 -24 140 42 c 0,36,37
 167 101 167 101 166.5 119 c 128,-1,38
 166 137 166 137 135 137 c 0,39,40
 110 137 110 137 78 164 c 0,41,42
 55 181 55 181 49 194.5 c 128,-1,43
 43 208 43 208 43 236 c 0,44,45
 46 347 46 347 69 388 c 0,46,47
 79 406 79 406 93 409.5 c 128,-1,48
 107 413 107 413 166 409 c 0,49,50
 251 403 251 403 267 395 c 0,51,52
 311 378 311 378 356 449.5 c 128,-1,53
 401 521 401 521 401 606 c 0,54,55
 401 671 401 671 385.5 676 c 128,-1,56
 370 681 370 681 334 625 c 0,57,58
 306 583 306 583 272 571 c 0,59,60
 252 566 252 566 227 571 c 128,-1,61
 202 576 202 576 180.5 589 c 128,-1,62
 159 602 159 602 151 619 c 0,63,64
 140 640 140 640 143 689 c 128,-1,65
 146 738 146 738 159 772 c 0,66,67
 174 805 174 805 174 816.5 c 128,-1,68
 174 828 174 828 223 885 c 0,69,70
 269 938 269 938 314 969 c 128,-1,71
 359 1000 359 1000 421 1013 c 0,72,73
 457 1021 457 1021 478 1015 c 0,74,75
 513 1005 513 1005 531 963 c 0,76,77
 568 878 568 878 549 722 c 0,78,79
 540 648 540 648 528 637 c 0,80,81
 519 628 519 628 519 583 c 0,82,83
 519 547 519 547 493 492 c 0,84,85
 466 437 466 437 430 400 c 0,86,87
 396 364 396 364 412 347 c 0,88,89
 417 344 417 344 425.5 344 c 128,-1,90
 434 344 434 344 497 399 c 256,91,92
 560 454 560 454 633 527 c 0,93,94
 699 593 699 593 738 647.5 c 128,-1,95
 777 702 777 702 777 728 c 0,96,97
 780 753 780 753 788 767 c 0,98,99
 796 780 796 780 822.5 780 c 128,-1,100
 849 780 849 780 867 767 c 0,101,102
 893 748 893 748 867.5 685.5 c 128,-1,103
 842 623 842 623 778 548 c 0,104,105
 721 481 721 481 619 386.5 c 128,-1,106
 517 292 517 292 493 282 c 0,107,108
 466 274 466 274 474.5 243 c 128,-1,109
 483 212 483 212 524 171 c 0,110,111
 576 122 576 122 576 107 c 0,112,113
 576 94 576 94 599 73 c 0,114,115
 605 67 605 67 613 63 c 128,-1,116
 621 59 621 59 632.5 57 c 128,-1,117
 644 55 644 55 653 53.5 c 128,-1,118
 662 52 662 52 676.5 53 c 128,-1,119
 691 54 691 54 699 54.5 c 128,-1,120
 707 55 707 55 723.5 57.5 c 128,-1,121
 740 60 740 60 744.5 61 c 128,-1,122
 749 62 749 62 765 65 c 128,-1,123
 781 68 781 68 781 68 c 2,124,125
 796 71 796 71 809 76 c 128,-1,126
 822 81 822 81 835.5 89.5 c 128,-1,127
 849 98 849 98 857.5 104 c 128,-1,128
 866 110 866 110 882 122 c 0,0,1
314 741 m 0,129,130
 378 802 378 802 344 836 c 0,131,132
 329 851 329 851 310 850 c 128,-1,133
 291 849 291 849 280 836 c 0,134,135
 262 813 262 813 246.5 770.5 c 128,-1,136
 231 728 231 728 236 717 c 0,137,138
 251 677 251 677 314 741 c 0,129,130
225.5 269 m 128,-1,140
 241 282 241 282 239 290 c 0,141,142
 234 305 234 305 205.5 306.5 c 128,-1,143
 177 308 177 308 164 295 c 0,144,145
 153 284 153 284 151 268.5 c 128,-1,146
 149 253 149 253 162 246 c 0,147,148
 169 241 169 241 189.5 248.5 c 128,-1,139
 210 256 210 256 225.5 269 c 128,-1,140
EndSplineSet
EndChar

StartChar: L
Encoding: 76 76 48
Width: 956
GlyphClass: 2
Flags: W
LayerCount: 2
Fore
SplineSet
962 193 m 2,0,1
 962 193 962 193 963 194 c 256,2,3
 964 195 964 195 965 195 c 0,4,5
 989 216 989 216 1004 209 c 0,6,7
 1015 203 1015 203 1018 188 c 0,8,9
 1024 149 1024 149 966 106 c 0,10,11
 882 45 882 45 793 -10 c 0,12,13
 780 -18 780 -18 773 -20 c 0,14,15
 763 -22 763 -22 744 -17 c 0,16,17
 686 -2 686 -2 562 37 c 0,18,19
 508 50 508 50 477 56 c 0,20,21
 424 66 424 66 406 77 c 0,22,23
 390 87 390 87 342 57 c 0,24,25
 302 33 302 33 264 20 c 128,-1,26
 226 7 226 7 188 7 c 128,-1,27
 150 7 150 7 115.5 28 c 128,-1,28
 81 49 81 49 56 91 c 0,29,30
 51 99 51 99 48 107.5 c 128,-1,31
 45 116 45 116 44 126 c 128,-1,32
 43 136 43 136 43 142.5 c 128,-1,33
 43 149 43 149 45 161.5 c 128,-1,34
 47 174 47 174 48 178.5 c 128,-1,35
 49 183 49 183 52.5 197.5 c 128,-1,36
 56 212 56 212 56 215 c 0,37,38
 64 249 64 249 83.5 278.5 c 128,-1,39
 103 308 103 308 129 317 c 0,40,41
 162 329 162 329 217.5 323.5 c 128,-1,42
 273 318 273 318 293 302 c 0,43,44
 351 258 351 258 383.5 269.5 c 128,-1,45
 416 281 416 281 454 358 c 0,46,47
 474 400 474 400 508 471 c 0,48,49
 576 611 576 611 427 598 c 0,50,51
 375 593 375 593 338 613 c 0,52,53
 272 650 272 650 229 663 c 0,54,55
 201 671 201 671 188.5 689 c 128,-1,56
 176 707 176 707 188 722 c 0,57,58
 198 735 198 735 223 725 c 0,59,60
 274 703 274 703 308 692 c 256,61,62
 342 681 342 681 373 678 c 0,63,64
 405 675 405 675 452 676 c 0,65,66
 549 676 549 676 573 692 c 0,67,68
 583 701 583 701 598 725.5 c 128,-1,69
 613 750 613 750 623.5 781 c 128,-1,70
 634 812 634 812 639 838 c 0,71,72
 642 865 642 865 676.5 912.5 c 128,-1,73
 711 960 711 960 746 983 c 0,74,75
 789 1012 789 1012 861 970 c 0,76,77
 886 955 886 955 891 942.5 c 128,-1,78
 896 930 896 930 895 886 c 0,79,80
 893 830 893 830 879 789 c 128,-1,81
 865 748 865 748 835 717.5 c 128,-1,82
 805 687 805 687 756 663 c 0,83,84
 709 640 709 640 687.5 607.5 c 128,-1,85
 666 575 666 575 625 467 c 0,86,87
 555 286 555 286 512 215 c 0,88,89
 487 174 487 174 500.5 148 c 128,-1,90
 514 122 514 122 563 118 c 0,91,92
 628 112 628 112 706 87 c 0,93,94
 755 70 755 70 812 92 c 0,95,96
 833 99 833 99 851.5 109 c 128,-1,97
 870 119 870 119 893 137 c 128,-1,98
 916 155 916 155 925 162 c 128,-1,99
 934 169 934 169 962 193 c 2,0,1
734 850 m 1,100,101
 693 782 693 782 732 780 c 0,102,103
 746 782 746 782 766 800.5 c 128,-1,104
 786 819 786 819 798.5 842 c 128,-1,105
 811 865 811 865 805 875 c 0,106,107
 782 920 782 920 734 850 c 1,100,101
265 144 m 0,108,109
 307 168 307 168 306 184 c 128,-1,110
 305 200 305 200 260 216 c 0,111,112
 220 233 220 233 211.5 232 c 128,-1,113
 203 231 203 231 179 212 c 0,114,115
 157 193 157 193 158.5 177 c 128,-1,116
 160 161 160 161 187 140 c 0,117,118
 209 123 209 123 218.5 124 c 128,-1,119
 228 125 228 125 265 144 c 0,108,109
EndSplineSet
EndChar

StartChar: M
Encoding: 77 77 49
Width: 1161
GlyphClass: 2
Flags: W
LayerCount: 2
Fore
SplineSet
215 965 m 0,0,1
 279 1002 279 1002 285 1007 c 0,2,3
 305 1027 305 1027 326 1005 c 0,4,5
 340 991 340 991 365 1005 c 0,6,7
 390 1018 390 1018 427 1000 c 0,8,9
 450 988 450 988 458 973.5 c 128,-1,10
 466 959 466 959 471 919 c 0,11,12
 480 864 480 864 493 853.5 c 128,-1,13
 506 843 506 843 534 868 c 0,14,15
 559 894 559 894 576 894 c 128,-1,16
 593 894 593 894 623 914 c 0,17,18
 672 947 672 947 719 913.5 c 128,-1,19
 766 880 766 880 766 811 c 0,20,21
 766 774 766 774 777.5 772 c 128,-1,22
 789 770 789 770 824 799 c 0,23,24
 916 875 916 875 966.5 888 c 128,-1,25
 1017 901 1017 901 1065 861 c 2,26,-1
 1104 827 l 1,27,-1
 1096 733 l 2,28,29
 1086 638 1086 638 1056 578 c 0,30,31
 1026 514 1026 514 1026 503.5 c 128,-1,32
 1026 493 1026 493 1010 458 c 0,33,34
 978 397 978 397 985 280.5 c 128,-1,35
 992 164 992 164 1029 152 c 0,36,37
 1054 147 1054 147 1096 171 c 0,38,39
 1137 198 1137 198 1169 198 c 0,40,41
 1195 198 1195 198 1217.5 174 c 128,-1,42
 1240 150 1240 150 1231 131 c 0,43,44
 1222 109 1222 109 1171.5 84.5 c 128,-1,45
 1121 60 1121 60 1072 53 c 0,46,47
 1038 49 1038 49 1020.5 52.5 c 128,-1,48
 1003 56 1003 56 978 74 c 0,49,50
 925 113 925 113 907.5 160 c 128,-1,51
 890 207 890 207 890 306 c 0,52,53
 890 426 890 426 900 465 c 0,54,55
 921 531 921 531 938 605 c 256,56,57
 955 679 955 679 959 722 c 0,58,59
 964 765 964 765 955 770 c 1,60,61
 920 770 920 770 799 619 c 128,-1,62
 678 468 678 468 663 405 c 0,63,64
 656 371 656 371 614 274 c 128,-1,65
 572 177 572 177 529 97 c 0,66,67
 508 58 508 58 479 50 c 128,-1,68
 450 42 450 42 432 68.5 c 128,-1,69
 414 95 414 95 425 140 c 0,70,71
 430 175 430 175 455 224 c 0,72,73
 480 270 480 270 480 295 c 128,-1,74
 480 320 480 320 504 352 c 0,75,76
 531 385 531 385 533.5 415 c 128,-1,77
 536 445 536 445 556 468 c 0,78,79
 582 496 582 496 625.5 630.5 c 128,-1,80
 669 765 669 765 658 785 c 0,81,82
 653 793 653 793 603.5 768.5 c 128,-1,83
 554 744 554 744 554 732.5 c 128,-1,84
 554 721 554 721 483 604 c 1,85,86
 413 497 413 497 384 414 c 0,87,88
 354 336 354 336 324 292 c 0,89,90
 292 242 292 242 292 230 c 0,91,92
 291 210 291 210 245 125 c 0,93,94
 222 82 222 82 207 58.5 c 128,-1,95
 192 35 192 35 185 32 c 0,96,97
 167 23 167 23 154 32 c 0,98,99
 88 75 88 75 138 165 c 0,100,101
 167 218 167 218 181 244 c 0,102,103
 210 295 210 295 223 323 c 0,104,105
 240 359 240 359 255.5 405.5 c 128,-1,106
 271 452 271 452 280.5 490 c 128,-1,107
 290 528 290 528 304.5 575 c 128,-1,108
 319 622 319 622 335 657 c 0,109,110
 365 726 365 726 370 752.5 c 128,-1,111
 375 779 375 779 370 829 c 2,112,-1
 361 901 l 1,113,-1
 317 898 l 2,114,115
 275 892 275 892 256.5 875.5 c 128,-1,116
 238 859 238 859 253 839 c 0,117,118
 287 800 287 800 208 717 c 0,119,120
 121 627 121 627 70 657 c 0,121,122
 43 671 43 671 43 724 c 128,-1,123
 43 777 43 777 68 836 c 0,124,125
 87 878 87 878 112 900 c 128,-1,126
 137 922 137 922 215 965 c 0,0,1
EndSplineSet
EndChar

StartChar: N
Encoding: 78 78 50
Width: 1201
GlyphClass: 2
Flags: W
LayerCount: 2
Fore
SplineSet
1214 214 m 0,0,1
 1238 234 1238 234 1256 230.5 c 128,-1,2
 1274 227 1274 227 1275 195 c 0,3,4
 1275 173 1275 173 1258.5 150.5 c 128,-1,5
 1242 128 1242 128 1214.5 109 c 128,-1,6
 1187 90 1187 90 1154 72.5 c 128,-1,7
 1121 55 1121 55 1087 42 c 128,-1,8
 1053 29 1053 29 1025.5 20.5 c 128,-1,9
 998 12 998 12 979 8 c 0,10,11
 932 -1 932 -1 884.5 -1.5 c 128,-1,12
 837 -2 837 -2 789.5 8 c 128,-1,13
 742 18 742 18 701.5 44.5 c 128,-1,14
 661 71 661 71 635 112 c 0,15,16
 590 182 590 182 599.5 269.5 c 128,-1,17
 609 357 609 357 676 504 c 0,18,19
 713 586 713 586 723 622 c 0,20,21
 730 651 730 651 764 713 c 0,22,23
 810 797 810 797 773 795 c 0,24,25
 747 793 747 793 695 746 c 0,26,27
 651 708 651 708 607 674 c 0,28,29
 577 653 577 653 493.5 537.5 c 128,-1,30
 410 422 410 422 389 376 c 0,31,32
 371 329 371 329 334 277 c 0,33,34
 272 185 272 185 209 71 c 0,35,36
 177 7 177 7 166 7 c 0,37,38
 159 7 159 7 129 0 c 0,39,40
 101 -8 101 -8 71 33 c 2,41,-1
 43 74 l 1,42,-1
 80 130 l 2,43,44
 105 166 105 166 155 257 c 128,-1,45
 205 348 205 348 229 381 c 0,46,47
 248 409 248 409 275 460 c 0,48,49
 302 510 302 510 324 560 c 256,50,51
 346 610 346 610 354 636 c 0,52,53
 363 670 363 670 391 722 c 0,54,55
 412 759 412 759 417.5 806.5 c 128,-1,56
 423 854 423 854 408 867 c 0,57,58
 404 873 404 873 376.5 862.5 c 128,-1,59
 349 852 349 852 316 836 c 0,60,61
 284 819 284 819 253 800 c 0,62,63
 222 782 222 782 211 769 c 0,64,65
 187 743 187 743 165.5 743.5 c 128,-1,66
 144 744 144 744 116 776 c 0,67,68
 86 810 86 810 86 813 c 0,69,70
 86 828 86 828 212.5 900.5 c 128,-1,71
 339 973 339 973 401 996 c 0,72,73
 430 1005 430 1005 475 1001.5 c 128,-1,74
 520 998 520 998 542 983 c 0,75,76
 555 975 555 975 560.5 965 c 128,-1,77
 566 955 566 955 568 937 c 256,78,79
 570 919 570 919 570 884 c 2,80,-1
 570 808 l 1,81,-1
 648 867 l 2,82,83
 700 908 700 908 725.5 919.5 c 128,-1,84
 751 931 751 931 799 931 c 0,85,86
 855 932 855 932 867 925.5 c 128,-1,87
 879 919 879 919 890 884 c 0,88,89
 907 841 907 841 898 778 c 0,90,91
 885 700 885 700 855 598.5 c 128,-1,92
 825 497 825 497 799 449 c 0,93,94
 767 385 767 385 767 354 c 0,95,96
 767 324 767 324 749 311 c 0,97,98
 726 291 726 291 719 258 c 128,-1,99
 712 225 712 225 719.5 193.5 c 128,-1,100
 727 162 727 162 747.5 136.5 c 128,-1,101
 768 111 768 111 795 104 c 0,102,103
 847 95 847 95 915 99.5 c 128,-1,104
 983 104 983 104 1046 117 c 0,105,106
 1069 125 1069 125 1079 130 c 0,107,108
 1165 175 1165 175 1214 214 c 0,0,1
EndSplineSet
EndChar

StartChar: O
Encoding: 79 79 51
Width: 798
GlyphClass: 2
Flags: W
LayerCount: 2
Fore
SplineSet
510.5 892.5 m 128,-1,1
 520 895 520 895 547 915 c 0,2,3
 589 947 589 947 661 957 c 0,4,5
 676 957 676 957 729 910 c 0,6,7
 850 797 850 797 776 651 c 0,8,9
 730 561 730 561 750 556 c 0,10,11
 752 556 752 556 755 558 c 0,12,13
 801 578 801 578 830.5 587.5 c 128,-1,14
 860 597 860 597 878.5 597.5 c 128,-1,15
 897 598 897 598 904.5 589.5 c 128,-1,16
 912 581 912 581 912 563 c 0,17,18
 912 531 912 531 876 503 c 128,-1,19
 840 475 840 475 777 460 c 0,20,21
 733 450 733 450 715 439 c 128,-1,22
 697 428 697 428 681 405 c 0,23,24
 250 -282 250 -282 78 71 c 0,25,26
 57 118 57 118 47.5 185.5 c 128,-1,27
 38 253 38 253 50 282 c 0,28,29
 73 339 73 339 104 507 c 0,30,31
 119 577 119 577 147 632 c 0,32,33
 176 696 176 696 176 703 c 0,34,35
 176 720 176 720 271 795.5 c 128,-1,36
 366 871 366 871 412 893 c 0,37,38
 451 912 451 912 464.5 913.5 c 128,-1,39
 478 915 478 915 489 903 c 0,40,0
 501 890 501 890 510.5 892.5 c 128,-1,1
454 679 m 0,41,42
 437 703 437 703 437 735 c 0,43,44
 437 770 437 770 425.5 771 c 128,-1,45
 414 772 414 772 373 740 c 0,46,47
 254 646 254 646 223 573 c 0,48,49
 196 512 196 512 162.5 361.5 c 128,-1,50
 129 211 129 211 136 182 c 0,51,52
 141 150 141 150 141 117 c 0,53,54
 141 90 141 90 162 68 c 128,-1,55
 183 46 183 46 208 46 c 0,56,57
 267 46 267 46 384 161 c 256,58,59
 501 276 501 276 564 396 c 2,60,-1
 596 459 l 1,61,-1
 542 511 l 2,62,63
 486 566 486 566 478 610 c 0,64,65
 469 656 469 656 454 679 c 0,41,42
699.5 740.5 m 128,-1,67
 708 792 708 792 693 816 c 0,68,69
 685 827 685 827 649.5 827 c 128,-1,70
 614 827 614 827 604 799 c 0,71,72
 599 785 599 785 590.5 776.5 c 128,-1,73
 582 768 582 768 575 768 c 0,74,75
 558 768 558 768 554 729.5 c 128,-1,76
 550 691 550 691 562 643 c 256,77,78
 574 595 574 595 594 571 c 0,79,80
 602 561 602 561 608 558 c 128,-1,81
 614 555 614 555 622.5 562.5 c 128,-1,82
 631 570 631 570 640 586 c 128,-1,83
 649 602 649 602 665 634 c 0,84,66
 691 689 691 689 699.5 740.5 c 128,-1,67
EndSplineSet
EndChar

StartChar: P
Encoding: 80 80 52
Width: 900
GlyphClass: 2
Flags: W
LayerCount: 2
Fore
SplineSet
345 573 m 0,0,1
 406 703 406 703 406 724 c 0,2,3
 406 735 406 735 413 743 c 256,4,5
 420 751 420 751 426 759 c 0,6,7
 433 767 433 767 433 779 c 0,8,9
 425 802 425 802 381.5 788.5 c 128,-1,10
 338 775 338 775 326 764 c 0,11,12
 286 731 286 731 238.5 743.5 c 128,-1,13
 191 756 191 756 191 800 c 0,14,15
 191 817 191 817 233 847.5 c 128,-1,16
 275 878 275 878 300 878 c 0,17,18
 315 878 315 878 368 900.5 c 128,-1,19
 421 923 421 923 425 923 c 0,20,21
 448 929 448 929 581 924.5 c 128,-1,22
 714 920 714 920 781 910 c 0,23,24
 842 902 842 902 914 845 c 1,25,26
 1006 779 1006 779 1004 707.5 c 128,-1,27
 1002 636 1002 636 909 501 c 0,28,29
 863 436 863 436 836 403 c 0,30,31
 810 370 810 370 792.5 356.5 c 128,-1,32
 775 343 775 343 760 343 c 0,33,34
 734 343 734 343 711 320 c 0,35,36
 671 275 671 275 562.5 236 c 128,-1,37
 454 197 454 197 391 204 c 0,38,39
 372 204 372 204 358.5 206 c 128,-1,40
 345 208 345 208 333 200 c 0,41,42
 320 193 320 193 311 185 c 0,43,44
 302 178 302 178 291 158 c 0,45,46
 281 137 281 137 271 115 c 0,47,48
 262 92 262 92 248 54 c 0,49,50
 231 4 231 4 221.5 -16.5 c 128,-1,51
 212 -37 212 -37 202.5 -45 c 128,-1,52
 193 -53 193 -53 178 -53 c 0,53,54
 146 -53 146 -53 127 -18 c 0,55,56
 113 6 113 6 118 27 c 256,57,58
 123 48 123 48 157 120 c 0,59,60
 205 223 205 223 199 235 c 0,61,62
 191 244 191 244 121 238 c 0,63,64
 71 235 71 235 56 239.5 c 128,-1,65
 41 244 41 244 26 269 c 0,66,67
 9 295 9 295 9 304.5 c 128,-1,68
 9 314 9 314 28 339 c 0,69,70
 51 372 51 372 128.5 397.5 c 128,-1,71
 206 423 206 423 227 406 c 0,72,73
 241 396 241 396 263.5 407.5 c 128,-1,74
 286 419 286 419 286 436 c 0,75,76
 286 450 286 450 345 573 c 0,0,1
863.5 775 m 128,-1,78
 855 786 855 786 825 804 c 0,79,80
 791 821 791 821 715 828 c 0,81,82
 608 838 608 838 567 818 c 128,-1,83
 526 798 526 798 526 737 c 0,84,85
 526 691 526 691 513 683.5 c 128,-1,86
 500 676 500 676 500 653 c 0,87,88
 500 625 500 625 372 366 c 0,89,90
 344 307 344 307 402 307 c 0,91,92
 441 307 441 307 500 332 c 0,93,94
 718 421 718 421 834 602 c 0,95,96
 869 651 869 651 877.5 675 c 128,-1,97
 886 699 886 699 880 724 c 0,98,77
 872 764 872 764 863.5 775 c 128,-1,78
EndSplineSet
EndChar

StartChar: Q
Encoding: 81 81 53
Width: 755
GlyphClass: 2
Flags: W
LayerCount: 2
Fore
SplineSet
886 129 m 0,0,1
 882 100 882 100 866 77 c 0,2,3
 828 21 828 21 759 -9 c 0,4,5
 694 -36 694 -36 626 -22 c 128,-1,6
 558 -8 558 -8 510 45 c 2,7,-1
 447 110 l 1,8,-1
 399 61 l 1,9,10
 346 13 346 13 305 -6.5 c 128,-1,11
 264 -26 264 -26 208 -26 c 0,12,13
 146 -26 146 -26 119 -5 c 128,-1,14
 92 16 92 16 68 78 c 0,15,16
 52 119 52 119 47.5 158.5 c 128,-1,17
 43 198 43 198 43 285 c 0,18,19
 45 386 45 386 52 432 c 0,20,21
 60 477 60 477 79 491 c 0,22,23
 92 496 92 496 92 516 c 0,24,25
 92 535 92 535 136 626 c 0,26,27
 171 701 171 701 251 788 c 128,-1,28
 331 875 331 875 393 907 c 0,29,30
 452 939 452 939 517 931.5 c 128,-1,31
 582 924 582 924 631 878 c 0,32,33
 656 855 656 855 664.5 839 c 128,-1,34
 673 823 673 823 673 792 c 0,35,36
 673 749 673 749 683 738 c 1,37,38
 695 733 695 733 703 679 c 0,39,40
 708 647 708 647 702 621 c 0,41,42
 697 594 697 594 675 538 c 0,43,44
 638 450 638 450 638 420 c 128,-1,45
 638 390 638 390 626 383 c 128,-1,46
 614 376 614 376 614 351 c 0,47,48
 614 327 614 327 565 255 c 2,49,-1
 515 183 l 1,50,-1
 545 129 l 2,51,52
 565 92 565 92 577 83.5 c 128,-1,53
 589 75 589 75 628 72 c 0,54,55
 685 68 685 68 745 93 c 0,56,57
 769 104 769 104 788 108 c 1,58,59
 817 127 817 127 839 144 c 0,60,61
 869 165 869 165 879 159 c 128,-1,62
 889 153 889 153 886 129 c 0,0,1
498.5 324.5 m 128,-1,64
 516 354 516 354 529 394.5 c 128,-1,65
 542 435 542 435 542 466 c 0,66,67
 542 503 542 503 579 573 c 0,68,69
 614 641 614 641 614 666 c 0,70,71
 614 684 614 684 594 720.5 c 128,-1,72
 574 757 574 757 564 757 c 0,73,74
 557 757 557 757 545 796 c 0,75,76
 538 824 538 824 524 831.5 c 128,-1,77
 510 839 510 839 474 831 c 0,78,79
 461 829 461 829 437.5 811.5 c 128,-1,80
 414 794 414 794 387 768 c 128,-1,81
 360 742 360 742 332 710.5 c 128,-1,82
 304 679 304 679 281 647 c 0,83,84
 257 616 257 616 244 590 c 0,85,86
 233 571 233 571 205 520 c 0,87,88
 178 472 178 472 169 457 c 0,89,90
 151 422 151 422 144.5 387.5 c 128,-1,91
 138 353 138 353 134 274 c 0,92,93
 126 154 126 154 136 115.5 c 128,-1,94
 146 77 146 77 186 68 c 0,95,96
 212 63 212 63 226 66 c 0,97,98
 240 70 240 70 262 88 c 0,99,100
 296 117 296 117 311 117 c 0,101,102
 328 117 328 117 372 171 c 0,103,104
 402 208 402 208 406 220 c 0,105,106
 410 231 410 231 399 242 c 0,107,108
 387 255 387 255 371 256 c 128,-1,109
 355 257 355 257 313 247 c 0,110,111
 257 235 257 235 233.5 244 c 128,-1,112
 210 253 210 253 210 284 c 0,113,114
 210 296 210 296 217.5 305 c 128,-1,115
 225 314 225 314 239.5 322.5 c 128,-1,116
 254 331 254 331 274 337 c 128,-1,117
 294 343 294 343 318 346 c 0,118,119
 351 349 351 349 369.5 346 c 128,-1,120
 388 343 388 343 415 324 c 0,121,122
 457 294 457 294 468 294 c 0,123,63
 481 295 481 295 498.5 324.5 c 128,-1,64
EndSplineSet
EndChar

StartChar: R
Encoding: 82 82 54
Width: 993
GlyphClass: 2
Flags: W
LayerCount: 2
Fore
SplineSet
1078 195 m 0,0,1
 1078 188 1078 188 1075.5 181 c 128,-1,2
 1073 174 1073 174 1070 168 c 128,-1,3
 1067 162 1067 162 1060.5 155.5 c 128,-1,4
 1054 149 1054 149 1049.5 144.5 c 128,-1,5
 1045 140 1045 140 1036.5 134 c 128,-1,6
 1028 128 1028 128 1023.5 124.5 c 128,-1,7
 1019 121 1019 121 1010.5 115.5 c 128,-1,8
 1002 110 1002 110 999 108 c 0,9,10
 979 86 979 86 918 64 c 1,11,12
 831 16 831 16 795 14 c 1,13,14
 782 9 782 9 772 9 c 0,15,16
 754 8 754 8 712 17 c 0,17,18
 656 30 656 30 628.5 40 c 128,-1,19
 601 50 601 50 526 83 c 0,20,21
 462 114 462 114 379 114 c 0,22,23
 311 114 311 114 300 107 c 0,24,25
 289 96 289 96 265 12 c 0,26,27
 263 8 263 8 263 4 c 0,28,29
 258 -14 258 -14 249 -20.5 c 128,-1,30
 240 -27 240 -27 216 -27 c 0,31,32
 188 -27 188 -27 182.5 -18 c 128,-1,33
 177 -9 177 -9 177 48 c 2,34,-1
 177 124 l 1,35,36
 114 144 114 144 49 166 c 1,37,-1
 45 267 l 2,38,39
 41 340 41 340 45.5 356 c 128,-1,40
 50 372 50 372 76 383 c 0,41,42
 113 397 113 397 203 399 c 0,43,44
 237 401 237 401 247 401 c 0,45,46
 258 401 258 401 275.5 408.5 c 128,-1,47
 293 416 293 416 296.5 419.5 c 128,-1,48
 300 423 300 423 312 448 c 0,49,50
 324 472 324 472 329 489 c 0,51,52
 333 504 333 504 348 555 c 0,53,54
 368 633 368 633 379 645 c 0,55,56
 396 669 396 669 418 742.5 c 128,-1,57
 440 816 440 816 431.5 823.5 c 128,-1,58
 423 831 423 831 340 792 c 0,59,60
 230 739 230 739 223 783 c 1,61,-1
 223 792 l 2,62,63
 223 809 223 809 239.5 833.5 c 128,-1,64
 256 858 256 858 277 877.5 c 128,-1,65
 298 897 298 897 311 897 c 0,66,67
 328 897 328 897 403 930 c 0,68,69
 471 961 471 961 539 974 c 0,70,71
 724 1005 724 1005 805 965 c 0,72,73
 853 939 853 939 888.5 865.5 c 128,-1,74
 924 792 924 792 924 719 c 0,75,76
 924 653 924 653 886.5 564.5 c 128,-1,77
 849 476 849 476 803 438 c 0,78,79
 766 410 766 410 715 342 c 0,80,81
 666 280 666 280 616 232 c 0,82,83
 576 193 576 193 577.5 172 c 128,-1,84
 579 151 579 151 627 127 c 0,85,86
 666 107 666 107 716 106 c 0,87,88
 794 105 794 105 877 143 c 0,89,90
 890 149 890 149 927 154 c 1,91,92
 982 185 982 185 1018 213 c 0,93,94
 1042 233 1042 233 1060 229.5 c 128,-1,95
 1078 226 1078 226 1078 195 c 0,0,1
232 243 m 128,-1,97
 254 274 254 274 236 296 c 0,98,99
 223 313 223 313 208.5 314 c 128,-1,100
 194 315 194 315 164 302 c 0,101,102
 120 285 120 285 125.5 259.5 c 128,-1,103
 131 234 131 234 181 219 c 0,104,96
 210 212 210 212 232 243 c 128,-1,97
517 302 m 2,105,106
 563 342 563 342 610 394 c 0,107,108
 700 485 700 485 748 558.5 c 128,-1,109
 796 632 796 632 808 699.5 c 128,-1,110
 820 767 820 767 796 827 c 2,111,-1
 772 891 l 1,112,-1
 708 893 l 2,113,114
 640 895 640 895 598 886 c 0,115,116
 565 880 565 880 558.5 869 c 128,-1,117
 552 858 552 858 546 801 c 0,118,119
 539 721 539 721 506 671 c 0,120,121
 471 621 471 621 449 548 c 0,122,123
 429 476 429 476 418 458 c 0,124,125
 405 436 405 436 399 385 c 0,126,127
 394 351 394 351 398.5 336.5 c 128,-1,128
 403 322 403 322 429 298 c 2,129,-1
 467 260 l 1,130,-1
 517 302 l 2,105,106
EndSplineSet
EndChar

StartChar: S
Encoding: 83 83 55
Width: 990
GlyphClass: 2
Flags: W
LayerCount: 2
Fore
SplineSet
1100 177 m 0,0,1
 1101 146 1101 146 1049 111 c 1,2,3
 1038 86 1038 86 1008 67 c 0,4,5
 959 35 959 35 922 26 c 0,6,7
 787 -14 787 -14 712 -27.5 c 128,-1,8
 637 -41 637 -41 570 -38 c 0,9,10
 551 -36 551 -36 537.5 -37 c 128,-1,11
 524 -38 524 -38 513.5 -40.5 c 128,-1,12
 503 -43 503 -43 492.5 -48 c 128,-1,13
 482 -53 482 -53 472 -61 c 0,14,15
 425 -95 425 -95 334 -84 c 128,-1,16
 243 -73 243 -73 194 -26 c 0,17,18
 162 4 162 4 145.5 8.5 c 128,-1,19
 129 13 129 13 105 -2 c 0,20,21
 68 -24 68 -24 50.5 3 c 128,-1,22
 33 30 33 30 58 70 c 0,23,24
 71 94 71 94 56 159.5 c 128,-1,25
 41 225 41 225 54 237 c 128,-1,26
 67 249 67 249 120 218 c 2,27,-1
 178 186 l 1,28,-1
 230 239 l 2,29,30
 267 274 267 274 357 381.5 c 128,-1,31
 447 489 447 489 474 518 c 2,32,-1
 521 567 l 1,33,-1
 514 644 l 2,34,35
 508 722 508 722 489 757 c 0,36,37
 460 811 460 811 475 860 c 0,38,39
 489 909 489 909 553 976 c 0,40,41
 578 1001 578 1001 595 1010.5 c 128,-1,42
 612 1020 612 1020 637 1020 c 0,43,44
 666 1020 666 1020 710.5 999 c 128,-1,45
 755 978 755 978 757 964 c 0,46,47
 770 875 770 875 755 860 c 0,48,49
 748 851 748 851 727 782 c 0,50,51
 705 718 705 718 669 671 c 0,52,53
 637 624 637 624 637 612 c 0,54,55
 637 599 637 599 621 582 c 0,56,57
 604 562 604 562 614 503 c 0,58,59
 673 202 673 202 626 105 c 0,60,61
 604 60 604 60 614 53 c 0,62,63
 622 47 622 47 674 60 c 0,64,65
 715 70 715 70 791 82 c 0,66,67
 808 85 808 85 826.5 91.5 c 128,-1,68
 845 98 845 98 865 106 c 128,-1,69
 885 114 885 114 900 119 c 0,70,71
 919 124 919 124 925 129 c 0,72,73
 929 131 929 131 932.5 134.5 c 128,-1,74
 936 138 936 138 938.5 141 c 128,-1,75
 941 144 941 144 945 147.5 c 128,-1,76
 949 151 949 151 952 153 c 0,77,78
 965 164 965 164 1000 176 c 128,-1,79
 1035 188 1035 188 1046 194 c 256,80,81
 1057 200 1057 200 1065 203 c 128,-1,82
 1073 206 1073 206 1082 206.5 c 128,-1,83
 1091 207 1091 207 1095.5 199.5 c 128,-1,84
 1100 192 1100 192 1100 177 c 0,0,1
554 184 m 128,-1,86
 565 222 565 222 558 319 c 0,87,88
 548 431 548 431 536 436 c 0,89,90
 526 439 526 439 471 377 c 0,91,92
 431 332 431 332 349 242 c 0,93,94
 280 171 280 171 280 151 c 0,95,96
 280 136 280 136 327.5 105.5 c 128,-1,97
 375 75 375 75 413 65 c 0,98,99
 434 60 434 60 449 66.5 c 128,-1,100
 464 73 464 73 493 99 c 0,101,85
 543 146 543 146 554 184 c 128,-1,86
592 725 m 0,102,103
 604 730 604 730 638.5 813.5 c 128,-1,104
 673 897 673 897 666 909 c 0,105,106
 656 941 656 941 617 907 c 0,107,108
 590 885 590 885 578 848 c 0,109,110
 562 798 562 798 577 742 c 0,111,112
 585 725 585 725 592 725 c 0,102,103
EndSplineSet
EndChar

StartChar: T
Encoding: 84 84 56
Width: 1182
GlyphClass: 2
Flags: W
LayerCount: 2
Fore
SplineSet
1309 883 m 0,0,1
 1347 848 1347 848 1303 804 c 0,2,3
 1278 781 1278 781 1218 769 c 0,4,5
 1157 756 1157 756 1011 744 c 2,6,-1
 903 735 l 1,7,-1
 874 639 l 2,8,9
 845 542 845 542 828 523 c 0,10,11
 807 496 807 496 793 465 c 0,12,13
 716 296 716 296 716 269 c 0,14,15
 716 248 716 248 687 211 c 0,16,17
 657 175 657 175 659.5 159.5 c 128,-1,18
 662 144 662 144 693 113 c 0,19,20
 694 112 694 112 695.5 110 c 128,-1,21
 697 108 697 108 698 107 c 0,22,23
 762 143 762 143 802 176 c 0,24,25
 830 198 830 198 850 194 c 128,-1,26
 870 190 870 190 871 155 c 0,27,28
 871 144 871 144 866 133 c 128,-1,29
 861 122 861 122 854.5 114 c 128,-1,30
 848 106 848 106 836 95.5 c 128,-1,31
 824 85 824 85 817 80 c 128,-1,32
 810 75 810 75 796 66 c 128,-1,33
 782 57 782 57 779 54 c 0,34,35
 723 16 723 16 609 -10 c 0,36,37
 580 -17 580 -17 553 -9 c 1,38,39
 442 -25 442 -25 353 -25 c 0,40,41
 303 -25 303 -25 279 -23 c 256,42,43
 255 -21 255 -21 240.5 -13.5 c 128,-1,44
 226 -6 226 -6 208 13 c 0,45,46
 166 50 166 50 131 56 c 0,47,48
 97 59 97 59 64 102 c 0,49,50
 43 129 43 129 43 138.5 c 128,-1,51
 43 148 43 148 60 167 c 0,52,53
 74 181 74 181 86.5 183.5 c 128,-1,54
 99 186 99 186 122 173 c 0,55,56
 158 156 158 156 195.5 156 c 128,-1,57
 233 156 233 156 239 142 c 0,58,59
 247 127 247 127 272 127 c 128,-1,60
 297 127 297 127 341 104 c 0,61,62
 372 88 372 88 385.5 91 c 128,-1,63
 399 94 399 94 441 123 c 0,64,65
 495 159 495 159 535 206 c 0,66,67
 562 238 562 238 624 363 c 0,68,69
 687 488 687 488 687 508 c 0,70,71
 687 521 687 521 722 598 c 0,72,73
 762 686 762 686 762 712.5 c 128,-1,74
 762 739 762 739 716 762 c 0,75,76
 662 787 662 787 549 783 c 2,77,-1
 433 779 l 1,78,-1
 405 692 l 2,79,80
 362 552 362 552 287 552 c 0,81,82
 258 552 258 552 187 612 c 0,83,84
 139 652 139 652 129.5 669.5 c 128,-1,85
 120 687 120 687 124 723 c 0,86,87
 133 773 133 773 114 814 c 0,88,89
 97 856 97 856 114 887.5 c 128,-1,90
 131 919 131 919 141 919 c 0,91,92
 143 919 143 919 165 915 c 0,93,94
 189 912 189 912 229 907 c 0,95,96
 270 902 270 902 306 898 c 0,97,98
 458 877 458 877 522 889 c 0,99,100
 568 898 568 898 632.5 883.5 c 128,-1,101
 697 869 697 869 724 844 c 0,102,103
 749 819 749 819 940.5 835.5 c 128,-1,104
 1132 852 1132 852 1195 885 c 0,105,106
 1265 921 1265 921 1309 883 c 0,0,1
302.5 701 m 128,-1,108
 320 733 320 733 320 758 c 0,109,110
 320 789 320 789 281 754 c 0,111,112
 231 712 231 712 241 683 c 0,113,114
 245 669 245 669 270 669 c 0,115,107
 285 669 285 669 302.5 701 c 128,-1,108
EndSplineSet
EndChar

StartChar: U
Encoding: 85 85 57
Width: 847
GlyphClass: 2
Flags: W
LayerCount: 2
Fore
SplineSet
827 188 m 0,0,1
 851 208 851 208 868.5 204.5 c 128,-1,2
 886 201 886 201 887 170 c 0,3,4
 887 161 887 161 882.5 151 c 128,-1,5
 878 141 878 141 872.5 134 c 128,-1,6
 867 127 867 127 856.5 118 c 128,-1,7
 846 109 846 109 840 104.5 c 128,-1,8
 834 100 834 100 821.5 92 c 128,-1,9
 809 84 809 84 806 82 c 0,10,11
 797 76 797 76 789 68.5 c 128,-1,12
 781 61 781 61 772 52 c 128,-1,13
 763 43 763 43 757 37 c 0,14,15
 749 30 749 30 733 28 c 1,16,17
 720 20 720 20 685 16 c 0,18,19
 634 8 634 8 592 26 c 0,20,21
 587 26 587 26 579 26 c 1,22,23
 577 30 577 30 578 34 c 1,24,25
 577 34 577 34 573 36 c 128,-1,26
 569 38 569 38 567 39 c 0,27,28
 516 73 516 73 516 127 c 0,29,30
 516 191 516 191 475 117 c 0,31,32
 453 80 453 80 374.5 17.5 c 128,-1,33
 296 -45 296 -45 258 -53 c 0,34,35
 228 -58 228 -58 212 -51 c 128,-1,36
 196 -44 196 -44 145 1 c 0,37,38
 107 34 107 34 100.5 48.5 c 128,-1,39
 94 63 94 63 95 112 c 0,40,41
 97 180 97 180 126 239 c 0,42,43
 144 275 144 275 175 350 c 0,44,45
 205 424 205 424 232 472 c 0,46,47
 273 545 273 545 273 554 c 0,48,49
 273 566 273 566 289 602 c 0,50,51
 314 663 314 663 332 732 c 128,-1,52
 350 801 350 801 345 822 c 0,53,54
 337 863 337 863 315 872 c 0,55,56
 307 875 307 875 302 867 c 0,57,58
 294 857 294 857 307 849 c 0,59,60
 327 835 327 835 317 797.5 c 128,-1,61
 307 760 307 760 273 719 c 0,62,63
 214 647 214 647 193.5 629.5 c 128,-1,64
 173 612 173 612 140 607 c 0,65,66
 58 591 58 591 44 687 c 0,67,68
 41 717 41 717 47 736 c 128,-1,69
 53 755 53 755 74 788 c 0,70,71
 110 840 110 840 110 855 c 0,72,73
 110 863 110 863 129 883 c 256,74,75
 148 903 148 903 171 919 c 0,76,77
 194 936 194 936 205 936 c 0,78,79
 225 937 225 937 261 959 c 0,80,81
 297 978 297 978 307 978 c 128,-1,82
 317 978 317 978 352 959 c 0,83,84
 404 926 404 926 426 839 c 128,-1,85
 448 752 448 752 417 692 c 0,86,87
 381 620 381 620 358 522 c 0,88,89
 350 484 350 484 342 477 c 0,90,91
 334 472 334 472 311.5 424.5 c 128,-1,92
 289 377 289 377 261 309 c 0,93,94
 234 243 234 243 227 224 c 0,95,96
 191 144 191 144 188.5 118.5 c 128,-1,97
 186 93 186 93 207 68 c 2,98,-1
 235 40 l 1,99,-1
 266 67 l 2,100,101
 299 91 299 91 314 91 c 0,102,103
 325 91 325 91 339 108 c 0,104,105
 353 126 353 126 414 218 c 0,106,107
 450 272 450 272 500 370.5 c 128,-1,108
 550 469 550 469 550 485 c 0,109,110
 550 499 550 499 579 540 c 128,-1,111
 608 581 608 581 608 617 c 0,112,113
 608 651 608 651 631 692 c 0,114,115
 652 729 652 729 677 781 c 0,116,117
 695 819 695 819 727 849.5 c 128,-1,118
 759 880 759 880 774 873 c 0,119,120
 783 870 783 870 802 847 c 0,121,122
 811 832 811 832 809.5 822 c 128,-1,123
 808 812 808 812 793 793 c 0,124,125
 777 771 777 771 757.5 700.5 c 128,-1,126
 738 630 738 630 723 610 c 0,127,128
 703 582 703 582 686 524 c 0,129,130
 668 465 668 465 632 306 c 0,131,132
 609 208 609 208 606 165 c 128,-1,133
 603 122 603 122 618 107 c 0,134,135
 629 94 629 94 658 92 c 1,136,137
 685 101 685 101 695 106 c 0,138,139
 779 150 779 150 827 188 c 0,0,1
201.5 777 m 128,-1,141
 227 804 227 804 227 817 c 0,142,143
 227 849 227 849 189 811 c 128,-1,144
 151 773 151 773 158 755 c 0,145,146
 161 750 161 750 166 750 c 0,147,140
 176 750 176 750 201.5 777 c 128,-1,141
741 43 m 2,148,149
 742 43 742 43 742.5 43 c 128,-1,150
 743 43 743 43 743 43 c 1,151,-1
 741 43 l 2,148,149
EndSplineSet
EndChar

StartChar: V
Encoding: 86 86 58
Width: 975
GlyphClass: 2
Flags: W
LayerCount: 2
Fore
SplineSet
191 920 m 0,0,1
 227 938 227 938 251 959 c 0,2,3
 274 981 274 981 329 976.5 c 128,-1,4
 384 972 384 972 416 944 c 0,5,6
 464 899 464 899 489.5 834.5 c 128,-1,7
 515 770 515 770 492 746 c 0,8,9
 481 731 481 731 464 649 c 0,10,11
 449 570 449 570 416 461 c 0,12,13
 382 352 382 352 365 326 c 0,14,15
 346 301 346 301 346 265.5 c 128,-1,16
 346 230 346 230 332 191 c 0,17,18
 318 150 318 150 337 107 c 128,-1,19
 356 64 356 64 384 75 c 0,20,21
 408 86 408 86 432 92 c 0,22,23
 455 96 455 96 535 181 c 128,-1,24
 615 266 615 266 627 299 c 0,25,26
 636 324 636 324 649 400 c 0,27,28
 664 503 664 503 716.5 620.5 c 128,-1,29
 769 738 769 738 813 766 c 0,30,31
 849 787 849 787 905 845 c 0,32,33
 972 912 972 912 1028 899 c 0,34,35
 1075 888 1075 888 1058 826 c 0,36,37
 1049 787 1049 787 1008 778 c 0,38,39
 963 770 963 770 903 715 c 128,-1,40
 843 660 843 660 813 602 c 0,41,42
 784 542 784 542 754 398 c 0,43,44
 740 335 740 335 731 301 c 256,45,46
 722 267 722 267 708 244 c 128,-1,47
 694 221 694 221 668 185 c 0,48,49
 608 105 608 105 597 83 c 0,50,51
 582 58 582 58 515.5 24.5 c 128,-1,52
 449 -9 449 -9 393 -16 c 0,53,54
 358 -22 358 -22 341 -17.5 c 128,-1,55
 324 -13 324 -13 298 8 c 0,56,57
 240 58 240 58 235.5 170 c 128,-1,58
 231 282 231 282 281 411 c 0,59,60
 343 568 343 568 378 733 c 0,61,62
 393 802 393 802 391.5 818 c 128,-1,63
 390 834 390 834 369 856 c 2,64,-1
 339 884 l 1,65,-1
 287 858 l 2,66,67
 233 832 233 832 193 785 c 0,68,69
 167 753 167 753 155 747.5 c 128,-1,70
 143 742 143 742 124 751 c 0,71,72
 83 774 83 774 105.5 830 c 128,-1,73
 128 886 128 886 191 920 c 0,0,1
EndSplineSet
EndChar

StartChar: W
Encoding: 87 87 59
Width: 1190
GlyphClass: 2
Flags: W
LayerCount: 2
Fore
SplineSet
877 463 m 0,0,1
 913 510 913 510 913 528 c 0,2,3
 913 537 913 537 937 573.5 c 128,-1,4
 961 610 961 610 961 620.5 c 128,-1,5
 961 631 961 631 999 672 c 0,6,7
 1036 713 1036 713 1085 756 c 0,8,9
 1135 799 1135 799 1161 814 c 0,10,11
 1214 845 1214 845 1233 838 c 128,-1,12
 1252 831 1252 831 1307 845 c 0,13,14
 1403 871 1403 871 1392 797 c 0,15,16
 1391 781 1391 781 1384 774.5 c 128,-1,17
 1377 768 1377 768 1360 762 c 128,-1,18
 1343 756 1343 756 1298 747 c 0,19,20
 1204 727 1204 727 1182 713 c 0,21,22
 1156 699 1156 699 1085 610.5 c 128,-1,23
 1014 522 1014 522 989 472 c 0,24,25
 976 445 976 445 961 408 c 0,26,27
 946 369 946 369 931 338 c 0,28,29
 917 308 917 308 895 278 c 0,30,31
 859 232 859 232 833 179 c 0,32,33
 814 138 814 138 734.5 74.5 c 128,-1,34
 655 11 655 11 622 12 c 0,35,36
 583 12 583 12 537.5 39 c 128,-1,37
 492 66 492 66 480 95 c 0,38,39
 465 133 465 133 453 140 c 128,-1,40
 441 147 441 147 362 68 c 0,41,42
 284 -13 284 -13 270 -12 c 0,43,44
 237 -11 237 -11 188.5 10.5 c 128,-1,45
 140 32 140 32 124 53 c 0,46,47
 92 95 92 95 105 209 c 128,-1,48
 118 323 118 323 159 373 c 0,49,50
 208 434 208 434 284.5 658 c 128,-1,51
 361 882 361 882 337 896 c 0,52,53
 328 901 328 901 289.5 890 c 128,-1,54
 251 879 251 879 251 872 c 0,55,56
 251 867 251 867 263 847 c 0,57,58
 279 823 279 823 253 772.5 c 128,-1,59
 227 722 227 722 182 680 c 128,-1,60
 137 638 137 638 104 638 c 128,-1,61
 71 638 71 638 58.5 668 c 128,-1,62
 46 698 46 698 46 776 c 0,63,64
 46 812 46 812 48.5 828.5 c 128,-1,65
 51 845 51 845 59 857 c 256,66,67
 67 869 67 869 85 888 c 0,68,69
 155 953 155 953 280 990 c 0,70,71
 333 1006 333 1006 357 1001.5 c 128,-1,72
 381 997 381 997 410 968 c 0,73,74
 427 947 427 947 432.5 928.5 c 128,-1,75
 438 910 438 910 436 864 c 0,76,77
 436 806 436 806 415.5 722 c 128,-1,78
 395 638 395 638 376 584 c 256,79,80
 357 530 357 530 349 515 c 0,81,82
 342 500 342 500 292 410 c 0,83,84
 255 338 255 338 243 325 c 0,85,86
 224 299 224 299 183 125 c 0,87,88
 176 97 176 97 203 83 c 0,89,90
 219 75 219 75 232.5 81 c 128,-1,91
 246 87 246 87 278 116 c 0,92,93
 345 176 345 176 394.5 245 c 128,-1,94
 444 314 444 314 504 427 c 0,95,96
 580 574 580 574 605 609 c 0,97,98
 633 648 633 648 658 711 c 0,99,100
 689 790 689 790 713 822.5 c 128,-1,101
 737 855 737 855 761 855 c 0,102,103
 795 855 795 855 806.5 836 c 128,-1,104
 818 817 818 817 802 787 c 0,105,106
 797 778 797 778 768 701 c 256,107,108
 739 624 739 624 720 609 c 0,109,110
 696 587 696 587 696 569 c 0,111,112
 696 557 696 557 672 519.5 c 128,-1,113
 648 482 648 482 648 468 c 0,114,115
 648 446 648 446 636 439 c 0,116,117
 616 427 616 427 585 328 c 128,-1,118
 554 229 554 229 554 181 c 0,119,120
 556 160 556 160 562.5 140.5 c 128,-1,121
 569 121 569 121 580.5 108 c 128,-1,122
 592 95 592 95 602 95 c 0,123,124
 610 95 610 95 628 108 c 128,-1,125
 646 121 646 121 664 137.5 c 128,-1,126
 682 154 682 154 695 171 c 128,-1,127
 708 188 708 188 708 196 c 0,128,129
 708 219 708 219 749 258 c 0,130,131
 778 284 778 284 810 333.5 c 128,-1,132
 842 383 842 383 842 403 c 0,133,134
 842 415 842 415 877 463 c 0,0,1
EndSplineSet
EndChar

StartChar: X
Encoding: 88 88 60
Width: 1231
GlyphClass: 2
Flags: W
LayerCount: 2
Fore
SplineSet
1250 257 m 0,0,1
 1273 276 1273 276 1291 272.5 c 128,-1,2
 1309 269 1309 269 1309 238 c 0,3,4
 1309 232 1309 232 1307.5 225.5 c 128,-1,5
 1306 219 1306 219 1302.5 213 c 128,-1,6
 1299 207 1299 207 1295 202 c 128,-1,7
 1291 197 1291 197 1285 191.5 c 128,-1,8
 1279 186 1279 186 1274 181.5 c 128,-1,9
 1269 177 1269 177 1262 172.5 c 128,-1,10
 1255 168 1255 168 1250 164.5 c 128,-1,11
 1245 161 1245 161 1238.5 157 c 128,-1,12
 1232 153 1232 153 1229 150 c 0,13,14
 1203 133 1203 133 1176 121 c 0,15,16
 1172 120 1172 120 1148.5 107 c 128,-1,17
 1125 94 1125 94 1108 86 c 1,18,19
 1089 71 1089 71 1061 59 c 0,20,21
 1002 35 1002 35 942 37 c 128,-1,22
 882 39 882 39 823 62 c 0,23,24
 771 82 771 82 705 146 c 0,25,26
 652 199 652 199 632 199 c 0,27,28
 598 199 598 199 541.5 157 c 128,-1,29
 485 115 485 115 432 49 c 0,30,31
 354 -45 354 -45 337 -45 c 0,32,33
 313 -45 313 -45 295 -18 c 128,-1,34
 277 9 277 9 284 31 c 0,35,36
 290 56 290 56 352 120 c 0,37,38
 472 244 472 244 565 381 c 0,39,40
 601 438 601 438 606.5 458 c 128,-1,41
 612 478 612 478 607 549 c 0,42,43
 601 627 601 627 571 699 c 128,-1,44
 541 771 541 771 503 797 c 0,45,46
 423 849 423 849 302 722 c 0,47,48
 231 649 231 649 197 649 c 0,49,50
 127 649 127 649 168 727 c 0,51,52
 180 753 180 753 240 806 c 128,-1,53
 300 859 300 859 372 895 c 0,54,55
 423 920 423 920 447.5 925.5 c 128,-1,56
 472 931 472 931 521 926 c 0,57,58
 600 917 600 917 614 910 c 0,59,60
 647 899 647 899 689 788.5 c 128,-1,61
 731 678 731 678 733 603 c 0,62,63
 733 578 733 578 740 571 c 0,64,65
 745 565 745 565 838 664.5 c 128,-1,66
 931 764 931 764 931 776.5 c 128,-1,67
 931 789 931 789 982 844 c 0,68,69
 1030 897 1030 897 1046 928 c 0,70,71
 1059 951 1059 951 1066 954 c 128,-1,72
 1073 957 1073 957 1101 944 c 0,73,74
 1124 930 1124 930 1123.5 898 c 128,-1,75
 1123 866 1123 866 1095 831 c 0,76,77
 1066 795 1066 795 1048 758 c 0,78,79
 1031 727 1031 727 884 576 c 1,80,-1
 736 432 l 1,81,-1
 744 379 l 2,82,83
 764 235 764 235 813 202 c 0,84,85
 838 184 838 184 875 151 c 0,86,87
 897 128 897 128 936.5 125.5 c 128,-1,88
 976 123 976 123 1018 136.5 c 128,-1,89
 1060 150 1060 150 1082.5 159 c 128,-1,90
 1105 168 1105 168 1118 175 c 0,91,92
 1201 218 1201 218 1250 257 c 0,0,1
EndSplineSet
EndChar

StartChar: Y
Encoding: 89 89 61
Width: 710
GlyphClass: 2
Flags: W
LayerCount: 2
Fore
SplineSet
823 953 m 0,0,1
 843 937 843 937 844 889 c 128,-1,2
 845 841 845 841 825 812 c 0,3,4
 806 785 806 785 806 763 c 128,-1,5
 806 741 806 741 776 687 c 0,6,7
 764 665 764 665 757 650 c 0,8,9
 751 635 751 635 754 635 c 0,10,11
 762 635 762 635 744 617 c 0,12,13
 729 597 729 597 696 527.5 c 128,-1,14
 663 458 663 458 663 443 c 128,-1,15
 663 428 663 428 623 367 c 0,16,17
 580 303 580 303 580 296.5 c 128,-1,18
 580 290 580 290 559 261 c 0,19,20
 535 231 535 231 515 171 c 0,21,22
 514 169 514 169 511.5 162 c 128,-1,23
 509 155 509 155 508 152 c 128,-1,24
 507 149 507 149 505 142.5 c 128,-1,25
 503 136 503 136 503 131.5 c 128,-1,26
 503 127 503 127 502.5 121.5 c 128,-1,27
 502 116 502 116 503 111.5 c 128,-1,28
 504 107 504 107 507 103 c 1,29,30
 523 109 523 109 586 122 c 0,31,32
 594 123 594 123 617 133.5 c 128,-1,33
 640 144 640 144 651 147 c 0,34,35
 694 172 694 172 721 193 c 0,36,37
 743 212 743 212 759 208.5 c 128,-1,38
 775 205 775 205 776 177 c 0,39,40
 776 170 776 170 773.5 163.5 c 128,-1,41
 771 157 771 157 768 151.5 c 128,-1,42
 765 146 765 146 759 139.5 c 128,-1,43
 753 133 753 133 748 129 c 128,-1,44
 743 125 743 125 736 119.5 c 128,-1,45
 729 114 729 114 724 110.5 c 128,-1,46
 719 107 719 107 712 102.5 c 128,-1,47
 705 98 705 98 701 95 c 0,48,49
 677 79 677 79 652 69 c 0,50,51
 648 67 648 67 632 58 c 128,-1,52
 616 49 616 49 605 43 c 0,53,54
 577 14 577 14 557 -10 c 0,55,56
 493 -87 493 -87 477 -87 c 128,-1,57
 461 -87 461 -87 461 -99 c 0,58,59
 461 -109 461 -109 375 -199 c 0,60,61
 282 -294 282 -294 269 -315 c 0,62,63
 249 -347 249 -347 201.5 -355.5 c 128,-1,64
 154 -364 154 -364 122 -343 c 0,65,66
 104 -332 104 -332 100.5 -321 c 128,-1,67
 97 -310 97 -310 104.5 -287 c 128,-1,68
 112 -264 112 -264 114 -254 c 0,69,70
 121 -224 121 -224 190 -156 c 0,71,72
 260 -91 260 -91 260 -74 c 0,73,74
 260 -59 260 -59 289 14 c 0,75,76
 313 71 313 71 311 87 c 128,-1,77
 309 103 309 103 279 103 c 0,78,79
 254 103 254 103 218 138 c 0,80,81
 195 163 195 163 189 183.5 c 128,-1,82
 183 204 183 204 183 271 c 0,83,84
 183 369 183 369 208 423 c 0,85,86
 227 462 227 462 249 536 c 128,-1,87
 271 610 271 610 281 665 c 0,88,89
 286 697 286 697 297 714 c 0,90,91
 308 728 308 728 313 778.5 c 128,-1,92
 318 829 318 829 324.5 835.5 c 128,-1,93
 331 842 331 842 319 856 c 0,94,95
 308 871 308 871 277 856 c 0,96,97
 252 846 252 846 250.5 831.5 c 128,-1,98
 249 817 249 817 271 797 c 0,99,100
 311 760 311 760 247 665 c 0,101,102
 210 610 210 610 189 598 c 128,-1,103
 168 586 168 586 121 593 c 0,104,105
 67 600 67 600 53 612 c 0,106,107
 38 628 38 628 45.5 687 c 128,-1,108
 53 746 53 746 77 782 c 0,109,110
 111 832 111 832 175 894.5 c 128,-1,111
 239 957 239 957 257 957 c 0,112,113
 277 957 277 957 296 969 c 0,114,115
 313 980 313 980 323 978.5 c 128,-1,116
 333 977 333 977 365 960 c 0,117,118
 404 942 404 942 420.5 913 c 128,-1,119
 437 884 437 884 442 824 c 0,120,121
 447 783 447 783 442 750.5 c 128,-1,122
 437 718 437 718 414 647 c 0,123,124
 375 531 375 531 367 512 c 0,125,126
 358 494 358 494 345 454 c 0,127,128
 333 415 333 415 320 372 c 0,129,130
 308 331 308 331 301 312 c 0,131,132
 284 266 284 266 285 249.5 c 128,-1,133
 286 233 286 233 309 219 c 0,134,135
 324 212 324 212 333.5 214 c 128,-1,136
 343 216 343 216 360 231 c 0,137,138
 379 250 379 250 429 295 c 0,139,140
 474 337 474 337 474 354 c 128,-1,141
 474 371 474 371 496 391 c 128,-1,142
 518 411 518 411 527 458 c 0,143,144
 535 504 535 504 552 519 c 0,145,146
 569 531 569 531 569 548 c 0,147,148
 569 561 569 561 585 569 c 0,149,150
 604 576 604 576 604 605 c 0,151,152
 604 635 604 635 616 642 c 128,-1,153
 628 649 628 649 628 708 c 0,154,155
 628 743 628 743 636 764 c 128,-1,156
 644 785 644 785 675 820 c 0,157,158
 722 879 722 879 722 899 c 0,159,160
 722 913 722 913 750.5 941 c 128,-1,161
 779 969 779 969 793 969 c 0,162,163
 799 969 799 969 823 953 c 0,0,1
227.5 794.5 m 128,-1,165
 237 807 237 807 237 817 c 0,166,167
 237 825 237 825 225 825 c 128,-1,168
 213 825 213 825 200.5 801 c 128,-1,169
 188 777 188 777 195 768 c 0,170,171
 198 765 198 765 208 773.5 c 128,-1,164
 218 782 218 782 227.5 794.5 c 128,-1,165
EndSplineSet
EndChar

StartChar: Z
Encoding: 90 90 62
Width: 866
GlyphClass: 2
Flags: W
LayerCount: 2
Fore
SplineSet
299 982 m 0,0,1
 375 1019 375 1019 439 1037 c 0,2,3
 503 1054 503 1054 510 1051 c 0,4,5
 599 1014 599 1014 621 985 c 128,-1,6
 643 956 643 956 643 881 c 0,7,8
 643 796 643 796 619 743 c 2,9,-1
 596 689 l 1,10,-1
 645 660 l 2,11,12
 670 645 670 645 684.5 630 c 128,-1,13
 699 615 699 615 707 591 c 128,-1,14
 715 567 715 567 715 535 c 0,15,16
 714 502 714 502 710 456 c 0,17,18
 704 367 704 367 670 291 c 0,19,20
 638 224 638 224 650 212 c 0,21,22
 658 204 658 204 705 217.5 c 128,-1,23
 752 231 752 231 783 251 c 0,24,25
 813 269 813 269 857 284 c 0,26,27
 884 295 884 295 895.5 295 c 128,-1,28
 907 295 907 295 918 286 c 0,29,30
 938 269 938 269 938 256 c 0,31,32
 938 236 938 236 891 199.5 c 128,-1,33
 844 163 844 163 795 148 c 0,34,35
 731 126 731 126 710 111 c 1,36,37
 694 94 694 94 683 94 c 0,38,39
 675 94 675 94 613 67 c 0,40,41
 572 49 572 49 555.5 33 c 128,-1,42
 539 17 539 17 523 -19 c 0,43,44
 495 -78 495 -78 429 -140 c 0,45,46
 357 -211 357 -211 257.5 -283 c 128,-1,47
 158 -355 158 -355 134 -355 c 0,48,49
 109 -355 109 -355 72 -312 c 0,50,51
 40 -273 40 -273 43.5 -239.5 c 128,-1,52
 47 -206 47 -206 87 -142 c 0,53,54
 116 -94 116 -94 186 -41 c 128,-1,55
 256 12 256 12 289 12 c 0,56,57
 299 12 299 12 363 42 c 0,58,59
 392 57 392 57 407 69 c 256,60,61
 422 81 422 81 435 98 c 0,62,63
 447 116 447 116 466 151 c 0,64,65
 515 247 515 247 543 336.5 c 128,-1,66
 571 426 571 426 566 471 c 0,67,68
 559 525 559 525 550 534 c 0,69,70
 539 546 539 546 478 500.5 c 128,-1,71
 417 455 417 455 362 391 c 0,72,73
 291 308 291 308 250.5 290.5 c 128,-1,74
 210 273 210 273 185 311 c 0,75,76
 165 343 165 343 183.5 403 c 128,-1,77
 202 463 202 463 246 503 c 0,78,79
 293 546 293 546 305 546 c 0,80,81
 313 546 313 546 352.5 600.5 c 128,-1,82
 392 655 392 655 430 720.5 c 128,-1,83
 468 786 468 786 475 812 c 0,84,85
 502 904 502 904 459 929 c 0,86,87
 448 938 448 938 423.5 931 c 128,-1,88
 399 924 399 924 373 909 c 128,-1,89
 347 894 347 894 319 871.5 c 128,-1,90
 291 849 291 849 276 827 c 0,91,92
 242 780 242 780 211 761.5 c 128,-1,93
 180 743 180 743 160 759 c 0,94,95
 124 790 124 790 177 860 c 0,96,97
 209 904 209 904 217 926 c 0,98,99
 224 945 224 945 299 982 c 0,0,1
EndSplineSet
EndChar

StartChar: bracketleft
Encoding: 91 91 63
Width: 548
GlyphClass: 2
Flags: W
LayerCount: 2
Fore
SplineSet
329 30 m 0,0,1
 287 24 287 24 43 0 c 1,2,3
 46 29 46 29 49.5 77.5 c 128,-1,4
 53 126 53 126 56.5 160 c 128,-1,5
 60 194 60 194 66 225 c 0,6,7
 105 426 105 426 163 673 c 0,8,9
 169 698 169 698 169.5 718 c 128,-1,10
 170 738 170 738 158 755.5 c 128,-1,11
 146 773 146 773 119 784 c 1,12,13
 245 838 245 838 344 838 c 128,-1,14
 443 838 443 838 505 784 c 1,15,16
 476 777 476 777 442 776.5 c 128,-1,17
 408 776 408 776 379 778 c 128,-1,18
 350 780 350 780 317.5 771.5 c 128,-1,19
 285 763 285 763 260 741 c 1,20,21
 171 415 171 415 123 103 c 1,22,23
 298 103 298 103 324 102 c 0,24,25
 331 102 331 102 338 97.5 c 128,-1,26
 345 93 345 93 354.5 85.5 c 128,-1,27
 364 78 364 78 368 76 c 1,28,29
 364 71 364 71 356.5 58.5 c 128,-1,30
 349 46 349 46 342.5 38.5 c 128,-1,31
 336 31 336 31 329 30 c 0,0,1
EndSplineSet
EndChar

StartChar: backslash
Encoding: 92 92 64
Width: 728
GlyphClass: 2
Flags: W
LayerCount: 2
Fore
SplineSet
675 -23 m 0,0,1
 687 -58 687 -58 685.5 -69.5 c 128,-1,2
 684 -81 684 -81 670 -99 c 0,3,4
 644 -132 644 -132 625 -123.5 c 128,-1,5
 606 -115 606 -115 599 -69 c 0,6,7
 590 -21 590 -21 548 67 c 0,8,9
 505 155 505 155 450 237 c 0,10,11
 407 301 407 301 344 407 c 0,12,13
 283 513 283 513 283 523 c 0,14,15
 283 530 283 530 226 635 c 0,16,17
 181 715 181 715 157 764 c 0,18,19
 141 792 141 792 123 808 c 0,20,21
 103 826 103 826 103 839 c 0,22,23
 103 846 103 846 73 888.5 c 128,-1,24
 43 931 43 931 43 939 c 0,25,26
 43 952 43 952 73 968 c 0,27,28
 103 983 103 983 127 983 c 0,29,30
 144 983 144 983 153 972.5 c 128,-1,31
 162 962 162 962 178 928 c 0,32,33
 196 886 196 886 213 876 c 128,-1,34
 230 866 230 866 251 886 c 0,35,36
 257 891 257 891 258.5 891 c 128,-1,37
 260 891 260 891 253 870 c 0,38,39
 242 840 242 840 244 825 c 128,-1,40
 246 810 246 810 267 779 c 0,41,42
 293 744 293 744 293 713 c 0,43,44
 293 699 293 699 302 672 c 0,45,46
 312 646 312 646 339 594 c 0,47,48
 369 538 369 538 424 434 c 0,49,50
 441 400 441 400 521 279 c 0,51,52
 643 93 643 93 675 -23 c 0,0,1
EndSplineSet
EndChar

StartChar: bracketright
Encoding: 93 93 65
Width: 544
GlyphClass: 2
Flags: W
LayerCount: 2
Fore
SplineSet
123 0 m 0,0,1
 106 1 106 1 93.5 3 c 128,-1,2
 81 5 81 5 67 12 c 128,-1,3
 53 19 53 19 47 34.5 c 128,-1,4
 41 50 41 50 44 73 c 1,5,6
 71 73 71 73 72 73 c 0,7,8
 108 68 108 68 131 66 c 128,-1,9
 154 64 154 64 177 64 c 128,-1,10
 200 64 200 64 213 67 c 128,-1,11
 226 70 226 70 239.5 78.5 c 128,-1,12
 253 87 253 87 260 98 c 128,-1,13
 267 109 267 109 275.5 129 c 128,-1,14
 284 149 284 149 289 170.5 c 128,-1,15
 294 192 294 192 301 226 c 0,16,17
 318 306 318 306 333 390 c 128,-1,18
 348 474 348 474 369.5 598.5 c 128,-1,19
 391 723 391 723 398 763 c 0,20,21
 399 770 399 770 398.5 772.5 c 128,-1,22
 398 775 398 775 396.5 782 c 128,-1,23
 395 789 395 789 395 793 c 0,24,25
 377 801 377 801 353 801 c 128,-1,26
 329 801 329 801 306.5 798.5 c 128,-1,27
 284 796 284 796 260.5 796 c 128,-1,28
 237 796 237 796 213 807 c 128,-1,29
 189 818 189 818 168 842 c 1,30,31
 204 845 204 845 253 854 c 128,-1,32
 302 863 302 863 334 869 c 128,-1,33
 366 875 366 875 415.5 878.5 c 128,-1,34
 465 882 465 882 501 874 c 1,35,36
 452 588 452 588 447 560 c 0,37,38
 441 525 441 525 433 483 c 128,-1,39
 425 441 425 441 416 395.5 c 128,-1,40
 407 350 407 350 401 318 c 0,41,42
 387 243 387 243 380 195 c 0,43,44
 379 186 379 186 362 31 c 1,45,46
 362 31 362 31 361 30 c 128,-1,47
 360 29 360 29 358 27.5 c 128,-1,48
 356 26 356 26 353.5 24.5 c 128,-1,49
 351 23 351 23 347.5 21 c 128,-1,50
 344 19 344 19 340.5 17.5 c 128,-1,51
 337 16 337 16 332.5 15 c 128,-1,52
 328 14 328 14 324 13 c 0,53,54
 194 -1 194 -1 123 0 c 0,0,1
EndSplineSet
EndChar

StartChar: asciicircum
Encoding: 94 94 66
Width: 551
GlyphClass: 2
Flags: W
LayerCount: 2
Fore
SplineSet
426 729 m 0,0,1
 410 751 410 751 395 775 c 128,-1,2
 380 799 380 799 355 841 c 128,-1,3
 330 883 330 883 317 904 c 1,4,5
 214 728 214 728 206 715 c 0,6,7
 191 688 191 688 130.5 680 c 128,-1,8
 70 672 70 672 51 695 c 0,9,10
 44 705 44 705 43.5 724 c 128,-1,11
 43 743 43 743 49 755 c 0,12,13
 52 760 52 760 56 765.5 c 128,-1,14
 60 771 60 771 63 775 c 128,-1,15
 66 779 66 779 72.5 784.5 c 128,-1,16
 79 790 79 790 82 792.5 c 128,-1,17
 85 795 85 795 92.5 801 c 128,-1,18
 100 807 100 807 102 809 c 0,19,20
 208 896 208 896 253 1036 c 0,21,22
 258 1053 258 1053 272 1069 c 128,-1,23
 286 1085 286 1085 297 1086 c 0,24,25
 310 1087 310 1087 327 1074 c 128,-1,26
 344 1061 344 1061 353 1047 c 0,27,28
 393 975 393 975 501 769 c 0,29,30
 512 749 512 749 506 731 c 128,-1,31
 500 713 500 713 479 707 c 0,32,33
 468 704 468 704 450.5 711 c 128,-1,34
 433 718 433 718 426 729 c 0,0,1
EndSplineSet
EndChar

StartChar: underscore
Encoding: 95 95 67
Width: 793
GlyphClass: 2
Flags: W
LayerCount: 2
Fore
SplineSet
414 -38 m 0,0,1
 435 -37 435 -37 569.5 -33 c 128,-1,2
 704 -29 704 -29 750 -27 c 1,3,4
 744 -53 744 -53 731.5 -68.5 c 128,-1,5
 719 -84 719 -84 705 -89 c 128,-1,6
 691 -94 691 -94 671 -95 c 0,7,8
 620 -98 620 -98 507 -100.5 c 128,-1,9
 394 -103 394 -103 265 -105.5 c 128,-1,10
 136 -108 136 -108 101 -109 c 0,11,12
 93 -109 93 -109 83.5 -106 c 128,-1,13
 74 -103 74 -103 62 -97.5 c 128,-1,14
 50 -92 50 -92 43 -89 c 1,15,16
 47 -79 47 -79 52 -71 c 128,-1,17
 57 -63 57 -63 64 -58 c 128,-1,18
 71 -53 71 -53 76 -50 c 128,-1,19
 81 -47 81 -47 90.5 -45.5 c 128,-1,20
 100 -44 100 -44 104 -43.5 c 128,-1,21
 108 -43 108 -43 119 -43 c 128,-1,22
 130 -43 130 -43 133 -43 c 0,23,24
 162 -42 162 -42 273 -40.5 c 128,-1,25
 384 -39 384 -39 414 -38 c 0,0,1
EndSplineSet
EndChar

StartChar: grave
Encoding: 96 96 68
Width: 337
GlyphClass: 2
Flags: W
LayerCount: 2
Fore
SplineSet
231 973 m 1,0,-1
 294 817 l 1,1,2
 292 799 292 799 276 791 c 128,-1,3
 260 783 260 783 246 785 c 2,4,-1
 231 787 l 2,5,6
 218 788 218 788 204 795 c 128,-1,7
 190 802 190 802 178.5 812.5 c 128,-1,8
 167 823 167 823 156 836 c 128,-1,9
 145 849 145 849 136.5 861.5 c 128,-1,10
 128 874 128 874 121.5 884.5 c 128,-1,11
 115 895 115 895 112 901 c 2,12,-1
 109 908 l 1,13,-1
 58 948 l 1,14,15
 40 968 40 968 44 982 c 128,-1,16
 48 996 48 996 62 1003 c 2,17,-1
 76 1010 l 2,18,19
 101 1019 101 1019 122.5 1021 c 128,-1,20
 144 1023 144 1023 159.5 1020.5 c 128,-1,21
 175 1018 175 1018 187.5 1012.5 c 128,-1,22
 200 1007 200 1007 208 1000 c 128,-1,23
 216 993 216 993 221.5 987 c 128,-1,24
 227 981 227 981 229 977 c 2,25,-1
 231 973 l 1,0,-1
EndSplineSet
EndChar

StartChar: a
Encoding: 97 97 69
Width: 625
GlyphClass: 2
Flags: W
LayerCount: 2
Fore
SplineSet
640 122 m 0,0,1
 659 137 659 137 672.5 134.5 c 128,-1,2
 686 132 686 132 686 108 c 0,3,4
 686 103 686 103 684 97.5 c 128,-1,5
 682 92 682 92 679.5 87.5 c 128,-1,6
 677 83 677 83 672 78 c 128,-1,7
 667 73 667 73 663 69 c 128,-1,8
 659 65 659 65 653 60.5 c 128,-1,9
 647 56 647 56 643 53.5 c 128,-1,10
 639 51 639 51 633 47 c 128,-1,11
 627 43 627 43 624 41 c 0,12,13
 605 28 605 28 584 19 c 0,14,15
 582 18 582 18 560 7 c 1,16,-1
 555 1 l 1,17,18
 528 -25 528 -25 477 -31 c 0,19,20
 445 -35 445 -35 427.5 -31.5 c 128,-1,21
 410 -28 410 -28 379 -14 c 0,22,23
 333 8 333 8 318 22 c 0,24,25
 308 30 308 30 301 29 c 128,-1,26
 294 28 294 28 275 13 c 0,27,28
 214 -31 214 -31 129.5 -36.5 c 128,-1,29
 45 -42 45 -42 19 -3 c 0,30,31
 3 22 3 22 4.5 94 c 128,-1,32
 6 166 6 166 23 197 c 0,33,34
 38 224 38 224 46 237 c 0,35,36
 55 250 55 250 63 261 c 0,37,38
 71 273 71 273 90 296 c 0,39,40
 153 374 153 374 189 403 c 0,41,42
 217 425 217 425 255 440.5 c 128,-1,43
 293 456 293 456 334.5 461 c 128,-1,44
 376 466 376 466 408 450 c 0,45,46
 447 430 447 430 456 381.5 c 128,-1,47
 465 333 465 333 454 287.5 c 128,-1,48
 443 242 443 242 423 202 c 0,49,50
 406 164 406 164 397.5 119 c 128,-1,51
 389 74 389 74 398 60 c 0,52,53
 417 22 417 22 523 55 c 0,54,55
 527 56 527 56 531 56 c 0,56,57
 537 58 537 58 540 60 c 0,58,59
 604 93 604 93 640 122 c 0,0,1
338 310 m 0,60,61
 349 316 349 316 350 320 c 128,-1,62
 351 324 351 324 345 330 c 0,63,64
 333 343 333 343 311 347 c 128,-1,65
 289 351 289 351 268 345 c 0,66,67
 247 340 247 340 204.5 305 c 128,-1,68
 162 270 162 270 147 245 c 0,69,70
 127 216 127 216 113 193 c 0,71,72
 96 169 96 169 90 123 c 128,-1,73
 84 77 84 77 95 63 c 0,74,75
 105 51 105 51 139 51 c 128,-1,76
 173 51 173 51 203 62 c 0,77,78
 232 76 232 76 246 104 c 0,79,80
 270 151 270 151 285 180 c 0,81,82
 311 225 311 225 311 241 c 0,83,84
 311 251 311 251 319.5 261.5 c 128,-1,85
 328 272 328 272 324 284 c 0,86,87
 319 300 319 300 338 310 c 0,60,61
EndSplineSet
EndChar

StartChar: b
Encoding: 98 98 70
Width: 564
GlyphClass: 2
Flags: W
LayerCount: 2
Fore
SplineSet
628 194 m 0,0,1
 629 188 629 188 629 171 c 0,2,3
 629 133 629 133 596.5 121 c 128,-1,4
 564 109 564 109 477 114 c 2,5,-1
 380 119 l 1,6,-1
 348 58 l 2,7,8
 316 -4 316 -4 277 -32.5 c 128,-1,9
 238 -61 238 -61 173 -72 c 0,10,11
 105 -83 105 -83 63 -67 c 0,12,13
 30 -54 30 -54 6.5 -28 c 128,-1,14
 -17 -2 -17 -2 -27 29.5 c 128,-1,15
 -37 61 -37 61 -40 97 c 128,-1,16
 -43 133 -43 133 -36 166 c 0,17,18
 -27 222 -27 222 0 327.5 c 128,-1,19
 27 433 27 433 37 482 c 0,20,21
 52 567 52 567 73 613 c 0,22,23
 102 679 102 679 119 715 c 0,24,25
 135 749 135 749 159 795 c 0,26,27
 172 820 172 820 190 869 c 0,28,29
 202 901 202 901 209.5 917 c 128,-1,30
 217 933 217 933 231 957.5 c 128,-1,31
 245 982 245 982 264.5 998.5 c 128,-1,32
 284 1015 284 1015 310 1028 c 0,33,34
 338 1042 338 1042 365.5 1042.5 c 128,-1,35
 393 1043 393 1043 416 1024 c 0,36,37
 440 999 440 999 443 954 c 128,-1,38
 446 909 446 909 437.5 872.5 c 128,-1,39
 429 836 429 836 415 800 c 0,40,41
 375 700 375 700 362 652 c 0,42,43
 351 609 351 609 334 579 c 0,44,45
 256 441 256 441 253 435 c 0,46,47
 211 360 211 360 141 266 c 0,48,49
 103 214 103 214 92 145.5 c 128,-1,50
 81 77 81 77 110 65 c 0,51,52
 111 63 111 63 120 59 c 128,-1,53
 129 55 129 55 137 51 c 0,54,55
 146 47 146 47 153 42 c 0,56,57
 168 34 168 34 178.5 35 c 128,-1,58
 189 36 189 36 207 47 c 0,59,60
 226 61 226 61 257.5 121.5 c 128,-1,61
 289 182 289 182 289 209 c 0,62,63
 289 233 289 233 309 255 c 128,-1,64
 329 277 329 277 351 277 c 0,65,66
 378 277 378 277 421 231 c 0,67,68
 443 209 443 209 459 200.5 c 128,-1,69
 475 192 475 192 484.5 192 c 128,-1,70
 494 192 494 192 522 196 c 0,71,72
 549 200 549 200 574 201 c 0,73,74
 601 204 601 204 613.5 202 c 128,-1,75
 626 200 626 200 628 194 c 0,0,1
127 465.5 m 128,-1,77
 121 428 121 428 130 422 c 1,78,79
 140 422 140 422 164 476 c 0,80,81
 176 500 176 500 217.5 583.5 c 128,-1,82
 259 667 259 667 272 697 c 0,83,84
 311 792 311 792 311 803 c 0,85,86
 311 835 311 835 256 775 c 0,87,88
 221 733 221 733 221 721 c 0,89,90
 221 702 221 702 194 656 c 0,91,92
 173 619 173 619 153 561 c 128,-1,76
 133 503 133 503 127 465.5 c 128,-1,77
EndSplineSet
EndChar

StartChar: c
Encoding: 99 99 71
Width: 548
GlyphClass: 2
Flags: W
LayerCount: 2
Fore
SplineSet
539 123 m 0,0,1
 561 141 561 141 577 138 c 128,-1,2
 593 135 593 135 594 106 c 0,3,4
 594 99 594 99 591.5 91.5 c 128,-1,5
 589 84 589 84 583.5 77 c 128,-1,6
 578 70 578 70 573 64.5 c 128,-1,7
 568 59 568 59 559.5 52.5 c 128,-1,8
 551 46 551 46 545.5 42.5 c 128,-1,9
 540 39 540 39 531 33 c 128,-1,10
 522 27 522 27 519 25 c 0,11,12
 495 9 495 9 470 -2 c 0,13,14
 454 -9 454 -9 416 -21.5 c 128,-1,15
 378 -34 378 -34 319 -49.5 c 128,-1,16
 260 -65 260 -65 204 -61.5 c 128,-1,17
 148 -58 148 -58 120 -30 c 0,18,19
 109 -19 109 -19 95 2 c 128,-1,20
 81 23 81 23 70.5 43 c 128,-1,21
 60 63 60 63 55 76 c 0,22,23
 42 111 42 111 43 173 c 0,24,25
 52 362 52 362 205 497 c 0,26,27
 241 527 241 527 258 533.5 c 128,-1,28
 275 540 275 540 322 540 c 0,29,30
 408 540 408 540 453.5 502 c 128,-1,31
 499 464 499 464 488 402 c 0,32,33
 481 371 481 371 474.5 363.5 c 128,-1,34
 468 356 468 356 445 353 c 0,35,36
 414 350 414 350 386.5 365.5 c 128,-1,37
 359 381 359 381 365 399 c 0,38,39
 371 414 371 414 358.5 429.5 c 128,-1,40
 346 445 346 445 328 445 c 0,41,42
 295 445 295 445 227.5 375.5 c 128,-1,43
 160 306 160 306 160 271 c 0,44,45
 160 258 160 258 146 233 c 0,46,47
 131 211 131 211 132 157 c 0,48,49
 134 104 134 104 149 82 c 0,50,51
 173 46 173 46 229.5 32.5 c 128,-1,52
 286 19 286 19 333 28 c 0,53,54
 358 32 358 32 387 44 c 0,55,56
 440 65 440 65 484 99 c 0,57,58
 518 124 518 124 531 118 c 0,59,60
 532 118 532 118 534.5 120 c 128,-1,61
 537 122 537 122 539 123 c 0,0,1
EndSplineSet
EndChar

StartChar: d
Encoding: 100 100 72
Width: 741
GlyphClass: 2
Flags: W
LayerCount: 2
Fore
SplineSet
741 153 m 0,0,1
 763 172 763 172 779.5 168.5 c 128,-1,2
 796 165 796 165 796 137 c 0,3,4
 797 128 797 128 792.5 119 c 128,-1,5
 788 110 788 110 783 103.5 c 128,-1,6
 778 97 778 97 768.5 88.5 c 128,-1,7
 759 80 759 80 753 76 c 128,-1,8
 747 72 747 72 735.5 64.5 c 128,-1,9
 724 57 724 57 722 55 c 0,10,11
 698 39 698 39 673 29 c 0,12,13
 669 27 669 27 659 21 c 128,-1,14
 649 15 649 15 644 13 c 0,15,16
 611 0 611 0 595 -2 c 0,17,18
 510 -13 510 -13 479 -6 c 128,-1,19
 448 1 448 1 409 36 c 0,20,21
 385 60 385 60 375 80 c 128,-1,22
 365 100 365 100 359 134 c 0,23,24
 347 189 347 189 335 190 c 0,25,26
 326 190 326 190 314 170 c 0,27,28
 298 141 298 141 257 96 c 128,-1,29
 216 51 216 51 190 33 c 0,30,31
 172 21 172 21 149.5 13.5 c 128,-1,32
 127 6 127 6 101 3 c 0,33,34
 65 0 65 0 53 2.5 c 128,-1,35
 41 5 41 5 31 21 c 0,36,37
 0 70 0 70 9.5 167.5 c 128,-1,38
 19 265 19 265 63 333 c 0,39,40
 89 371 89 371 134 413.5 c 128,-1,41
 179 456 179 456 230 484 c 0,42,43
 262 503 262 503 341 503 c 0,44,45
 366 504 366 504 383 510.5 c 128,-1,46
 400 517 400 517 411 530.5 c 128,-1,47
 422 544 422 544 428.5 557.5 c 128,-1,48
 435 571 435 571 445.5 593.5 c 128,-1,49
 456 616 456 616 466 632 c 0,50,51
 620 875 620 875 632 893 c 0,52,53
 635 899 635 899 644 914 c 0,54,55
 707 1021 707 1021 737 1030 c 0,56,57
 763 1038 763 1038 774 993 c 0,58,59
 786 948 786 948 764 887 c 128,-1,60
 742 826 742 826 710.5 778.5 c 128,-1,61
 679 731 679 731 635 669.5 c 128,-1,62
 591 608 591 608 577 582 c 0,63,64
 565 562 565 562 550.5 521.5 c 128,-1,65
 536 481 536 481 530 467 c 0,66,67
 443 278 443 278 460 149 c 0,68,69
 466 101 466 101 484.5 80.5 c 128,-1,70
 503 60 503 60 538 60 c 0,71,72
 563 60 563 60 602 71 c 0,73,74
 617 76 617 76 620 78 c 0,75,76
 697 118 697 118 741 153 c 0,0,1
221 193 m 0,77,78
 363 373 363 373 359 402 c 0,79,80
 354 423 354 423 320.5 422.5 c 128,-1,81
 287 422 287 422 256 400 c 0,82,83
 218 374 218 374 172.5 323 c 128,-1,84
 127 272 127 272 114 241 c 0,85,86
 99 208 99 208 99 159 c 0,87,88
 99 98 99 98 123 101 c 0,89,90
 151 104 151 104 221 193 c 0,77,78
EndSplineSet
EndChar

StartChar: e
Encoding: 101 101 73
Width: 451
GlyphClass: 2
Flags: W
LayerCount: 2
Fore
SplineSet
470 112 m 0,0,1
 492 130 492 130 508.5 126.5 c 128,-1,2
 525 123 525 123 525 95 c 0,3,4
 526 86 526 86 521.5 77 c 128,-1,5
 517 68 517 68 512 61.5 c 128,-1,6
 507 55 507 55 497.5 47 c 128,-1,7
 488 39 488 39 482 35 c 128,-1,8
 476 31 476 31 464.5 23.5 c 128,-1,9
 453 16 453 16 451 14 c 0,10,11
 427 -2 427 -2 402 -13 c 0,12,13
 400 -14 400 -14 396.5 -15.5 c 128,-1,14
 393 -17 393 -17 389 -18.5 c 128,-1,15
 385 -20 385 -20 381 -21.5 c 128,-1,16
 377 -23 377 -23 374.5 -24 c 128,-1,17
 372 -25 372 -25 372 -25 c 2,18,19
 311 -50 311 -50 241 -54 c 0,20,21
 169 -58 169 -58 136 -41 c 0,22,23
 132 -39 132 -39 104 -27 c 128,-1,24
 76 -15 76 -15 64 -6 c 0,25,26
 41 9 41 9 20 59 c 0,27,28
 -19 149 -19 149 -19 218 c 0,29,30
 -19 260 -19 260 -4 328 c 0,31,32
 -3 332 -3 332 -0.5 345 c 128,-1,33
 2 358 2 358 4 364.5 c 128,-1,34
 6 371 6 371 9 382.5 c 128,-1,35
 12 394 12 394 15 402 c 128,-1,36
 18 410 18 410 22 418.5 c 128,-1,37
 26 427 26 427 30 434 c 0,38,39
 51 463 51 463 64 476 c 0,40,41
 118 532 118 532 201 526 c 0,42,43
 287 519 287 519 294 469 c 0,44,45
 300 430 300 430 289.5 388.5 c 128,-1,46
 279 347 279 347 263.5 320 c 128,-1,47
 248 293 248 293 220.5 250 c 128,-1,48
 193 207 193 207 181 184 c 0,49,50
 137 101 137 101 137 85 c 0,51,52
 137 72 137 72 162 48 c 0,53,54
 178 33 178 33 190.5 30 c 128,-1,55
 203 27 203 27 236 33 c 0,56,57
 288 40 288 40 349 58 c 0,58,59
 372 66 372 66 416 85 c 128,-1,60
 460 104 460 104 470 112 c 0,0,1
82 183 m 0,61,62
 91 183 91 183 132 261 c 0,63,64
 172 339 172 339 172 355 c 0,65,66
 172 374 172 374 151.5 379.5 c 128,-1,67
 131 385 131 385 119 370 c 0,68,69
 109 358 109 358 99 334 c 256,70,71
 89 310 89 310 83 285 c 0,72,73
 78 260 78 260 74 237 c 256,74,75
 70 214 70 214 72 198.5 c 128,-1,76
 74 183 74 183 82 183 c 0,61,62
EndSplineSet
EndChar

StartChar: f
Encoding: 102 102 74
Width: 358
GlyphClass: 2
Flags: W
LayerCount: 2
Fore
SplineSet
421 137 m 0,0,1
 421 120 421 120 389.5 89 c 128,-1,2
 358 58 358 58 340 48 c 0,3,4
 328 40 328 40 312 32.5 c 128,-1,5
 296 25 296 25 282 19 c 128,-1,6
 268 13 268 13 256 8.5 c 128,-1,7
 244 4 244 4 235.5 0.5 c 128,-1,8
 227 -3 227 -3 226 -3 c 0,9,10
 201 -14 201 -14 175 -18 c 128,-1,11
 149 -22 149 -22 133.5 -22.5 c 128,-1,12
 118 -23 118 -23 103 -29 c 128,-1,13
 88 -35 88 -35 76.5 -54 c 128,-1,14
 65 -73 65 -73 55 -111 c 0,15,16
 48 -137 48 -137 38 -207 c 128,-1,17
 28 -277 28 -277 11.5 -326 c 128,-1,18
 -5 -375 -5 -375 -38 -407 c 0,19,20
 -63 -431 -63 -431 -83.5 -439 c 128,-1,21
 -104 -447 -104 -447 -117 -441 c 128,-1,22
 -130 -435 -130 -435 -140.5 -421 c 128,-1,23
 -151 -407 -151 -407 -155 -386 c 128,-1,24
 -159 -365 -159 -365 -161 -344 c 128,-1,25
 -163 -323 -163 -323 -159 -302 c 0,26,27
 -152 -248 -152 -248 -133.5 -194.5 c 128,-1,28
 -115 -141 -115 -141 -82.5 -67.5 c 128,-1,29
 -50 6 -50 6 -39 34 c 0,30,31
 -24 72 -24 72 -11 124 c 0,32,33
 -10 131 -10 131 -7 149 c 128,-1,34
 -4 167 -4 167 -0.5 179.5 c 128,-1,35
 3 192 3 192 10 202 c 0,36,37
 14 208 14 208 23.5 217 c 128,-1,38
 33 226 33 226 42 234.5 c 128,-1,39
 51 243 51 243 60 252 c 128,-1,40
 69 261 69 261 74.5 271.5 c 128,-1,41
 80 282 80 282 80 293 c 0,42,43
 80 319 80 319 112 405 c 0,44,45
 144 492 144 492 184 576 c 0,46,47
 255 730 255 730 262 748 c 0,48,49
 265 754 265 754 268.5 764.5 c 128,-1,50
 272 775 272 775 275 784 c 128,-1,51
 278 793 278 793 282 803.5 c 128,-1,52
 286 814 286 814 291 823 c 128,-1,53
 296 832 296 832 302 839.5 c 128,-1,54
 308 847 308 847 316 852 c 128,-1,55
 324 857 324 857 334 859 c 0,56,57
 367 864 367 864 384.5 840 c 128,-1,58
 402 816 402 816 401 783 c 0,59,60
 400 747 400 747 392 708.5 c 128,-1,61
 384 670 384 670 374 640 c 128,-1,62
 364 610 364 610 345 569.5 c 128,-1,63
 326 529 326 529 313 505.5 c 128,-1,64
 300 482 300 482 276 438.5 c 128,-1,65
 252 395 252 395 241 375 c 0,66,67
 214 323 214 323 154.5 227.5 c 128,-1,68
 95 132 95 132 87 118 c 0,69,70
 80 107 80 107 77 99 c 128,-1,71
 74 91 74 91 75.5 80.5 c 128,-1,72
 77 70 77 70 84.5 62.5 c 128,-1,73
 92 55 92 55 105.5 52.5 c 128,-1,74
 119 50 119 50 151 47 c 0,75,76
 169 45 169 45 190.5 50 c 128,-1,77
 212 55 212 55 230 64 c 128,-1,78
 248 73 248 73 266.5 83.5 c 128,-1,79
 285 94 285 94 297.5 103.5 c 128,-1,80
 310 113 310 113 319.5 120 c 128,-1,81
 329 127 329 127 330 127 c 0,82,83
 352 142 352 142 366 153 c 0,84,85
 388 172 388 172 404.5 168.5 c 128,-1,86
 421 165 421 165 421 137 c 0,0,1
-51 -154 m 0,87,88
 -52 -155 -52 -155 -53 -158 c 0,89,90
 -78 -244 -78 -244 -58 -268 c 1,91,92
 -35 -226 -35 -226 -28 -152 c 0,93,94
 -27 -143 -27 -143 -31 -139 c 0,95,96
 -37 -133 -37 -133 -45 -140 c 0,97,98
 -49 -144 -49 -144 -51 -154 c 0,87,88
EndSplineSet
EndChar

StartChar: g
Encoding: 103 103 75
Width: 469
GlyphClass: 2
Flags: W
LayerCount: 2
Fore
SplineSet
488 130 m 0,0,1
 510 149 510 149 526.5 145.5 c 128,-1,2
 543 142 543 142 543 113 c 0,3,4
 543 105 543 105 539 96 c 128,-1,5
 535 87 535 87 530 80.5 c 128,-1,6
 525 74 525 74 515 65.5 c 128,-1,7
 505 57 505 57 499.5 53 c 128,-1,8
 494 49 494 49 482.5 41.5 c 128,-1,9
 471 34 471 34 469 32 c 0,10,11
 445 16 445 16 419 6 c 0,12,13
 416 4 416 4 396 -7 c 128,-1,14
 376 -18 376 -18 353 -29 c 128,-1,15
 330 -40 330 -40 312 -46 c 1,16,17
 290 -62 290 -62 255 -81 c 0,18,19
 203 -110 203 -110 186 -149 c 0,20,21
 181 -159 181 -159 172 -175 c 0,22,23
 164 -190 164 -190 153 -206 c 0,24,25
 143 -221 143 -221 130 -239 c 0,26,27
 117 -258 117 -258 107 -273 c 256,28,29
 97 -288 97 -288 86 -302 c 0,30,31
 75 -317 75 -317 70 -324 c 0,32,33
 63 -336 63 -336 25.5 -359.5 c 128,-1,34
 -12 -383 -12 -383 -50 -403 c 0,35,36
 -131 -443 -131 -443 -152 -375 c 0,37,38
 -161 -346 -161 -346 -161 -331 c 0,39,40
 -161 -323 -161 -323 -157.5 -314.5 c 128,-1,41
 -154 -306 -154 -306 -150 -299 c 128,-1,42
 -146 -292 -146 -292 -138.5 -284 c 128,-1,43
 -131 -276 -131 -276 -125.5 -271 c 128,-1,44
 -120 -266 -120 -266 -111.5 -258 c 128,-1,45
 -103 -250 -103 -250 -99 -247 c 0,46,47
 -61 -210 -61 -210 3 -176 c 0,48,49
 21 -166 21 -166 56 -143 c 0,50,51
 102 -113 102 -113 110 -109 c 0,52,53
 132 -97 132 -97 165 -47 c 128,-1,54
 198 3 198 3 190 11 c 0,55,56
 184 16 184 16 138 1 c 0,57,58
 15 -41 15 -41 -19 90 c 0,59,60
 -29 126 -29 126 -12 186 c 128,-1,61
 5 246 5 246 37 293 c 0,62,63
 56 320 56 320 77.5 345 c 128,-1,64
 99 370 99 370 127.5 394.5 c 128,-1,65
 156 419 156 419 185.5 436.5 c 128,-1,66
 215 454 215 454 249 462 c 128,-1,67
 283 470 283 470 314 464 c 0,68,69
 350 458 350 458 368 436 c 128,-1,70
 386 414 386 414 386.5 386 c 128,-1,71
 387 358 387 358 381 326 c 0,72,73
 370 280 370 280 354.5 238 c 128,-1,74
 339 196 339 196 328 183 c 0,75,76
 315 167 315 167 315 157 c 0,77,78
 315 148 315 148 288 96 c 0,79,80
 263 41 263 41 263 19 c 0,81,82
 263 10 263 10 264 5 c 1,83,84
 267 10 267 10 285.5 19 c 128,-1,85
 304 28 304 28 330.5 39 c 128,-1,86
 357 50 357 50 366 54 c 0,87,88
 443 95 443 95 488 130 c 0,0,1
98 -193 m 0,89,90
 117 -161 117 -161 104 -161 c 0,91,92
 85 -161 85 -161 32 -204 c 256,93,94
 -21 -247 -21 -247 -62.5 -294.5 c 128,-1,95
 -104 -342 -104 -342 -95 -351 c 0,96,97
 -74 -371 -74 -371 -8 -317 c 128,-1,98
 58 -263 58 -263 98 -193 c 0,89,90
185 133 m 0,99,100
 242 226 242 226 242 237 c 0,101,102
 242 259 242 259 257 281.5 c 128,-1,103
 272 304 272 304 275 335 c 0,104,105
 279 364 279 364 267 368 c 0,106,107
 254 372 254 372 214.5 347.5 c 128,-1,108
 175 323 175 323 162 304 c 0,109,110
 158 298 158 298 140.5 283.5 c 128,-1,111
 123 269 123 269 104 249 c 128,-1,112
 85 229 85 229 76 209 c 0,113,114
 43 139 43 139 51 108 c 0,115,116
 60 71 60 71 82 66.5 c 128,-1,117
 104 62 104 62 146 89 c 0,118,119
 165 100 165 100 185 133 c 0,99,100
EndSplineSet
EndChar

StartChar: h
Encoding: 104 104 76
Width: 646
GlyphClass: 2
Flags: W
LayerCount: 2
Fore
SplineSet
641 153 m 0,0,1
 663 172 663 172 679.5 168.5 c 128,-1,2
 696 165 696 165 696 137 c 0,3,4
 696 129 696 129 693.5 121.5 c 128,-1,5
 691 114 691 114 686 107 c 128,-1,6
 681 100 681 100 675.5 94.5 c 128,-1,7
 670 89 670 89 661.5 83 c 128,-1,8
 653 77 653 77 648 73 c 128,-1,9
 643 69 643 69 634 63 c 128,-1,10
 625 57 625 57 622 55 c 0,11,12
 621 55 621 55 619 54 c 128,-1,13
 617 53 617 53 617 52 c 0,14,15
 614 50 614 50 609 46.5 c 128,-1,16
 604 43 604 43 602 42 c 0,17,18
 568 18 568 18 541 9 c 0,19,20
 514 2 514 2 474 -2 c 0,21,22
 372 -13 372 -13 322 45 c 128,-1,23
 272 103 272 103 251 257 c 0,24,25
 245 306 245 306 238 306 c 0,26,27
 232 306 232 306 167 250 c 0,28,29
 130 216 130 216 114 196 c 0,30,31
 106 188 106 188 100 175 c 128,-1,32
 94 162 94 162 88 144 c 128,-1,33
 82 126 82 126 79 120 c 0,34,35
 76 113 76 113 65 87 c 2,36,-1
 50 50 l 2,37,38
 46 41 46 41 45 20.5 c 128,-1,39
 44 0 44 0 37.5 -12 c 128,-1,40
 31 -24 31 -24 13 -27 c 0,41,42
 -22 -32 -22 -32 -47 4 c 0,43,44
 -63 26 -63 26 -64 37 c 128,-1,45
 -65 48 -65 48 -53 78 c 0,46,47
 -50 84 -50 84 -48 90 c 0,48,49
 -46 95 -46 95 -41.5 108.5 c 128,-1,50
 -37 122 -37 122 -35.5 126.5 c 128,-1,51
 -34 131 -34 131 -30 142.5 c 128,-1,52
 -26 154 -26 154 -23.5 160 c 128,-1,53
 -21 166 -21 166 -17 176 c 128,-1,54
 -13 186 -13 186 -9.5 193 c 128,-1,55
 -6 200 -6 200 -1.5 209 c 128,-1,56
 3 218 3 218 8 227 c 0,57,58
 27 261 27 261 36.5 331.5 c 128,-1,59
 46 402 46 402 49 412 c 0,60,61
 66 483 66 483 116 615 c 0,62,63
 125 640 125 640 137 690.5 c 128,-1,64
 149 741 149 741 161 784.5 c 128,-1,65
 173 828 173 828 191 874 c 128,-1,66
 209 920 209 920 239.5 952 c 128,-1,67
 270 984 270 984 310 994 c 0,68,69
 344 1002 344 1002 365.5 990.5 c 128,-1,70
 387 979 387 979 395 956 c 128,-1,71
 403 933 403 933 403.5 901.5 c 128,-1,72
 404 870 404 870 400.5 845 c 128,-1,73
 397 820 397 820 391 797 c 0,74,75
 380 760 380 760 356 711 c 0,76,77
 332 663 332 663 323 642 c 0,78,79
 309 603 309 603 284 563 c 0,80,81
 272 546 272 546 248.5 506.5 c 128,-1,82
 225 467 225 467 210 449 c 0,83,84
 189 421 189 421 164 394 c 0,85,86
 161 391 161 391 152 382.5 c 128,-1,87
 143 374 143 374 136.5 366.5 c 128,-1,88
 130 359 130 359 128 352 c 0,89,90
 127 349 127 349 129.5 345 c 128,-1,91
 132 341 132 341 135 342 c 0,92,93
 137 342 137 342 140 344 c 0,94,95
 148 350 148 350 162 364 c 128,-1,96
 176 378 176 378 188.5 386 c 128,-1,97
 201 394 201 394 215 396 c 0,98,99
 223 397 223 397 231 398 c 0,100,101
 274 403 274 403 300.5 390 c 128,-1,102
 327 377 327 377 345 343 c 0,103,104
 361 308 361 308 361 263 c 0,105,106
 361 223 361 223 374 169 c 0,107,108
 386 115 386 115 401 88 c 0,109,110
 410 72 410 72 421 69 c 128,-1,111
 432 66 432 66 466 70 c 0,112,113
 507 75 507 75 533 85 c 0,114,115
 601 121 601 121 641 153 c 0,0,1
253 764 m 0,116,117
 251 760 251 760 247 752.5 c 128,-1,118
 243 745 243 745 240 738.5 c 128,-1,119
 237 732 237 732 234 726 c 0,120,121
 212 680 212 680 199 630 c 0,122,123
 194 611 194 611 187 591.5 c 128,-1,124
 180 572 180 572 169.5 545 c 128,-1,125
 159 518 159 518 155 508 c 0,126,127
 149 492 149 492 157 487 c 0,128,129
 161 484 161 484 168 491 c 0,130,131
 184 507 184 507 195 526.5 c 128,-1,132
 206 546 206 546 216.5 572 c 128,-1,133
 227 598 227 598 234 612 c 0,134,135
 263 665 263 665 283 745 c 0,136,137
 285 750 285 750 291 763.5 c 128,-1,138
 297 777 297 777 301 787.5 c 128,-1,139
 305 798 305 798 306.5 811 c 128,-1,140
 308 824 308 824 301 828 c 0,141,142
 294 834 294 834 284 822 c 0,143,144
 276 814 276 814 263 785 c 0,145,146
 259 775 259 775 253 764 c 0,116,117
136 342 m 1024,147,-1
EndSplineSet
EndChar

StartChar: i
Encoding: 105 105 77
Width: 334
GlyphClass: 2
Flags: W
LayerCount: 2
Fore
SplineSet
239 607 m 0,0,1
 211 600 211 600 184 627 c 0,2,3
 165 646 165 646 164 652 c 128,-1,4
 163 658 163 658 178 670 c 0,5,6
 199 685 199 685 231.5 685 c 128,-1,7
 264 685 264 685 276 670 c 0,8,9
 289 653 289 653 277.5 633 c 128,-1,10
 266 613 266 613 239 607 c 0,0,1
417 128 m 0,11,12
 424 116 424 116 417.5 105 c 128,-1,13
 411 94 411 94 381 69 c 0,14,15
 334 29 334 29 270 -4 c 0,16,17
 222 -28 222 -28 170.5 -23.5 c 128,-1,18
 119 -19 119 -19 73.5 6 c 128,-1,19
 28 31 28 31 -5 71 c 0,20,21
 -52 127 -52 127 -33 220 c 0,22,23
 -31 227 -31 227 -25 268 c 128,-1,24
 -19 309 -19 309 -12.5 340.5 c 128,-1,25
 -6 372 -6 372 2 382 c 0,26,27
 11 393 11 393 31.5 397 c 128,-1,28
 52 401 52 401 74 397.5 c 128,-1,29
 96 394 96 394 116 384.5 c 128,-1,30
 136 375 136 375 143.5 359 c 128,-1,31
 151 343 151 343 143 323 c 0,32,33
 120 275 120 275 120 256 c 0,34,35
 120 238 120 238 100 211 c 0,36,37
 83 191 83 191 79.5 162.5 c 128,-1,38
 76 134 76 134 89 125 c 0,39,40
 100 121 100 121 100 100 c 0,41,42
 100 82 100 82 126 59 c 0,43,44
 144 42 144 42 154.5 40 c 128,-1,45
 165 38 165 38 193 45 c 0,46,47
 234 60 234 60 298 106 c 0,48,49
 349 143 349 143 375.5 148 c 128,-1,50
 402 153 402 153 417 128 c 0,11,12
EndSplineSet
EndChar

StartChar: j
Encoding: 106 106 78
Width: 265
GlyphClass: 2
Flags: W
LayerCount: 2
Fore
SplineSet
195 822 m 128,-1,1
 161 848 161 848 161 860 c 0,2,3
 161 869 161 869 206 869 c 0,4,5
 247 869 247 869 270 850.5 c 128,-1,6
 293 832 293 832 277 811 c 0,7,8
 262 796 262 796 244 796 c 0,9,0
 229 796 229 796 195 822 c 128,-1,1
258 129 m 0,10,11
 280 147 280 147 296.5 143.5 c 128,-1,12
 313 140 313 140 314 112 c 0,13,14
 314 103 314 103 309.5 94 c 128,-1,15
 305 85 305 85 300 78.5 c 128,-1,16
 295 72 295 72 285.5 64 c 128,-1,17
 276 56 276 56 270.5 52 c 128,-1,18
 265 48 265 48 253.5 40 c 128,-1,19
 242 32 242 32 239 31 c 0,20,21
 215 14 215 14 190 4 c 0,22,23
 187 3 187 3 163.5 -10 c 128,-1,24
 140 -23 140 -23 122 -32 c 1,25,26
 106 -48 106 -48 97 -58 c 0,27,28
 60 -97 60 -97 14 -140 c 0,29,30
 -33 -183 -33 -183 -51 -233 c 0,31,32
 -75 -296 -75 -296 -89 -320.5 c 128,-1,33
 -103 -345 -103 -345 -136 -376 c 0,34,35
 -162 -403 -162 -403 -177.5 -409.5 c 128,-1,36
 -193 -416 -193 -416 -229 -416 c 0,37,38
 -280 -416 -280 -416 -315.5 -391.5 c 128,-1,39
 -351 -367 -351 -367 -351 -330 c 0,40,41
 -351 -312 -351 -312 -339.5 -294.5 c 128,-1,42
 -328 -277 -328 -277 -296 -245 c 0,43,44
 -275 -226 -275 -226 -236 -189 c 0,45,46
 -128 -85 -128 -85 -95 -51 c 256,47,48
 -62 -17 -62 -17 -48 3 c 0,49,50
 -35 23 -35 23 -27 56 c 0,51,52
 -27 60 -27 60 -26.5 61.5 c 128,-1,53
 -26 63 -26 63 -25 67 c 128,-1,54
 -24 71 -24 71 -24 74 c 0,55,56
 -15 109 -15 109 5 177 c 128,-1,57
 25 245 25 245 34 279 c 0,58,59
 36 290 36 290 43 331.5 c 128,-1,60
 50 373 50 373 59 404 c 128,-1,61
 68 435 68 435 82 450 c 0,62,63
 99 468 99 468 99 486 c 0,64,65
 99 501 99 501 108 508 c 0,66,67
 118 514 118 514 146 574 c 0,68,69
 176 633 176 633 201 657 c 0,70,71
 228 682 228 682 259 679 c 0,72,73
 272 677 272 677 277.5 675.5 c 128,-1,74
 283 674 283 674 286.5 669 c 128,-1,75
 290 664 290 664 291 657 c 256,76,77
 292 650 292 650 290 631 c 0,78,79
 284 560 284 560 234 444 c 0,80,81
 230 435 230 435 194 368.5 c 128,-1,82
 158 302 158 302 153 268 c 0,83,84
 150 253 150 253 125.5 196 c 128,-1,85
 101 139 101 139 81.5 90 c 128,-1,86
 62 41 62 41 69 35 c 0,87,88
 82 23 82 23 154.5 63.5 c 128,-1,89
 227 104 227 104 258 129 c 0,10,11
-170 -273.5 m 128,-1,91
 -130 -214 -130 -214 -140 -204 c 0,92,93
 -152 -193 -152 -193 -204 -250 c 0,94,95
 -262 -312 -262 -312 -247 -324 c 0,96,97
 -242 -328 -242 -328 -229 -330 c 0,98,90
 -210 -333 -210 -333 -170 -273.5 c 128,-1,91
EndSplineSet
Substitution2: "'aalt' Access All Alternates lookup 0 subtable" j.alt1
EndChar

StartChar: k
Encoding: 107 107 79
Width: 643
GlyphClass: 2
Flags: W
LayerCount: 2
Fore
SplineSet
760 136 m 0,0,1
 758 121 758 121 741 101 c 0,2,3
 695 47 695 47 627.5 18.5 c 128,-1,4
 560 -10 560 -10 489 -5 c 0,5,6
 473 -4 473 -4 463 -1 c 0,7,8
 452 3 452 3 432 17 c 0,9,10
 390 46 390 46 244 148 c 0,11,12
 223 162 223 162 211 160 c 0,13,14
 196 158 196 158 183 138 c 0,15,16
 157 97 157 97 151 48 c 0,17,18
 149 30 149 30 146 23 c 0,19,20
 139 10 139 10 122.5 5.5 c 128,-1,21
 106 1 106 1 92 8 c 0,22,23
 67 18 67 18 51 53 c 0,24,25
 44 66 44 66 43 80.5 c 128,-1,26
 42 95 42 95 45 121.5 c 128,-1,27
 48 148 48 148 48 152 c 0,28,29
 49 164 49 164 54.5 186.5 c 128,-1,30
 60 209 60 209 61 220 c 0,31,32
 62 238 62 238 85 307 c 128,-1,33
 108 376 108 376 122 405 c 0,34,35
 159 482 159 482 171 554 c 0,36,37
 179 608 179 608 287 837 c 0,38,39
 299 863 299 863 316 879.5 c 128,-1,40
 333 896 333 896 360 912 c 0,41,42
 409 940 409 940 437 930 c 0,43,44
 453 924 453 924 462.5 908.5 c 128,-1,45
 472 893 472 893 473.5 875 c 128,-1,46
 475 857 475 857 473 839 c 0,47,48
 466 785 466 785 423 686 c 0,49,50
 355 533 355 533 333 484 c 1,51,52
 345 482 345 482 358.5 481.5 c 128,-1,53
 372 481 372 481 390 482.5 c 128,-1,54
 408 484 408 484 416 484 c 0,55,56
 468 485 468 485 492 459 c 0,57,58
 528 419 528 419 489 341 c 0,59,60
 441 247 441 247 356 173 c 1,61,62
 367 165 367 165 380 156 c 128,-1,63
 393 147 393 147 407 137 c 128,-1,64
 421 127 421 127 430 120 c 0,65,66
 477 87 477 87 504 81 c 0,67,68
 555 69 555 69 618 101 c 0,69,70
 636 111 636 111 669 132 c 128,-1,71
 702 153 702 153 719 162 c 0,72,73
 730 168 730 168 736 168 c 0,74,75
 747 168 747 168 753.5 158.5 c 128,-1,76
 760 149 760 149 760 138 c 2,77,78
 760 138 760 138 760 137.5 c 128,-1,79
 760 137 760 137 760 136 c 0,0,1
311 278 m 0,80,81
 339 303 339 303 333 321 c 0,82,83
 325 340 325 340 309 337 c 128,-1,84
 293 334 293 334 274 311 c 0,85,86
 245 273 245 273 260 260.5 c 128,-1,87
 275 248 275 248 311 278 c 0,80,81
EndSplineSet
AlternateSubs2: "'aalt' Access All Alternates lookup 1 subtable" k.alt1 k.alt2
EndChar

StartChar: l
Encoding: 108 108 80
Width: 340
GlyphClass: 2
Flags: W
LayerCount: 2
Fore
SplineSet
163 336 m 256,0,1
 130 296 130 296 106 261 c 256,2,3
 82 226 82 226 84 217 c 0,4,5
 84 201 84 201 112 144 c 0,6,7
 146 79 146 79 191 79 c 0,8,9
 200 79 200 79 209.5 81 c 128,-1,10
 219 83 219 83 233.5 88 c 128,-1,11
 248 93 248 93 252 94 c 0,12,13
 263 97 263 97 288 112 c 0,14,15
 319 131 319 131 347 153 c 0,16,17
 369 172 369 172 385.5 168.5 c 128,-1,18
 402 165 402 165 403 137 c 0,19,20
 403 128 403 128 398.5 119 c 128,-1,21
 394 110 394 110 389 103.5 c 128,-1,22
 384 97 384 97 374.5 88.5 c 128,-1,23
 365 80 365 80 359 76 c 128,-1,24
 353 72 353 72 342 64.5 c 128,-1,25
 331 57 331 57 328 55 c 0,26,27
 320 50 320 50 304 40 c 128,-1,28
 288 30 288 30 280 25 c 0,29,30
 246 2 246 2 211 -2 c 0,31,32
 177 -7 177 -7 160 -2.5 c 128,-1,33
 143 2 143 2 110 24 c 0,34,35
 68 53 68 53 42 87 c 128,-1,36
 16 121 16 121 7 152 c 128,-1,37
 -2 183 -2 183 -2 224 c 128,-1,38
 -2 265 -2 265 3 297.5 c 128,-1,39
 8 330 8 330 15.5 377.5 c 128,-1,40
 23 425 23 425 24 459 c 0,41,42
 25 472 25 472 26.5 486 c 128,-1,43
 28 500 28 500 29.5 511.5 c 128,-1,44
 31 523 31 523 34 539 c 128,-1,45
 37 555 37 555 38.5 564 c 128,-1,46
 40 573 40 573 45 590.5 c 128,-1,47
 50 608 50 608 51.5 615 c 128,-1,48
 53 622 53 622 58.5 641.5 c 128,-1,49
 64 661 64 661 65.5 666 c 128,-1,50
 67 671 67 671 73.5 692.5 c 128,-1,51
 80 714 80 714 81 718 c 0,52,53
 92 755 92 755 100 772 c 0,54,55
 109 790 109 790 124.5 807.5 c 128,-1,56
 140 825 140 825 152.5 836 c 128,-1,57
 165 847 165 847 186 864 c 0,58,59
 194 870 194 870 213.5 886 c 128,-1,60
 233 902 233 902 242 908.5 c 128,-1,61
 251 915 251 915 266.5 926.5 c 128,-1,62
 282 938 282 938 296.5 946.5 c 128,-1,63
 311 955 311 955 328 963 c 0,64,65
 366 982 366 982 387 977 c 0,66,67
 403 973 403 973 414 959.5 c 128,-1,68
 425 946 425 946 429 929 c 0,69,70
 432 917 432 917 433.5 904.5 c 128,-1,71
 435 892 435 892 434 877.5 c 128,-1,72
 433 863 433 863 432.5 853 c 128,-1,73
 432 843 432 843 428 826 c 128,-1,74
 424 809 424 809 422.5 801.5 c 128,-1,75
 421 794 421 794 414.5 775.5 c 128,-1,76
 408 757 408 757 406.5 752 c 128,-1,77
 405 747 405 747 397.5 726.5 c 128,-1,78
 390 706 390 706 389 703 c 0,79,80
 364 636 364 636 349 615 c 0,81,82
 339 601 339 601 291 510 c 0,83,84
 242 419 242 419 223 401 c 0,85,86
 196 376 196 376 163 336 c 256,0,1
124.5 511 m 128,-1,88
 110 453 110 453 119 444 c 0,89,90
 124 440 124 440 135.5 452.5 c 128,-1,91
 147 465 147 465 163.5 491.5 c 128,-1,92
 180 518 180 518 196 555 c 0,93,94
 229 621 229 621 229 627 c 0,95,96
 229 630 229 630 260 695 c 0,97,98
 291 759 291 759 291 773 c 0,99,100
 291 802 291 802 265 779 c 0,101,102
 248 766 248 766 232 738 c 0,103,104
 207 692 207 692 185 664 c 0,105,106
 165 638 165 638 165 615 c 0,107,108
 165 593 165 593 150 579 c 0,109,87
 139 569 139 569 124.5 511 c 128,-1,88
EndSplineSet
Substitution2: "'aalt' Access All Alternates lookup 0 subtable" l.alt1
EndChar

StartChar: m
Encoding: 109 109 81
Width: 888
GlyphClass: 2
Flags: W
LayerCount: 2
Fore
SplineSet
885 152 m 0,0,1
 907 170 907 170 923.5 166.5 c 128,-1,2
 940 163 940 163 941 135 c 0,3,4
 941 126 941 126 937 117 c 128,-1,5
 933 108 933 108 928 101.5 c 128,-1,6
 923 95 923 95 913 87 c 128,-1,7
 903 79 903 79 897.5 75 c 128,-1,8
 892 71 892 71 880.5 63.5 c 128,-1,9
 869 56 869 56 866 54 c 0,10,11
 835 33 835 33 806 9 c 0,12,13
 767 -22 767 -22 725 -34 c 0,14,15
 676 -48 676 -48 649 -49 c 0,16,17
 621 -50 621 -50 580 -38 c 0,18,19
 541 -28 541 -28 517.5 -11.5 c 128,-1,20
 494 5 494 5 481 31 c 128,-1,21
 468 57 468 57 467.5 96.5 c 128,-1,22
 467 136 467 136 477 186 c 0,23,24
 486 237 486 237 507 309 c 0,25,26
 513 327 513 327 503 327 c 0,27,28
 476 327 476 327 398 231 c 128,-1,29
 320 135 320 135 277 51 c 0,30,31
 247 -7 247 -7 227 -19 c 128,-1,32
 207 -31 207 -31 182 -7 c 0,33,34
 161 12 161 12 162 29.5 c 128,-1,35
 163 47 163 47 188 104 c 0,36,37
 209 146 209 146 209 162 c 0,38,39
 209 176 209 176 230 220 c 1,40,41
 244 270 244 270 239 273 c 0,42,43
 228 273 228 273 195.5 237.5 c 128,-1,44
 163 202 163 202 127.5 152.5 c 128,-1,45
 92 103 92 103 74 69 c 0,46,47
 46 17 46 17 23 3 c 128,-1,48
 0 -11 0 -11 -23 9 c 0,49,50
 -45 29 -45 29 -40 58.5 c 128,-1,51
 -35 88 -35 88 0 155 c 0,52,53
 10 176 10 176 19.5 216.5 c 128,-1,54
 29 257 29 257 38 274 c 0,55,56
 71 345 71 345 110 375 c 0,57,58
 119 382 119 382 129 387.5 c 128,-1,59
 139 393 139 393 149.5 394.5 c 128,-1,60
 160 396 160 396 163.5 388 c 128,-1,61
 167 380 167 380 163 361 c 0,62,63
 154 330 154 330 170 333 c 0,64,65
 182 334 182 334 198 360 c 0,66,67
 221 395 221 395 252 417 c 0,68,69
 264 425 264 425 272 429 c 0,70,71
 282 433 282 433 285 434 c 0,72,73
 290 437 290 437 299 436 c 128,-1,74
 308 435 308 435 312 434 c 0,75,76
 316 434 316 434 328 430 c 0,77,78
 341 426 341 426 348 425 c 0,79,80
 376 419 376 419 376 409 c 0,81,82
 378 407 378 407 379 379 c 0,83,84
 381 366 381 366 384 360 c 128,-1,85
 387 354 387 354 396 354.5 c 128,-1,86
 405 355 405 355 418 361.5 c 128,-1,87
 431 368 431 368 457 385 c 0,88,89
 517 423 517 423 560 429 c 0,90,91
 592 432 592 432 600 427.5 c 128,-1,92
 608 423 608 423 617 404 c 0,93,94
 629 373 629 373 622 325 c 128,-1,95
 615 277 615 277 596 235 c 0,96,97
 574 193 574 193 574 171 c 0,98,99
 574 153 574 153 563 118 c 0,100,101
 552 88 552 88 566.5 62 c 128,-1,102
 581 36 581 36 612 30 c 0,103,104
 630 27 630 27 659 33 c 0,105,106
 667 35 667 35 756 73 c 1,107,108
 756 73 756 73 774.5 84 c 128,-1,109
 793 95 793 95 814.5 107.5 c 128,-1,110
 836 120 836 120 857 133 c 128,-1,111
 878 146 878 146 885 152 c 0,0,1
EndSplineSet
EndChar

StartChar: n
Encoding: 110 110 82
Width: 703
GlyphClass: 2
Flags: W
LayerCount: 2
Fore
SplineSet
-41 138 m 0,0,1
 -25 165 -25 165 21 261.5 c 128,-1,2
 67 358 67 358 100 397 c 0,3,4
 105 404 105 404 111 410 c 0,5,6
 123 423 123 423 144 429.5 c 128,-1,7
 165 436 165 436 182 428 c 0,8,9
 188 424 188 424 190.5 407 c 128,-1,10
 193 390 193 390 198 389 c 0,11,12
 205 388 205 388 232 407 c 0,13,14
 278 439 278 439 377 460 c 0,15,16
 417 470 417 470 429 468 c 128,-1,17
 441 466 441 466 459 450 c 0,18,19
 482 427 482 427 483 394 c 128,-1,20
 484 361 484 361 461 332 c 0,21,22
 444 307 444 307 417 233 c 128,-1,23
 390 159 390 159 390 131 c 0,24,25
 390 111 390 111 403.5 87.5 c 128,-1,26
 417 64 417 64 436.5 48.5 c 128,-1,27
 456 33 456 33 472 33 c 0,28,29
 496 33 496 33 573 73 c 128,-1,30
 650 113 650 113 694 149 c 0,31,32
 727 174 727 174 741 172.5 c 128,-1,33
 755 171 755 171 755 143 c 0,34,35
 755 131 755 131 744.5 115.5 c 128,-1,36
 734 100 734 100 717 83 c 0,37,38
 699 67 699 67 675 50.5 c 128,-1,39
 651 34 651 34 626 24 c 0,40,41
 560 -7 560 -7 531 -21 c 0,42,43
 481 -44 481 -44 442.5 -34 c 128,-1,44
 404 -24 404 -24 352 28 c 0,45,46
 310 70 310 70 302.5 85.5 c 128,-1,47
 295 101 295 101 295 145 c 0,48,49
 295 209 295 209 318 278 c 0,50,51
 338 347 338 347 334 353 c 0,52,53
 328 359 328 359 253 288.5 c 128,-1,54
 178 218 178 218 106 139.5 c 128,-1,55
 34 61 34 61 34 49 c 0,56,57
 34 39 34 39 21.5 27 c 128,-1,58
 9 15 9 15 -9 7.5 c 128,-1,59
 -27 0 -27 0 -41 3 c 0,60,61
 -64 6 -64 6 -73 39 c 0,62,63
 -80 61 -80 61 -75 78 c 128,-1,64
 -70 95 -70 95 -41 138 c 0,0,1
EndSplineSet
EndChar

StartChar: o
Encoding: 111 111 83
Width: 544
GlyphClass: 2
Flags: W
LayerCount: 2
Fore
SplineSet
585 192 m 0,0,1
 600 184 600 184 600 157 c 0,2,3
 601 126 601 126 565 99 c 0,4,5
 552 90 552 90 535 81 c 0,6,7
 532 80 532 80 528 77 c 0,8,9
 514 69 514 69 504 68 c 0,10,11
 474 66 474 66 446 92 c 0,12,13
 439 98 439 98 431 113 c 2,14,-1
 428 118 l 2,15,16
 419 133 419 133 411 137 c 128,-1,17
 403 141 403 141 391 135 c 0,18,19
 376 127 376 127 357 86 c 0,20,21
 348 65 348 65 342 57 c 0,22,23
 323 29 323 29 309 25 c 0,24,25
 291 16 291 16 260 -3 c 0,26,27
 222 -26 222 -26 188 -28 c 0,28,29
 149 -31 149 -31 130 -36 c 0,30,31
 125 -37 125 -37 120 -37 c 0,32,33
 109 -37 109 -37 101 -33 c 0,34,35
 89 -28 89 -28 66 -6 c 0,36,37
 41 17 41 17 32 34.5 c 128,-1,38
 23 52 23 52 14 96 c 0,39,40
 -1 168 -1 168 7 211.5 c 128,-1,41
 15 255 15 255 51 313 c 0,42,43
 97 387 97 387 138 420 c 256,44,45
 179 453 179 453 239 467 c 0,46,47
 268 473 268 473 290 488 c 0,48,49
 325 511 325 511 352 505 c 0,50,51
 378 500 378 500 412 464 c 0,52,53
 430 444 430 444 438 432 c 128,-1,54
 446 420 446 420 449 409 c 128,-1,55
 452 398 452 398 452 377 c 0,56,57
 452 288 452 288 458 239 c 0,58,59
 461 210 461 210 471.5 194.5 c 128,-1,60
 482 179 482 179 508 157 c 1,61,-1
 511 159 l 2,62,63
 529 171 529 171 537 178 c 0,64,65
 567 201 567 201 585 192 c 0,0,1
354 364 m 0,66,67
 354 403 354 403 346 407 c 0,68,69
 344 405 344 405 342 402 c 0,70,71
 337 393 337 393 343 361 c 0,72,73
 347 338 347 338 351 332 c 1,74,75
 354 340 354 340 354 364 c 0,66,67
325 210 m 0,76,77
 329 233 329 233 324 243 c 0,78,79
 320 253 320 253 299 274 c 0,80,81
 266 306 266 306 266 327 c 0,82,83
 266 341 266 341 257 360 c 128,-1,84
 248 379 248 379 239 385 c 0,85,86
 232 390 232 390 227 390 c 0,87,88
 223 390 223 390 220 388 c 0,89,90
 210 383 210 383 179 351 c 0,91,92
 152 324 152 324 128.5 282 c 128,-1,93
 105 240 105 240 94 203 c 0,94,95
 83 168 83 168 90 152 c 0,96,97
 98 137 98 137 99 101 c 0,98,99
 102 74 102 74 107 61 c 0,100,101
 112 50 112 50 122 46 c 0,102,103
 133 41 133 41 158 41 c 0,104,105
 170 41 170 41 178 42 c 0,106,107
 186 42 186 42 193 44 c 256,108,109
 200 46 200 46 206 49 c 0,110,111
 213 53 213 53 220 58 c 256,112,113
 227 63 227 63 237 71 c 0,114,115
 275 101 275 101 280 119 c 0,116,117
 286 138 286 138 304 159 c 0,118,119
 320 176 320 176 325 210 c 0,76,77
EndSplineSet
EndChar

StartChar: p
Encoding: 112 112 84
Width: 552
GlyphClass: 2
Flags: W
LayerCount: 2
Fore
SplineSet
577 145 m 0,0,1
 599 163 599 163 615.5 159.5 c 128,-1,2
 632 156 632 156 632 128 c 0,3,4
 632 119 632 119 628 110 c 128,-1,5
 624 101 624 101 619 94.5 c 128,-1,6
 614 88 614 88 604 79.5 c 128,-1,7
 594 71 594 71 588.5 67 c 128,-1,8
 583 63 583 63 571.5 55.5 c 128,-1,9
 560 48 560 48 557 46 c 0,10,11
 534 30 534 30 508 20 c 0,12,13
 489 11 489 11 438.5 1 c 128,-1,14
 388 -9 388 -9 359 -9 c 0,15,16
 335 -9 335 -9 292 7.5 c 128,-1,17
 249 24 249 24 218.5 38 c 128,-1,18
 188 52 188 52 188 49 c 2,19,20
 188 49 188 49 181 49 c 128,-1,21
 174 49 174 49 165.5 50 c 128,-1,22
 157 51 157 51 141 40.5 c 128,-1,23
 125 30 125 30 108 8 c 0,24,25
 83 -23 83 -23 63 -76.5 c 128,-1,26
 43 -130 43 -130 35 -144 c 0,27,28
 25 -164 25 -164 14.5 -190 c 128,-1,29
 4 -216 4 -216 -6 -234 c 128,-1,30
 -16 -252 -16 -252 -33 -272 c 0,31,32
 -48 -290 -48 -290 -56.5 -294 c 128,-1,33
 -65 -298 -65 -298 -85 -290 c 0,34,35
 -109 -281 -109 -281 -119.5 -243.5 c 128,-1,36
 -130 -206 -130 -206 -123 -178 c 0,37,38
 -119 -161 -119 -161 -99.5 -132.5 c 128,-1,39
 -80 -104 -80 -104 -75 -91 c 0,40,41
 -69 -75 -69 -75 -62 -43 c 128,-1,42
 -55 -11 -55 -11 -50 2 c 0,43,44
 -43 23 -43 23 -24 61.5 c 128,-1,45
 -5 100 -5 100 2 119 c 0,46,47
 12 147 12 147 16.5 188 c 128,-1,48
 21 229 21 229 27.5 266 c 128,-1,49
 34 303 34 303 51 332 c 0,50,51
 53 336 53 336 57 343.5 c 128,-1,52
 61 351 61 351 64.5 357.5 c 128,-1,53
 68 364 68 364 73 372.5 c 128,-1,54
 78 381 78 381 82.5 387.5 c 128,-1,55
 87 394 87 394 92.5 402 c 128,-1,56
 98 410 98 410 103.5 416 c 128,-1,57
 109 422 109 422 115 427.5 c 128,-1,58
 121 433 121 433 127.5 437 c 128,-1,59
 134 441 134 441 140 443 c 0,60,61
 176 453 176 453 192 429.5 c 128,-1,62
 208 406 208 406 190 377 c 0,63,64
 164 334 164 334 179 337 c 0,65,66
 194 342 194 342 228 376 c 0,67,68
 268 416 268 416 303 437 c 128,-1,69
 338 458 338 458 384 466 c 0,70,71
 428 474 428 474 430 477 c 0,72,73
 434 478 434 478 438 472 c 128,-1,74
 442 466 442 466 446 455 c 0,75,76
 449 444 449 444 452 430 c 0,77,78
 454 415 454 415 456 400 c 256,79,80
 458 385 458 385 458 371 c 0,81,82
 457 232 457 232 418 190 c 0,83,84
 394 165 394 165 381 142 c 0,85,86
 377 133 377 133 371.5 130 c 128,-1,87
 366 127 366 127 362.5 127.5 c 128,-1,88
 359 128 359 128 352 126 c 128,-1,89
 345 124 345 124 340 116 c 0,90,91
 326 101 326 101 310 101 c 0,92,93
 297 100 297 100 276.5 87.5 c 128,-1,94
 256 75 256 75 256 67 c 0,95,96
 256 64 256 64 266.5 59 c 128,-1,97
 277 54 277 54 292 49.5 c 128,-1,98
 307 45 307 45 323 42 c 128,-1,99
 339 39 339 39 350 39 c 0,100,101
 367 39 367 39 391 44 c 0,102,103
 400 48 400 48 413 52.5 c 128,-1,104
 426 57 426 57 437 61 c 128,-1,105
 448 65 448 65 455 69 c 0,106,107
 532 109 532 109 577 145 c 0,0,1
198 150.5 m 128,-1,109
 212 133 212 133 225 133 c 0,110,111
 248 133 248 133 296 174.5 c 128,-1,112
 344 216 344 216 356 244 c 0,113,114
 369 276 369 276 370.5 314 c 128,-1,115
 372 352 372 352 360 374 c 0,116,117
 348 395 348 395 336.5 391.5 c 128,-1,118
 325 388 325 388 285 349 c 0,119,120
 247 315 247 315 214.5 263 c 128,-1,121
 182 211 182 211 182 187 c 0,122,108
 184 168 184 168 198 150.5 c 128,-1,109
EndSplineSet
EndChar

StartChar: q
Encoding: 113 113 85
Width: 659
GlyphClass: 2
Flags: W
LayerCount: 2
Fore
SplineSet
689 153 m 0,0,1
 711 172 711 172 727.5 168.5 c 128,-1,2
 744 165 744 165 744 136 c 0,3,4
 745 128 745 128 740.5 119 c 128,-1,5
 736 110 736 110 731 103.5 c 128,-1,6
 726 97 726 97 716.5 88.5 c 128,-1,7
 707 80 707 80 701 76 c 128,-1,8
 695 72 695 72 683.5 64.5 c 128,-1,9
 672 57 672 57 670 55 c 0,10,11
 646 39 646 39 621 29 c 0,12,13
 619 27 619 27 614 25 c 128,-1,14
 609 23 609 23 604.5 20 c 128,-1,15
 600 17 600 17 592.5 13 c 128,-1,16
 585 9 585 9 579 6 c 0,17,18
 579 4 579 4 555.5 -8 c 128,-1,19
 532 -20 532 -20 523 -22 c 0,20,21
 505 -29 505 -29 492 -35 c 0,22,23
 479 -40 479 -40 474 -45 c 128,-1,24
 469 -50 469 -50 470 -55 c 0,25,26
 486 -112 486 -112 474.5 -197 c 128,-1,27
 463 -282 463 -282 428 -353 c 0,28,29
 406 -400 406 -400 364 -430.5 c 128,-1,30
 322 -461 322 -461 271 -467 c 0,31,32
 233 -473 233 -473 218.5 -469 c 128,-1,33
 204 -465 204 -465 184 -449 c 0,34,35
 163 -430 163 -430 159.5 -414.5 c 128,-1,36
 156 -399 156 -399 156 -344 c 0,37,38
 156 -264 156 -264 167.5 -243 c 128,-1,39
 179 -222 179 -222 179 -203 c 0,40,41
 179 -179 179 -179 199 -136 c 0,42,43
 220 -84 220 -84 231 -12 c 0,44,45
 231 -11 231 -11 226 -11 c 128,-1,46
 221 -11 221 -11 213 -11 c 128,-1,47
 205 -11 205 -11 197.5 -11.5 c 128,-1,48
 190 -12 190 -12 183.5 -12 c 128,-1,49
 177 -12 177 -12 176 -12 c 0,50,51
 141 -13 141 -13 118 -2 c 0,52,53
 94 10 94 10 63 51 c 0,54,55
 49 69 49 69 46 81 c 0,56,57
 44 85 44 85 43.5 89.5 c 128,-1,58
 43 94 43 94 43 99.5 c 128,-1,59
 43 105 43 105 43.5 109 c 128,-1,60
 44 113 44 113 45.5 119.5 c 128,-1,61
 47 126 47 126 47.5 129 c 128,-1,62
 48 132 48 132 50 139 c 128,-1,63
 52 146 52 146 53 148.5 c 128,-1,64
 54 151 54 151 56.5 158.5 c 128,-1,65
 59 166 59 166 59 167 c 0,66,67
 72 205 72 205 87 224 c 0,68,69
 91 229 91 229 97 236 c 128,-1,70
 103 243 103 243 107.5 248 c 128,-1,71
 112 253 112 253 117 260 c 128,-1,72
 122 267 122 267 124 274 c 0,73,74
 135 305 135 305 176 345 c 0,75,76
 227 395 227 395 243 395 c 0,77,78
 258 395 258 395 283 416 c 0,79,80
 304 435 304 435 345 444 c 0,81,82
 384 450 384 450 393 453 c 0,83,84
 414 460 414 460 438.5 456.5 c 128,-1,85
 463 453 463 453 472 442 c 0,86,87
 485 426 485 426 498.5 426 c 128,-1,88
 512 426 512 426 523 405 c 0,89,90
 531 392 531 392 528 376.5 c 128,-1,91
 525 361 525 361 509 328 c 0,92,93
 491 294 491 294 487 286 c 0,94,95
 484 282 484 282 478.5 275 c 128,-1,96
 473 268 473 268 469 261.5 c 128,-1,97
 465 255 465 255 463 249 c 128,-1,98
 461 243 461 243 461 230.5 c 128,-1,99
 461 218 461 218 461 217 c 0,100,101
 459 201 459 201 443 163 c 128,-1,102
 427 125 427 125 432 100 c 0,103,104
 434 88 434 88 427.5 74 c 128,-1,105
 421 60 421 60 421 53 c 0,106,107
 420 38 420 38 449 44 c 0,108,109
 461 46 461 46 486 54 c 0,110,111
 525 67 525 67 531 64 c 1,112,113
 559 73 559 73 568 78 c 0,114,115
 645 118 645 118 689 153 c 0,0,1
228 115 m 0,116,117
 240 119 240 119 282.5 171 c 128,-1,118
 325 223 325 223 341 254 c 0,119,120
 359 288 359 288 353 306 c 0,121,122
 345 322 345 322 334 322 c 0,123,124
 316 322 316 322 281.5 298.5 c 128,-1,125
 247 275 247 275 228 247 c 0,126,127
 176 178 176 178 167 113 c 0,128,129
 163 82 163 82 178 83 c 0,130,131
 185 85 185 85 197 94 c 0,132,133
 218 112 218 112 228 115 c 0,116,117
347 -285 m 128,-1,135
 371 -234 371 -234 371 -151 c 0,136,137
 372 -87 372 -87 359 -74 c 0,138,139
 348 -63 348 -63 341 -80 c 0,140,141
 334 -94 334 -94 310 -169 c 0,142,143
 307 -181 307 -181 300 -200 c 0,144,145
 293 -220 293 -220 288 -235 c 256,146,147
 283 -250 283 -250 282 -258 c 0,148,149
 264 -310 264 -310 264.5 -323 c 128,-1,150
 265 -336 265 -336 285 -336 c 0,151,134
 323 -336 323 -336 347 -285 c 128,-1,135
EndSplineSet
EndChar

StartChar: r
Encoding: 114 114 86
Width: 623
GlyphClass: 2
Flags: W
LayerCount: 2
Fore
SplineSet
640 162 m 0,0,1
 661 181 661 181 677.5 177.5 c 128,-1,2
 694 174 694 174 695 146 c 0,3,4
 695 138 695 138 692.5 130.5 c 128,-1,5
 690 123 690 123 684.5 116.5 c 128,-1,6
 679 110 679 110 673.5 104 c 128,-1,7
 668 98 668 98 660 92 c 128,-1,8
 652 86 652 86 646.5 82 c 128,-1,9
 641 78 641 78 632 72.5 c 128,-1,10
 623 67 623 67 620 64 c 0,11,12
 596 48 596 48 571 38 c 0,13,14
 569 37 569 37 565 35 c 0,15,16
 563 30 563 30 557 27 c 256,17,18
 551 24 551 24 539 21 c 0,19,20
 516 8 516 8 471 3 c 128,-1,21
 426 -2 426 -2 389 0.5 c 128,-1,22
 352 3 352 3 341 9 c 0,23,24
 332 15 332 15 321 34 c 128,-1,25
 310 53 310 53 302 72 c 128,-1,26
 294 91 294 91 292 101 c 0,27,28
 285 130 285 130 287 163 c 0,29,30
 290 197 290 197 298 269 c 1,31,-1
 298 283 l 2,32,33
 298 288 298 288 294.5 290.5 c 128,-1,34
 291 293 291 293 285 294 c 0,35,36
 279 294 279 294 269 294 c 0,37,38
 257 294 257 294 242 298 c 128,-1,39
 227 302 227 302 212.5 305.5 c 128,-1,40
 198 309 198 309 187 309 c 1,41,42
 188 309 188 309 180 277.5 c 128,-1,43
 172 246 172 246 159.5 211 c 128,-1,44
 147 176 147 176 137 170 c 0,45,46
 101 149 101 149 61 140 c 0,47,48
 9 128 9 128 108 367 c 0,49,50
 110 373 110 373 118 392 c 128,-1,51
 126 411 126 411 129 418.5 c 128,-1,52
 132 426 132 426 138.5 442.5 c 128,-1,53
 145 459 145 459 148 469.5 c 128,-1,54
 151 480 151 480 154.5 495 c 128,-1,55
 158 510 158 510 159.5 523.5 c 128,-1,56
 161 537 161 537 161 551 c 0,57,58
 161 567 161 567 181.5 608 c 128,-1,59
 202 649 202 649 214 658 c 0,60,61
 230 667 230 667 257.5 664.5 c 128,-1,62
 285 662 285 662 294 652 c 0,63,64
 306 637 306 637 294 536 c 0,65,66
 285 470 285 470 286 451 c 0,67,68
 287 431 287 431 297 419 c 0,69,70
 309 409 309 409 318 409.5 c 128,-1,71
 327 410 327 410 352 425 c 0,72,73
 389 446 389 446 405.5 445 c 128,-1,74
 422 444 422 444 436 422 c 0,75,76
 447 406 447 406 446 393 c 128,-1,77
 445 380 445 380 431 343 c 0,78,79
 411 290 411 290 395 222 c 0,80,81
 383 168 383 168 387.5 142 c 128,-1,82
 392 116 392 116 420 81 c 0,83,84
 432 64 432 64 439 62 c 0,85,86
 442 61 442 61 449.5 63.5 c 128,-1,87
 457 66 457 66 465.5 69.5 c 128,-1,88
 474 73 474 73 477 74 c 0,89,90
 508 82 508 82 518 87 c 0,91,92
 595 127 595 127 640 162 c 0,0,1
EndSplineSet
Substitution2: "'aalt' Access All Alternates lookup 0 subtable" r.alt1
EndChar

StartChar: s
Encoding: 115 115 87
Width: 506
GlyphClass: 2
Flags: W
LayerCount: 2
Fore
SplineSet
515 189 m 0,0,1
 537 208 537 208 553.5 204.5 c 128,-1,2
 570 201 570 201 570 172 c 0,3,4
 570 166 570 166 568 159 c 128,-1,5
 566 152 566 152 562.5 146.5 c 128,-1,6
 559 141 559 141 553.5 135 c 128,-1,7
 548 129 548 129 542.5 124.5 c 128,-1,8
 537 120 537 120 530 115 c 128,-1,9
 523 110 523 110 518 106.5 c 128,-1,10
 513 103 513 103 506 98 c 128,-1,11
 499 93 499 93 496 91 c 0,12,13
 472 75 472 75 446 64 c 0,14,15
 444 63 444 63 436 59 c 0,16,17
 409 31 409 31 388 21 c 0,18,19
 368 13 368 13 335 11 c 1,20,21
 301 1 301 1 288 13 c 0,22,23
 284 13 284 13 264.5 15 c 128,-1,24
 245 17 245 17 238 17.5 c 128,-1,25
 231 18 231 18 216.5 18 c 128,-1,26
 202 18 202 18 191.5 15 c 128,-1,27
 181 12 181 12 171 7 c 0,28,29
 158 -1 158 -1 138 0 c 128,-1,30
 118 1 118 1 69 8 c 0,31,32
 34 13 34 13 10 15 c 0,33,34
 5 15 5 15 -1 15 c 128,-1,35
 -7 15 -7 15 -14 15.5 c 128,-1,36
 -21 16 -21 16 -25 19 c 0,37,38
 -36 26 -36 26 -52 73 c 0,39,40
 -61 100 -61 100 -63 129 c 0,41,42
 -65 141 -65 141 -63 148 c 0,43,44
 -58 173 -58 173 -47 179 c 0,45,46
 -43 181 -43 181 -32 183 c 128,-1,47
 -21 185 -21 185 -16 190 c 0,48,49
 -7 197 -7 197 -1 213 c 0,50,51
 5 230 5 230 6 248 c 0,52,53
 7 264 7 264 9 269 c 0,54,55
 13 275 13 275 24.5 282 c 128,-1,56
 36 289 36 289 37 290 c 0,57,58
 49 300 49 300 58 317 c 0,59,60
 62 326 62 326 74 373 c 0,61,62
 85 410 85 410 92 449 c 0,63,64
 99 487 99 487 102 514 c 0,65,66
 107 576 107 576 115.5 587 c 128,-1,67
 124 598 124 598 147.5 597.5 c 128,-1,68
 171 597 171 597 188 584 c 0,69,70
 196 579 196 579 202.5 567.5 c 128,-1,71
 209 556 209 556 212 547 c 128,-1,72
 215 538 215 538 219.5 522 c 128,-1,73
 224 506 224 506 226 501 c 0,74,75
 244 447 244 447 252 401 c 0,76,77
 255 383 255 383 259 348.5 c 128,-1,78
 263 314 263 314 268 286 c 128,-1,79
 273 258 273 258 282 234 c 0,80,81
 298 190 298 190 293 155 c 0,82,83
 290 133 290 133 290 114 c 128,-1,84
 290 95 290 95 302.5 83 c 128,-1,85
 315 71 315 71 341 73 c 0,86,87
 352 74 352 74 363 78 c 128,-1,88
 374 82 374 82 381.5 86 c 128,-1,89
 389 90 389 90 400.5 99 c 128,-1,90
 412 108 412 108 416 111.5 c 128,-1,91
 420 115 420 115 433 127 c 0,92,93
 448 141 448 141 479.5 163.5 c 128,-1,94
 511 186 511 186 515 189 c 0,0,1
203 165.5 m 128,-1,96
 211 200 211 200 186 277 c 0,97,98
 161 350 161 350 155 350 c 0,99,100
 148 350 148 350 143 322 c 0,101,102
 137 296 137 296 128 284 c 0,103,104
 116 267 116 267 90 211.5 c 128,-1,105
 64 156 64 156 68 150 c 0,106,107
 73 143 73 143 88 135 c 128,-1,108
 103 127 103 127 120.5 123 c 128,-1,109
 138 119 138 119 150 121 c 0,110,95
 195 131 195 131 203 165.5 c 128,-1,96
EndSplineSet
Substitution2: "'aalt' Access All Alternates lookup 0 subtable" s.alt1
EndChar

StartChar: t
Encoding: 116 116 88
Width: 494
GlyphClass: 2
Flags: W
LayerCount: 2
Fore
SplineSet
507 121 m 0,0,1
 530 137 530 137 546 131.5 c 128,-1,2
 562 126 562 126 560 98 c 0,3,4
 559 91 559 91 555.5 83.5 c 128,-1,5
 552 76 552 76 546 70 c 128,-1,6
 540 64 540 64 534.5 59 c 128,-1,7
 529 54 529 54 520 48.5 c 128,-1,8
 511 43 511 43 505 40 c 128,-1,9
 499 37 499 37 489.5 32 c 128,-1,10
 480 27 480 27 477 25 c 0,11,12
 452 12 452 12 425 4 c 0,13,14
 424 3 424 3 400.5 -11.5 c 128,-1,15
 377 -26 377 -26 347 -43.5 c 128,-1,16
 317 -61 317 -61 298 -67 c 0,17,18
 272 -76 272 -76 244 -81 c 128,-1,19
 216 -86 216 -86 185 -87.5 c 128,-1,20
 154 -89 154 -89 125.5 -81 c 128,-1,21
 97 -73 97 -73 78 -57 c 0,22,23
 55 -36 55 -36 40.5 0.5 c 128,-1,24
 26 37 26 37 21.5 79.5 c 128,-1,25
 17 122 17 122 17 159 c 128,-1,26
 17 196 17 196 20 230 c 0,27,28
 21 235 21 235 31.5 315.5 c 128,-1,29
 42 396 42 396 51.5 473.5 c 128,-1,30
 61 551 61 551 61 551 c 1,31,32
 49 558 49 558 16 561 c 0,33,34
 -4 562 -4 562 -25 561 c 0,35,36
 -74 561 -74 561 -94 564 c 0,37,38
 -98 565 -98 565 -105.5 565 c 128,-1,39
 -113 565 -113 565 -120.5 565 c 128,-1,40
 -128 565 -128 565 -135.5 565 c 128,-1,41
 -143 565 -143 565 -147.5 566.5 c 128,-1,42
 -152 568 -152 568 -153 571 c 0,43,44
 -155 587 -155 587 -140 594 c 0,45,46
 -139 595 -139 595 -126.5 602.5 c 128,-1,47
 -114 610 -114 610 -100.5 617 c 128,-1,48
 -87 624 -87 624 -64 629.5 c 128,-1,49
 -41 635 -41 635 -17 634 c 0,50,51
 58 627 58 627 76.5 629.5 c 128,-1,52
 95 632 95 632 113 651 c 0,53,54
 140 676 140 676 185 782 c 0,55,56
 187 786 187 786 191 794 c 0,57,58
 208 834 208 834 219 857 c 128,-1,59
 230 880 230 880 250 915.5 c 128,-1,60
 270 951 270 951 294 975 c 128,-1,61
 318 999 318 999 344 1012 c 0,62,63
 428 1052 428 1052 428 1007 c 0,64,65
 428 981 428 981 389 890 c 0,66,67
 378 865 378 865 373 851 c 0,68,69
 367 833 367 833 363 808 c 128,-1,70
 359 783 359 783 344 758 c 0,71,72
 320 716 320 716 304 687 c 0,73,74
 285 653 285 653 290 647 c 0,75,76
 295 639 295 639 391 629 c 0,77,78
 458 622 458 622 472.5 617 c 128,-1,79
 487 612 487 612 485 598 c 0,80,81
 483 579 483 579 463 582 c 0,82,83
 455 583 455 583 431 583 c 0,84,85
 407 582 407 582 377 580 c 256,86,87
 347 578 347 578 315 574 c 0,88,89
 284 570 284 570 263 568 c 0,90,91
 252 566 252 566 234 504 c 128,-1,92
 216 442 216 442 194.5 353.5 c 128,-1,93
 173 265 173 265 163 235 c 0,94,95
 112 82 112 82 176 25 c 0,96,97
 205 -1 205 -1 230 0 c 0,98,99
 245 0 245 0 263 11 c 0,100,101
 266 15 266 15 283.5 23 c 128,-1,102
 301 31 301 31 319.5 37.5 c 128,-1,103
 338 44 338 44 357.5 51 c 128,-1,104
 377 58 377 58 378 58 c 0,105,106
 458 90 458 90 507 121 c 0,0,1
EndSplineSet
EndChar

StartChar: u
Encoding: 117 117 89
Width: 680
GlyphClass: 2
Flags: W
LayerCount: 2
Fore
SplineSet
684 134 m 0,0,1
 706 152 706 152 722.5 149 c 128,-1,2
 739 146 739 146 739 117 c 0,3,4
 739 108 739 108 735 99 c 128,-1,5
 731 90 731 90 726 84 c 128,-1,6
 721 78 721 78 711 69.5 c 128,-1,7
 701 61 701 61 695.5 57 c 128,-1,8
 690 53 690 53 678.5 45.5 c 128,-1,9
 667 38 667 38 664 36 c 0,10,11
 593 -13 593 -13 591 -16 c 0,12,13
 585 -22 585 -22 561.5 -29 c 128,-1,14
 538 -36 538 -36 525 -36 c 0,15,16
 508 -41 508 -41 495 -41 c 128,-1,17
 482 -41 482 -41 465.5 -36.5 c 128,-1,18
 449 -32 449 -32 441.5 -29 c 128,-1,19
 434 -26 434 -26 429 -24 c 0,20,21
 402 -11 402 -11 355 33 c 2,22,-1
 316 70 l 1,23,-1
 266 33 l 2,24,25
 214 -2 214 -2 153 -10 c 0,26,27
 102 -15 102 -15 56 1 c 128,-1,28
 10 17 10 17 -16.5 56.5 c 128,-1,29
 -43 96 -43 96 -32 151 c 0,30,31
 -20 209 -20 209 25.5 278.5 c 128,-1,32
 71 348 71 348 122 397 c 0,33,34
 161 434 161 434 184 434 c 0,35,36
 195 434 195 434 214 414 c 0,37,38
 227 400 227 400 226.5 391 c 128,-1,39
 226 382 226 382 211 354 c 0,40,41
 88 113 88 113 147 92 c 1,42,-1
 155 91 l 2,43,44
 196 85 196 85 268 159 c 128,-1,45
 340 233 340 233 368 309 c 0,46,47
 389 360 389 360 419 401 c 0,48,49
 445 437 445 437 457 441.5 c 128,-1,50
 469 446 469 446 502 429 c 0,51,52
 530 414 530 414 531.5 395 c 128,-1,53
 533 376 533 376 511 334 c 0,54,55
 500 317 500 317 493 296 c 0,56,57
 486 276 486 276 482 260 c 0,58,59
 480 255 480 255 477 241.5 c 128,-1,60
 474 228 474 228 471 219 c 0,61,62
 465 194 465 194 460 178 c 0,63,64
 450 136 450 136 450 98.5 c 128,-1,65
 450 61 450 61 462 49 c 0,66,67
 472 39 472 39 505 37 c 0,68,69
 510 39 510 39 532 46.5 c 128,-1,70
 554 54 554 54 562 58 c 0,71,72
 639 98 639 98 684 134 c 0,0,1
EndSplineSet
EndChar

StartChar: v
Encoding: 118 118 90
Width: 706
GlyphClass: 2
Flags: W
LayerCount: 2
Fore
SplineSet
659 178 m 0,0,1
 623 184 623 184 598 195 c 0,2,3
 588 199 588 199 556.5 224 c 128,-1,4
 525 249 525 249 512 251 c 0,5,6
 496 252 496 252 482.5 246 c 128,-1,7
 469 240 469 240 459 229.5 c 128,-1,8
 449 219 449 219 438.5 204 c 128,-1,9
 428 189 428 189 421 175 c 128,-1,10
 414 161 414 161 405.5 145 c 128,-1,11
 397 129 397 129 390 119 c 0,12,13
 380 105 380 105 345.5 81 c 128,-1,14
 311 57 311 57 278 36.5 c 128,-1,15
 245 16 245 16 243 14 c 0,16,17
 230 4 230 4 191.5 0.5 c 128,-1,18
 153 -3 153 -3 114 5.5 c 128,-1,19
 75 14 75 14 64 33 c 0,20,21
 59 41 59 41 55.5 60.5 c 128,-1,22
 52 80 52 80 50.5 97.5 c 128,-1,23
 49 115 49 115 47 139 c 128,-1,24
 45 163 45 163 45 171 c 0,25,26
 39 220 39 220 54 249 c 0,27,28
 59 257 59 257 66.5 309 c 128,-1,29
 74 361 74 361 87 423.5 c 128,-1,30
 100 486 100 486 118 518 c 0,31,32
 159 587 159 587 225 512 c 0,33,34
 241 494 241 494 237 447 c 0,35,36
 234 400 234 400 213 354 c 0,37,38
 201 326 201 326 183 270 c 0,39,40
 164 215 164 215 158 200 c 0,41,42
 137 145 137 145 160 115 c 0,43,44
 165 108 165 108 179 111 c 128,-1,45
 193 114 193 114 209.5 122.5 c 128,-1,46
 226 131 226 131 239.5 140.5 c 128,-1,47
 253 150 253 150 259 157 c 0,48,49
 280 180 280 180 317.5 253.5 c 128,-1,50
 355 327 355 327 361 358 c 0,51,52
 369 391 369 391 393.5 421.5 c 128,-1,53
 418 452 418 452 448 470 c 128,-1,54
 478 488 478 488 510 482 c 128,-1,55
 542 476 542 476 562 440 c 0,56,57
 571 423 571 423 578.5 377 c 128,-1,58
 586 331 586 331 606 308 c 0,59,60
 625 286 625 286 646.5 277 c 128,-1,61
 668 268 668 268 699.5 263.5 c 128,-1,62
 731 259 731 259 749 253 c 0,63,64
 770 245 770 245 782.5 225 c 128,-1,65
 795 205 795 205 784 188 c 0,66,67
 770 165 770 165 720 170 c 0,68,69
 680 174 680 174 659 178 c 0,0,1
EndSplineSet
EndChar

StartChar: w
Encoding: 119 119 91
Width: 885
GlyphClass: 2
Flags: W
LayerCount: 2
Fore
SplineSet
918 187 m 0,0,1
 940 205 940 205 956.5 202 c 128,-1,2
 973 199 973 199 974 170 c 0,3,4
 974 147 974 147 948 121.5 c 128,-1,5
 922 96 922 96 897 87 c 0,6,7
 881 81 881 81 862 88 c 128,-1,8
 843 95 843 95 832 104 c 2,9,-1
 821 114 l 2,10,11
 820 114 820 114 810.5 121 c 128,-1,12
 801 128 801 128 788 137.5 c 128,-1,13
 775 147 775 147 758.5 156 c 128,-1,14
 742 165 742 165 728 168.5 c 128,-1,15
 714 172 714 172 703 168 c 0,16,17
 689 161 689 161 674.5 143 c 128,-1,18
 660 125 660 125 644.5 100.5 c 128,-1,19
 629 76 629 76 622 68 c 0,20,21
 604 46 604 46 591.5 35 c 128,-1,22
 579 24 579 24 561 15 c 0,23,24
 529 -1 529 -1 484.5 0.5 c 128,-1,25
 440 2 440 2 403 19 c 0,26,27
 361 40 361 40 341.5 39.5 c 128,-1,28
 322 39 322 39 312 19 c 0,29,30
 305 5 305 5 293 2 c 128,-1,31
 281 -1 281 -1 241 3 c 0,32,33
 208 6 208 6 187 12 c 0,34,35
 117 32 117 32 80.5 74 c 128,-1,36
 44 116 44 116 43 168 c 128,-1,37
 42 220 42 220 62 274.5 c 128,-1,38
 82 329 82 329 121 381 c 0,39,40
 140 407 140 407 159 410 c 0,41,42
 168 412 168 412 172 413 c 0,43,44
 179 414 179 414 190 416 c 0,45,46
 198 416 198 416 211 392 c 0,47,48
 221 365 221 365 204 316 c 0,49,50
 183 264 183 264 183 187 c 0,51,52
 183 133 183 133 186 120.5 c 128,-1,53
 189 108 189 108 204 105 c 0,54,55
 223 104 223 104 258 138 c 128,-1,56
 293 172 293 172 293 193 c 0,57,58
 293 208 293 208 319 226 c 0,59,60
 349 246 349 246 382 298 c 0,61,62
 417 355 417 355 444 361 c 0,63,64
 493 374 493 374 505 342 c 128,-1,65
 517 310 517 310 483 260 c 0,66,67
 457 224 457 224 441 175 c 128,-1,68
 425 126 425 126 434 114 c 0,69,70
 438 104 438 104 468 104 c 0,71,72
 496 104 496 104 551 162.5 c 128,-1,73
 606 221 606 221 618 264 c 0,74,75
 628 307 628 307 649 341 c 0,76,77
 662 362 662 362 673 369 c 128,-1,78
 684 376 684 376 706 376 c 256,79,80
 728 376 728 376 739 359.5 c 128,-1,81
 750 343 750 343 752 321.5 c 128,-1,82
 754 300 754 300 761.5 274.5 c 128,-1,83
 769 249 769 249 783 236 c 0,84,85
 792 228 792 228 811 217 c 0,86,87
 867 182 867 182 899 176 c 1,88,89
 899 176 899 176 900 176 c 0,90,91
 913 183 913 183 918 187 c 0,0,1
EndSplineSet
EndChar

StartChar: x
Encoding: 120 120 92
Width: 898
GlyphClass: 2
Flags: W
LayerCount: 2
Fore
SplineSet
925 172 m 0,0,1
 947 190 947 190 963 186.5 c 128,-1,2
 979 183 979 183 980 155 c 0,3,4
 980 146 980 146 976 137 c 128,-1,5
 972 128 972 128 967 121.5 c 128,-1,6
 962 115 962 115 952 107 c 128,-1,7
 942 99 942 99 936.5 95 c 128,-1,8
 931 91 931 91 919.5 83 c 128,-1,9
 908 75 908 75 905 74 c 0,10,11
 881 57 881 57 856 47 c 0,12,13
 852 45 852 45 837 37 c 1,14,15
 822 20 822 20 784 9 c 1,16,17
 750 -6 750 -6 670 -2 c 0,18,19
 585 3 585 3 538 53 c 0,20,21
 512 80 512 80 499 80 c 0,22,23
 487 80 487 80 375 -41 c 0,24,25
 260 -161 260 -161 247 -161 c 0,26,27
 239 -161 239 -161 223.5 -148.5 c 128,-1,28
 208 -136 208 -136 195 -121 c 128,-1,29
 182 -106 182 -106 182 -98 c 0,30,31
 182 -87 182 -87 305 38 c 0,32,33
 428 164 428 164 437 181 c 0,34,35
 447 200 447 200 437.5 257 c 128,-1,36
 428 314 428 314 402.5 336 c 128,-1,37
 377 358 377 358 339.5 343 c 128,-1,38
 302 328 302 328 267.5 306.5 c 128,-1,39
 233 285 233 285 189.5 240 c 128,-1,40
 146 195 146 195 126 173 c 128,-1,41
 106 151 106 151 81 120 c 1,42,-1
 80 120 l 1,43,44
 54 89 54 89 34 96 c 0,45,46
 26 99 26 99 15 112 c 0,47,48
 5 122 5 122 4 129 c 0,49,50
 3 140 3 140 17 156 c 0,51,52
 27 167 27 167 52.5 197.5 c 128,-1,53
 78 228 78 228 90.5 242 c 128,-1,54
 103 256 103 256 128 283 c 128,-1,55
 153 310 153 310 169 324 c 128,-1,56
 185 338 185 338 210 360 c 128,-1,57
 235 382 235 382 256 394 c 128,-1,58
 277 406 277 406 303.5 419.5 c 128,-1,59
 330 433 330 433 357 440.5 c 128,-1,60
 384 448 384 448 413 452 c 0,61,62
 452 455 452 455 467.5 450.5 c 128,-1,63
 483 446 483 446 504 430 c 0,64,65
 535 403 535 403 545 365 c 0,66,67
 552 327 552 327 570 321 c 1,68,69
 569 322 569 322 610.5 358.5 c 128,-1,70
 652 395 652 395 698.5 433.5 c 128,-1,71
 745 472 745 472 754 477 c 0,72,73
 758 479 758 479 764.5 483 c 128,-1,74
 771 487 771 487 775.5 489.5 c 128,-1,75
 780 492 780 492 786 494.5 c 128,-1,76
 792 497 792 497 797 497 c 0,77,78
 811 497 811 497 831 479.5 c 128,-1,79
 851 462 851 462 851 451 c 0,80,81
 851 436 851 436 807 388.5 c 128,-1,82
 763 341 763 341 750 341 c 0,83,84
 742 341 742 341 715.5 318.5 c 128,-1,85
 689 296 689 296 661 267 c 2,86,-1
 587 192 l 1,87,-1
 599 152 l 2,88,89
 610 112 610 112 647 90 c 0,90,91
 673 74 673 74 686 72.5 c 128,-1,92
 699 71 699 71 732 80 c 0,93,94
 737 81 737 81 753 86.5 c 128,-1,95
 769 92 769 92 783.5 96 c 128,-1,96
 798 100 798 100 809 100 c 1,97,98
 882 138 882 138 925 172 c 0,0,1
EndSplineSet
Substitution2: "'aalt' Access All Alternates lookup 0 subtable" x.alt1
EndChar

